<svg width="852" height="281" viewBox="0 0 852 281" fill="none" xmlns="http://www.w3.org/2000/svg">
<line x1="49.0728" y1="191.147" x2="225.073" y2="240.147" stroke="black" stroke-width="8"/>
<line x1="287.836" y1="241.553" x2="362.836" y2="144.553" stroke="black" stroke-width="8"/>
<line x1="55.2655" y1="161.068" x2="328.265" y2="110.068" stroke="black" stroke-width="8"/>
<line x1="125.968" y1="58.6818" x2="50.9678" y2="141.682" stroke="#030303" stroke-width="8"/>
<line x1="164.554" y1="54.1654" x2="244.554" y2="209.165" stroke="#030303" stroke-width="8"/>
<line x1="194.257" y1="29.2025" x2="330.257" y2="74.2025" stroke="#030303" stroke-width="8"/>
<path d="M436.84 77V76.58C437.56 76.58 437.98 76.4467 438.1 76.18V66.12C437.98 65.8533 437.56 65.72 436.84 65.72V65.3H439.52L446.14 73.48V66.12C446.02 65.8533 445.6 65.72 444.88 65.72V65.3H448.08V65.72C447.36 65.72 446.94 65.8533 446.82 66.12V77H446.64L438.78 67.06V76.18C438.9 76.4467 439.32 76.58 440.04 76.58V77H436.84ZM450.701 69.68C450.888 69.68 451.048 69.7467 451.181 69.88C451.328 70.0133 451.401 70.22 451.401 70.5C451.401 70.7267 451.308 70.9 451.121 71.02C450.948 71.14 450.741 71.2 450.501 71.2C450.248 71.2 450.041 71.1133 449.881 70.94C449.721 70.7533 449.641 70.5067 449.641 70.2C449.641 69.5067 449.928 68.9667 450.501 68.58C451.074 68.1933 451.888 68 452.941 68C454.181 68 455.088 68.3067 455.661 68.92C456.248 69.5333 456.541 70.3467 456.541 71.36V75.32C456.541 75.7467 456.608 76.06 456.741 76.26C456.888 76.46 457.061 76.56 457.261 76.56C457.434 76.56 457.588 76.5133 457.721 76.42C457.868 76.3267 457.941 76.2133 457.941 76.08H458.301C458.301 76.4533 458.161 76.7267 457.881 76.9C457.614 77.0733 457.141 77.16 456.461 77.16C455.794 77.16 455.321 76.8867 455.041 76.34C454.254 76.9133 453.274 77.2 452.101 77.2C450.101 77.2 449.101 76.3867 449.101 74.76C449.101 74.4133 449.221 74.1 449.461 73.82C449.714 73.54 450.074 73.3067 450.541 73.12C451.008 72.9333 451.448 72.7867 451.861 72.68C452.274 72.56 452.788 72.4333 453.401 72.3C454.028 72.1533 454.474 72.04 454.741 71.96C454.741 70.84 454.594 70.02 454.301 69.5C454.008 68.98 453.488 68.72 452.741 68.72C451.541 68.72 450.861 69.04 450.701 69.68ZM454.861 75.84C454.781 75.5467 454.741 75.1867 454.741 74.76V72.4C454.594 72.4533 454.341 72.5267 453.981 72.62C453.634 72.7133 453.348 72.7933 453.121 72.86C452.908 72.9267 452.648 73.0267 452.341 73.16C452.034 73.2933 451.794 73.4267 451.621 73.56C451.448 73.6933 451.294 73.8733 451.161 74.1C451.028 74.3133 450.961 74.5467 450.961 74.8C450.961 75.44 451.081 75.8867 451.321 76.14C451.574 76.3933 451.948 76.52 452.441 76.52C453.321 76.52 454.128 76.2933 454.861 75.84ZM458.749 77V76.58C459.469 76.58 459.889 76.4467 460.009 76.18V69.42C459.182 69.3533 458.762 69.32 458.749 69.32V68.86C459.002 68.86 459.496 68.72 460.229 68.44C460.976 68.1467 461.502 68 461.809 68V68.9C462.516 68.3 463.256 68 464.029 68C465.629 68 466.656 68.3867 467.109 69.16C467.856 68.3867 468.689 68 469.609 68C471.849 68 472.969 68.76 472.969 70.28V76.18C473.089 76.4467 473.509 76.58 474.229 76.58V77H469.909V76.58C470.629 76.58 471.049 76.4467 471.169 76.18V71.02C471.169 70.1533 471.042 69.5467 470.789 69.2C470.536 68.8533 470.102 68.68 469.489 68.68C468.702 68.68 467.976 69 467.309 69.64C467.362 69.8133 467.389 70.0267 467.389 70.28V76.18C467.509 76.4467 467.929 76.58 468.649 76.58V77H464.329V76.58C465.049 76.58 465.469 76.4467 465.589 76.18V71.02C465.589 70.1533 465.462 69.5467 465.209 69.2C464.956 68.8533 464.522 68.68 463.909 68.68C463.149 68.68 462.449 68.9733 461.809 69.56V76.18C461.929 76.4467 462.349 76.58 463.069 76.58V77H458.749ZM477.196 72.18C477.209 73.3 477.529 74.2933 478.156 75.16C478.796 76.0133 479.509 76.44 480.296 76.44C481.456 76.44 482.389 76 483.096 75.12L483.576 75.36C483.189 76 482.682 76.4667 482.056 76.76C481.442 77.0533 480.629 77.2 479.616 77.2C479.109 77.2 478.622 77.1267 478.156 76.98C477.689 76.82 477.229 76.5667 476.776 76.22C476.322 75.86 475.962 75.3333 475.696 74.64C475.429 73.9467 475.296 73.12 475.296 72.16C475.296 70.9867 475.656 70 476.376 69.2C477.109 68.4 478.122 68 479.416 68C480.829 68 481.882 68.4 482.576 69.2C483.269 69.9867 483.616 70.98 483.616 72.18H477.196ZM477.216 71.56H481.656C481.576 70.6 481.369 69.8667 481.036 69.36C480.716 68.8533 480.149 68.6 479.336 68.6C478.869 68.6 478.416 68.8733 477.976 69.42C477.549 69.9667 477.296 70.68 477.216 71.56ZM485.979 70.24C485.739 69.9867 485.619 69.7 485.619 69.38C485.619 69.06 485.726 68.7733 485.939 68.52C486.166 68.2533 486.452 68.12 486.799 68.12C487.106 68.12 487.386 68.24 487.639 68.48C487.892 68.72 488.019 69 488.019 69.32C488.019 69.64 487.906 69.9333 487.679 70.2C487.452 70.4667 487.166 70.6 486.819 70.6C486.512 70.6 486.232 70.48 485.979 70.24ZM485.979 76.84C485.739 76.5867 485.619 76.3 485.619 75.98C485.619 75.66 485.726 75.3733 485.939 75.12C486.166 74.8533 486.452 74.72 486.799 74.72C487.106 74.72 487.386 74.84 487.639 75.08C487.892 75.32 488.019 75.6 488.019 75.92C488.019 76.24 487.906 76.5333 487.679 76.8C487.452 77.0667 487.166 77.2 486.819 77.2C486.512 77.2 486.232 77.08 485.979 76.84ZM499.046 77.2C498.393 77.2 497.726 77.1 497.046 76.9C496.366 76.7 496.013 76.6 495.986 76.6C495.906 76.6 495.813 76.64 495.706 76.72C495.6 76.8 495.546 76.8933 495.546 77H495.086V74.22H495.526C495.673 75.02 496.066 75.6067 496.706 75.98C497.36 76.34 498.1 76.52 498.926 76.52C499.633 76.52 500.213 76.36 500.666 76.04C501.12 75.72 501.346 75.24 501.346 74.6C501.346 74.3067 501.28 74.04 501.146 73.8C501.026 73.56 500.833 73.34 500.566 73.14C500.313 72.9267 500.066 72.7533 499.826 72.62C499.586 72.4733 499.273 72.3 498.886 72.1C498.513 71.8867 498.226 71.72 498.026 71.6C497.56 71.3067 497.213 71.0867 496.986 70.94C496.76 70.78 496.466 70.5467 496.106 70.24C495.76 69.9333 495.506 69.6133 495.346 69.28C495.186 68.9467 495.106 68.5867 495.106 68.2C495.106 67.4133 495.466 66.7 496.186 66.06C496.906 65.42 497.713 65.1 498.606 65.1C498.993 65.1 499.473 65.2 500.046 65.4C500.62 65.6 500.946 65.7 501.026 65.7C501.186 65.7 501.266 65.5667 501.266 65.3H501.726L501.926 67.84H501.486C501.406 67.2533 501.113 66.7667 500.606 66.38C500.1 65.98 499.44 65.78 498.626 65.78C498.013 65.78 497.52 65.98 497.146 66.38C496.786 66.7667 496.606 67.16 496.606 67.56C496.606 67.8133 496.666 68.0533 496.786 68.28C496.906 68.4933 497.093 68.6933 497.346 68.88C497.6 69.0667 497.84 69.2333 498.066 69.38C498.293 69.5133 498.593 69.68 498.966 69.88C499.353 70.08 499.646 70.24 499.846 70.36C500.393 70.6933 500.786 70.94 501.026 71.1C501.266 71.26 501.573 71.5067 501.946 71.84C502.333 72.1733 502.6 72.52 502.746 72.88C502.906 73.2267 502.986 73.6133 502.986 74.04C502.986 75.0267 502.586 75.8 501.786 76.36C500.986 76.92 500.073 77.2 499.046 77.2ZM505.857 69.68C506.044 69.68 506.204 69.7467 506.337 69.88C506.484 70.0133 506.557 70.22 506.557 70.5C506.557 70.7267 506.464 70.9 506.277 71.02C506.104 71.14 505.897 71.2 505.657 71.2C505.404 71.2 505.197 71.1133 505.037 70.94C504.877 70.7533 504.797 70.5067 504.797 70.2C504.797 69.5067 505.084 68.9667 505.657 68.58C506.231 68.1933 507.044 68 508.097 68C509.337 68 510.244 68.3067 510.817 68.92C511.404 69.5333 511.697 70.3467 511.697 71.36V75.32C511.697 75.7467 511.764 76.06 511.897 76.26C512.044 76.46 512.217 76.56 512.417 76.56C512.591 76.56 512.744 76.5133 512.877 76.42C513.024 76.3267 513.097 76.2133 513.097 76.08H513.457C513.457 76.4533 513.317 76.7267 513.037 76.9C512.771 77.0733 512.297 77.16 511.617 77.16C510.951 77.16 510.477 76.8867 510.197 76.34C509.411 76.9133 508.431 77.2 507.257 77.2C505.257 77.2 504.257 76.3867 504.257 74.76C504.257 74.4133 504.377 74.1 504.617 73.82C504.871 73.54 505.231 73.3067 505.697 73.12C506.164 72.9333 506.604 72.7867 507.017 72.68C507.431 72.56 507.944 72.4333 508.557 72.3C509.184 72.1533 509.631 72.04 509.897 71.96C509.897 70.84 509.751 70.02 509.457 69.5C509.164 68.98 508.644 68.72 507.897 68.72C506.697 68.72 506.017 69.04 505.857 69.68ZM510.017 75.84C509.937 75.5467 509.897 75.1867 509.897 74.76V72.4C509.751 72.4533 509.497 72.5267 509.137 72.62C508.791 72.7133 508.504 72.7933 508.277 72.86C508.064 72.9267 507.804 73.0267 507.497 73.16C507.191 73.2933 506.951 73.4267 506.777 73.56C506.604 73.6933 506.451 73.8733 506.317 74.1C506.184 74.3133 506.117 74.5467 506.117 74.8C506.117 75.44 506.237 75.8867 506.477 76.14C506.731 76.3933 507.104 76.52 507.597 76.52C508.477 76.52 509.284 76.2933 510.017 75.84ZM513.905 77V76.58C514.625 76.58 515.045 76.4467 515.165 76.18V69.42C514.338 69.3533 513.918 69.32 513.905 69.32V68.86C514.158 68.86 514.652 68.72 515.385 68.44C516.132 68.1467 516.658 68 516.965 68V68.9C517.672 68.3 518.412 68 519.185 68C520.785 68 521.812 68.3867 522.265 69.16C523.012 68.3867 523.845 68 524.765 68C527.005 68 528.125 68.76 528.125 70.28V76.18C528.245 76.4467 528.665 76.58 529.385 76.58V77H525.065V76.58C525.785 76.58 526.205 76.4467 526.325 76.18V71.02C526.325 70.1533 526.198 69.5467 525.945 69.2C525.692 68.8533 525.258 68.68 524.645 68.68C523.858 68.68 523.132 69 522.465 69.64C522.518 69.8133 522.545 70.0267 522.545 70.28V76.18C522.665 76.4467 523.085 76.58 523.805 76.58V77H519.485V76.58C520.205 76.58 520.625 76.4467 520.745 76.18V71.02C520.745 70.1533 520.618 69.5467 520.365 69.2C520.112 68.8533 519.678 68.68 519.065 68.68C518.305 68.68 517.605 68.9733 516.965 69.56V76.18C517.085 76.4467 517.505 76.58 518.225 76.58V77H513.905ZM539.535 77.2C538.881 77.2 538.215 77.1 537.535 76.9C536.855 76.7 536.501 76.6 536.475 76.6C536.395 76.6 536.301 76.64 536.195 76.72C536.088 76.8 536.035 76.8933 536.035 77H535.575V74.22H536.015C536.161 75.02 536.555 75.6067 537.195 75.98C537.848 76.34 538.588 76.52 539.415 76.52C540.121 76.52 540.701 76.36 541.155 76.04C541.608 75.72 541.835 75.24 541.835 74.6C541.835 74.3067 541.768 74.04 541.635 73.8C541.515 73.56 541.321 73.34 541.055 73.14C540.801 72.9267 540.555 72.7533 540.315 72.62C540.075 72.4733 539.761 72.3 539.375 72.1C539.001 71.8867 538.715 71.72 538.515 71.6C538.048 71.3067 537.701 71.0867 537.475 70.94C537.248 70.78 536.955 70.5467 536.595 70.24C536.248 69.9333 535.995 69.6133 535.835 69.28C535.675 68.9467 535.595 68.5867 535.595 68.2C535.595 67.4133 535.955 66.7 536.675 66.06C537.395 65.42 538.201 65.1 539.095 65.1C539.481 65.1 539.961 65.2 540.535 65.4C541.108 65.6 541.435 65.7 541.515 65.7C541.675 65.7 541.755 65.5667 541.755 65.3H542.215L542.415 67.84H541.975C541.895 67.2533 541.601 66.7667 541.095 66.38C540.588 65.98 539.928 65.78 539.115 65.78C538.501 65.78 538.008 65.98 537.635 66.38C537.275 66.7667 537.095 67.16 537.095 67.56C537.095 67.8133 537.155 68.0533 537.275 68.28C537.395 68.4933 537.581 68.6933 537.835 68.88C538.088 69.0667 538.328 69.2333 538.555 69.38C538.781 69.5133 539.081 69.68 539.455 69.88C539.841 70.08 540.135 70.24 540.335 70.36C540.881 70.6933 541.275 70.94 541.515 71.1C541.755 71.26 542.061 71.5067 542.435 71.84C542.821 72.1733 543.088 72.52 543.235 72.88C543.395 73.2267 543.475 73.6133 543.475 74.04C543.475 75.0267 543.075 75.8 542.275 76.36C541.475 76.92 540.561 77.2 539.535 77.2ZM544.569 77V76.58C545.289 76.58 545.709 76.4467 545.829 76.18V69.42C545.003 69.3533 544.583 69.32 544.569 69.32V68.86C544.823 68.86 545.316 68.72 546.049 68.44C546.796 68.1467 547.323 68 547.629 68V68.9C548.336 68.3 549.076 68 549.849 68C551.449 68 552.476 68.3867 552.929 69.16C553.676 68.3867 554.509 68 555.429 68C557.669 68 558.789 68.76 558.789 70.28V76.18C558.909 76.4467 559.329 76.58 560.049 76.58V77H555.729V76.58C556.449 76.58 556.869 76.4467 556.989 76.18V71.02C556.989 70.1533 556.863 69.5467 556.609 69.2C556.356 68.8533 555.923 68.68 555.309 68.68C554.523 68.68 553.796 69 553.129 69.64C553.183 69.8133 553.209 70.0267 553.209 70.28V76.18C553.329 76.4467 553.749 76.58 554.469 76.58V77H550.149V76.58C550.869 76.58 551.289 76.4467 551.409 76.18V71.02C551.409 70.1533 551.283 69.5467 551.029 69.2C550.776 68.8533 550.343 68.68 549.729 68.68C548.969 68.68 548.269 68.9733 547.629 69.56V76.18C547.749 76.4467 548.169 76.58 548.889 76.58V77H544.569ZM561.034 77V76.58C561.754 76.58 562.174 76.4467 562.294 76.18V69.42C561.467 69.3533 561.047 69.32 561.034 69.32V68.86C561.287 68.86 561.781 68.72 562.514 68.44C563.261 68.1467 563.787 68 564.094 68V76.18C564.214 76.4467 564.634 76.58 565.354 76.58V77H561.034ZM563.134 66.72C562.841 66.72 562.581 66.6133 562.354 66.4C562.141 66.1733 562.034 65.8867 562.034 65.54C562.034 65.2333 562.127 64.9667 562.314 64.74C562.514 64.5133 562.767 64.4 563.074 64.4C563.367 64.4 563.627 64.5133 563.854 64.74C564.081 64.9667 564.194 65.2533 564.194 65.6C564.194 65.9067 564.094 66.1733 563.894 66.4C563.694 66.6133 563.441 66.72 563.134 66.72ZM569.366 65.3V68.2H571.086V68.8H569.366V75.16C569.366 75.5733 569.439 75.8933 569.586 76.12C569.732 76.3333 570.006 76.44 570.406 76.44C570.646 76.44 570.886 76.3267 571.126 76.1C571.379 75.86 571.552 75.5333 571.646 75.12L572.126 75.36C571.846 76.5867 571.046 77.2 569.726 77.2C568.206 77.2 567.446 76.4667 567.446 75V68.8H566.046V68.2C566.672 68.2 567.239 67.94 567.746 67.42C568.252 66.9 568.506 66.1933 568.506 65.3H569.366ZM572.846 77V76.58C573.566 76.58 573.986 76.4467 574.106 76.18V65.82C573.279 65.7533 572.859 65.72 572.846 65.72V65.26C573.099 65.26 573.592 65.12 574.326 64.84C575.072 64.5467 575.599 64.4 575.906 64.4V68.92C576.626 68.3067 577.419 68 578.286 68C579.552 68 580.452 68.2067 580.986 68.62C581.532 69.0333 581.806 69.7467 581.806 70.76V76.18C581.926 76.4467 582.346 76.58 583.066 76.58V77H578.746V76.58C579.466 76.58 579.886 76.4467 580.006 76.18V70.62C580.006 69.3267 579.392 68.68 578.166 68.68C577.326 68.68 576.572 68.9733 575.906 69.56V76.18C576.026 76.4467 576.446 76.58 577.166 76.58V77H572.846ZM585.442 77.12C585.149 77.12 584.902 77.0333 584.702 76.86C584.515 76.6867 584.422 76.4467 584.422 76.14C584.422 75.78 584.549 75.5 584.802 75.3C585.055 75.1 585.309 75 585.562 75C586.042 75 586.429 75.2133 586.722 75.64C587.029 76.0533 587.182 76.5467 587.182 77.12C587.182 78.24 586.355 79.06 584.702 79.58V79.02C585.035 78.98 585.375 78.7933 585.722 78.46C586.082 78.14 586.262 77.7733 586.262 77.36C586.262 77.12 586.249 76.98 586.222 76.94C586.195 76.8867 586.142 76.86 586.062 76.86C586.022 76.86 585.942 76.9067 585.822 77C585.715 77.08 585.589 77.12 585.442 77.12ZM596.776 71.2V76.32H598.476C600.343 76.32 601.276 75.4133 601.276 73.6C601.276 72.9733 601.043 72.42 600.576 71.94C600.109 71.4467 599.329 71.2 598.236 71.2H596.776ZM596.776 65.98V70.62H597.596C599.463 70.62 600.396 69.7733 600.396 68.08C600.396 66.68 599.383 65.98 597.356 65.98H596.776ZM593.676 77V76.58C594.396 76.58 594.816 76.4467 594.936 76.18V66.12C594.816 65.8533 594.396 65.72 593.676 65.72V65.3H597.356C599.023 65.3 600.276 65.5733 601.116 66.12C601.969 66.6667 602.396 67.3133 602.396 68.06C602.396 69.42 601.689 70.34 600.276 70.82C601.276 71.0467 602.023 71.42 602.516 71.94C603.023 72.4467 603.276 72.9933 603.276 73.58C603.276 74.5933 602.869 75.42 602.056 76.06C601.256 76.6867 600.063 77 598.476 77H593.676ZM604.692 77V76.58C605.412 76.58 605.832 76.4467 605.952 76.18V66.12C605.832 65.8533 605.412 65.72 604.692 65.72V65.3H607.612L611.872 74.6L616.132 65.3H619.092V65.72C618.372 65.72 617.952 65.8533 617.832 66.12V76.18C617.952 76.4467 618.372 76.58 619.092 76.58V77H614.732V76.58C615.452 76.58 615.872 76.4467 615.992 76.18V67.2L611.512 77H611.212L606.632 67.08V76.18C606.752 76.4467 607.172 76.58 607.892 76.58V77H604.692ZM620.766 77V76.58C621.486 76.58 621.906 76.4467 622.026 76.18V66.12C621.906 65.8533 621.486 65.72 620.766 65.72V65.3H625.126V65.72C624.406 65.72 623.986 65.8533 623.866 66.12V76.18C623.986 76.4467 624.406 76.58 625.126 76.58V77H620.766ZM627.561 70.24C627.321 69.9867 627.201 69.7 627.201 69.38C627.201 69.06 627.308 68.7733 627.521 68.52C627.748 68.2533 628.034 68.12 628.381 68.12C628.688 68.12 628.968 68.24 629.221 68.48C629.474 68.72 629.601 69 629.601 69.32C629.601 69.64 629.488 69.9333 629.261 70.2C629.034 70.4667 628.748 70.6 628.401 70.6C628.094 70.6 627.814 70.48 627.561 70.24ZM627.561 76.84C627.321 76.5867 627.201 76.3 627.201 75.98C627.201 75.66 627.308 75.3733 627.521 75.12C627.748 74.8533 628.034 74.72 628.381 74.72C628.688 74.72 628.968 74.84 629.221 75.08C629.474 75.32 629.601 75.6 629.601 75.92C629.601 76.24 629.488 76.5333 629.261 76.8C629.034 77.0667 628.748 77.2 628.401 77.2C628.094 77.2 627.814 77.08 627.561 76.84ZM639.888 71.18C639.795 71.18 639.708 71.1533 639.628 71.1C639.548 71.0467 639.508 70.9867 639.508 70.92C639.508 70.8667 639.555 70.82 639.648 70.78C640.342 70.5667 640.942 70.2467 641.448 69.82C641.968 69.38 642.228 68.8 642.228 68.08C642.228 67.5333 642.042 67.1 641.668 66.78C641.295 66.46 640.768 66.3 640.088 66.3C639.542 66.3 639.075 66.38 638.688 66.54C638.302 66.7 638.035 66.88 637.888 67.08C637.755 67.28 637.635 67.46 637.528 67.62C637.435 67.78 637.362 67.86 637.308 67.86C637.202 67.86 637.148 67.7933 637.148 67.66C637.148 67.5133 637.208 67.3133 637.328 67.06C637.448 66.8067 637.622 66.5267 637.848 66.22C638.088 65.9133 638.422 65.6533 638.848 65.44C639.288 65.2133 639.775 65.1 640.308 65.1C641.588 65.1 642.515 65.3267 643.088 65.78C643.662 66.2333 643.948 66.9133 643.948 67.82C643.948 68.78 643.302 69.6333 642.008 70.38C642.662 70.54 643.235 70.9467 643.728 71.6C644.235 72.24 644.488 72.8933 644.488 73.56C644.488 74.08 644.428 74.5467 644.308 74.96C644.202 75.36 644.002 75.74 643.708 76.1C643.428 76.4467 643.002 76.72 642.428 76.92C641.868 77.1067 641.182 77.2 640.368 77.2C639.822 77.2 639.302 77.1333 638.808 77C638.315 76.8667 637.915 76.7067 637.608 76.52C637.302 76.3333 637.055 76.1533 636.868 75.98C636.695 75.7933 636.608 75.6533 636.608 75.56C636.608 75.16 636.655 74.88 636.748 74.72C636.855 74.56 637.048 74.48 637.328 74.48C637.462 74.48 637.575 74.5533 637.668 74.7C637.762 74.8467 637.855 75.0267 637.948 75.24C638.042 75.44 638.162 75.6467 638.308 75.86C638.455 76.06 638.695 76.2333 639.028 76.38C639.362 76.5267 639.768 76.6 640.248 76.6C641.968 76.6 642.828 75.72 642.828 73.96C642.828 73.6133 642.775 73.2333 642.668 72.82C642.562 72.4067 642.348 72.0133 642.028 71.64C641.708 71.2667 641.322 71.08 640.868 71.08C640.708 71.08 640.535 71.1 640.348 71.14C640.175 71.1667 640.022 71.18 639.888 71.18ZM648.613 67.38C648.16 68.4733 647.933 69.7333 647.933 71.16C647.933 72.5867 648.16 73.8467 648.613 74.94C649.08 76.0333 649.66 76.58 650.353 76.58C651.046 76.58 651.62 76.0333 652.073 74.94C652.54 73.8467 652.773 72.5867 652.773 71.16C652.773 69.7333 652.54 68.4733 652.073 67.38C651.62 66.2733 651.046 65.72 650.353 65.72C649.66 65.72 649.08 66.2733 648.613 67.38ZM647.253 75.46C646.506 74.2867 646.133 72.8533 646.133 71.16C646.133 69.4667 646.506 68.0333 647.253 66.86C648.013 65.6867 649.046 65.1 650.353 65.1C651.66 65.1 652.686 65.6867 653.433 66.86C654.193 68.0333 654.573 69.4667 654.573 71.16C654.573 72.8533 654.193 74.2867 653.433 75.46C652.686 76.62 651.66 77.2 650.353 77.2C649.046 77.2 648.013 76.62 647.253 75.46ZM657.063 77.12C656.77 77.12 656.523 77.0333 656.323 76.86C656.136 76.6867 656.043 76.4467 656.043 76.14C656.043 75.78 656.17 75.5 656.423 75.3C656.676 75.1 656.93 75 657.183 75C657.663 75 658.05 75.2133 658.343 75.64C658.65 76.0533 658.803 76.5467 658.803 77.12C658.803 78.24 657.976 79.06 656.323 79.58V79.02C656.656 78.98 656.996 78.7933 657.343 78.46C657.703 78.14 657.883 77.7733 657.883 77.36C657.883 77.12 657.87 76.98 657.843 76.94C657.816 76.8867 657.763 76.86 657.683 76.86C657.643 76.86 657.563 76.9067 657.443 77C657.336 77.08 657.21 77.12 657.063 77.12ZM671.177 77V76.58C671.79 76.58 672.177 76.5 672.337 76.34L671.217 73.28H667.377L666.337 76.22C666.47 76.46 666.884 76.58 667.577 76.58V77H664.297V76.58C665.044 76.58 665.464 76.44 665.557 76.16L669.437 65.3H670.397L674.277 76.16C674.37 76.44 674.797 76.58 675.557 76.58V77H671.177ZM669.277 67.96L667.617 72.62H670.977L669.277 67.96ZM678.296 68.2V68.62C677.909 68.62 677.629 68.6467 677.456 68.7L679.836 74.56L682.116 68.84C681.929 68.6933 681.556 68.62 680.996 68.62V68.2H684.276V68.62C683.542 68.62 683.129 68.7467 683.036 69L679.836 77H678.856L675.676 69.02C675.556 68.7533 675.136 68.62 674.416 68.62V68.2H678.296ZM693.028 68V76.42C693.028 77.7933 692.695 78.9 692.028 79.74C691.375 80.58 690.415 81 689.148 81C688.015 81 687.102 80.8067 686.408 80.42C685.728 80.0333 685.388 79.6267 685.388 79.2C685.388 78.8933 685.468 78.6467 685.628 78.46C685.788 78.2867 685.995 78.2 686.248 78.2C686.488 78.2 686.695 78.26 686.868 78.38C687.055 78.5 687.148 78.6733 687.148 78.9C687.148 79.3267 686.982 79.6067 686.648 79.74C687.008 80.1 687.775 80.28 688.948 80.28C690.322 80.28 691.075 79.0533 691.208 76.6C690.595 77 689.808 77.2 688.848 77.2C688.408 77.2 687.968 77.1333 687.528 77C687.102 76.8533 686.668 76.62 686.228 76.3C685.802 75.98 685.448 75.5067 685.168 74.88C684.902 74.24 684.768 73.4933 684.768 72.64C684.768 71.1467 685.182 70 686.008 69.2C686.848 68.4 687.942 68 689.288 68C690.128 68 690.862 68.2133 691.488 68.64C692.168 68.2133 692.682 68 693.028 68ZM691.228 75.94V75.7V69.1C690.748 68.82 690.142 68.68 689.408 68.68C688.675 68.68 688.035 69.0333 687.488 69.74C686.942 70.4333 686.668 71.4 686.668 72.64C686.668 73.8133 686.888 74.7533 687.328 75.46C687.768 76.1667 688.342 76.52 689.048 76.52C689.928 76.52 690.655 76.3267 691.228 75.94ZM700.024 77V76.58C700.744 76.58 701.164 76.4467 701.284 76.18V66.12C701.164 65.8533 700.744 65.72 700.024 65.72V65.3H704.384V65.72C703.664 65.72 703.244 65.8533 703.124 66.12V70.58H708.244V66.12C708.124 65.8533 707.704 65.72 706.984 65.72V65.3H711.344V65.72C710.624 65.72 710.204 65.8533 710.084 66.12V76.18C710.204 76.4467 710.624 76.58 711.344 76.58V77H706.984V76.58C707.704 76.58 708.124 76.4467 708.244 76.18V71.26H703.124V76.18C703.244 76.4467 703.664 76.58 704.384 76.58V77H700.024ZM713.031 77V76.58C713.751 76.58 714.171 76.4467 714.291 76.18V66.12C714.171 65.8533 713.751 65.72 713.031 65.72V65.3H717.551C719.205 65.3 720.458 65.6 721.311 66.2C722.165 66.8 722.591 67.4867 722.591 68.26C722.591 68.9933 722.371 69.64 721.931 70.2C721.491 70.7467 720.838 71.1467 719.971 71.4L722.631 76.16C722.765 76.44 723.205 76.58 723.951 76.58V77H723.091C722.158 77 721.551 76.9467 721.271 76.84C720.991 76.7333 720.711 76.44 720.431 75.96L718.011 71.68H716.131V76.18C716.251 76.4467 716.671 76.58 717.391 76.58V77H713.031ZM716.131 65.98V71H717.791C718.858 71 719.591 70.7933 719.991 70.38C720.391 69.9667 720.591 69.2667 720.591 68.28C720.591 67.5467 720.365 66.98 719.911 66.58C719.471 66.18 718.685 65.98 717.551 65.98H716.131ZM725.413 70.24C725.173 69.9867 725.053 69.7 725.053 69.38C725.053 69.06 725.159 68.7733 725.373 68.52C725.599 68.2533 725.886 68.12 726.233 68.12C726.539 68.12 726.819 68.24 727.073 68.48C727.326 68.72 727.453 69 727.453 69.32C727.453 69.64 727.339 69.9333 727.113 70.2C726.886 70.4667 726.599 70.6 726.253 70.6C725.946 70.6 725.666 70.48 725.413 70.24ZM725.413 76.84C725.173 76.5867 725.053 76.3 725.053 75.98C725.053 75.66 725.159 75.3733 725.373 75.12C725.599 74.8533 725.886 74.72 726.233 74.72C726.539 74.72 726.819 74.84 727.073 75.08C727.326 75.32 727.453 75.6 727.453 75.92C727.453 76.24 727.339 76.5333 727.113 76.8C726.886 77.0667 726.599 77.2 726.253 77.2C725.946 77.2 725.666 77.08 725.413 76.84ZM739 70.52C740.12 69.9067 740.68 68.9667 740.68 67.7C740.68 67.0733 740.5 66.5933 740.14 66.26C739.78 65.9133 739.333 65.74 738.8 65.74C737.333 65.74 736.6 66.44 736.6 67.84C736.6 68.1333 736.727 68.4467 736.98 68.78C737.233 69.1 737.493 69.3733 737.76 69.6C738.04 69.8133 738.453 70.12 739 70.52ZM739.62 70.98C740.433 71.5933 741.067 72.18 741.52 72.74C741.973 73.2867 742.2 73.8867 742.2 74.54C742.2 75.3 741.847 75.9333 741.14 76.44C740.433 76.9467 739.52 77.2 738.4 77.2C737.2 77.2 736.267 76.9467 735.6 76.44C734.933 75.92 734.6 75.2333 734.6 74.38C734.6 73.0067 735.413 71.8733 737.04 70.98C735.573 69.8333 734.84 68.74 734.84 67.7C734.84 66.9667 735.16 66.3533 735.8 65.86C736.453 65.3533 737.327 65.1 738.42 65.1C739.607 65.1 740.5 65.3467 741.1 65.84C741.713 66.32 742.02 66.9933 742.02 67.86C742.02 69.1267 741.22 70.1667 739.62 70.98ZM737.66 71.46C736.513 72.14 735.94 73.1667 735.94 74.54C735.94 75.1 736.153 75.58 736.58 75.98C737.007 76.3667 737.487 76.56 738.02 76.56C738.78 76.56 739.373 76.3667 739.8 75.98C740.227 75.58 740.44 75.0533 740.44 74.4C740.44 74.2933 740.427 74.1867 740.4 74.08C740.373 73.96 740.32 73.8467 740.24 73.74C740.173 73.62 740.1 73.5133 740.02 73.42C739.953 73.3267 739.853 73.22 739.72 73.1C739.6 72.9667 739.493 72.86 739.4 72.78C739.307 72.6867 739.167 72.5733 738.98 72.44C738.807 72.3067 738.667 72.2067 738.56 72.14C738.467 72.06 738.313 71.9467 738.1 71.8C737.9 71.64 737.753 71.5267 737.66 71.46ZM749.745 65.3V75.78C749.745 76.06 750.011 76.2667 750.545 76.4C751.078 76.52 751.631 76.58 752.205 76.58V77H745.445V76.58C746.018 76.58 746.571 76.52 747.105 76.4C747.638 76.2667 747.905 76.06 747.905 75.78V68.12C747.345 68.4533 746.638 68.94 745.785 69.58L745.645 69.24L749.205 65.3H749.745ZM755.129 77.12C754.836 77.12 754.589 77.0333 754.389 76.86C754.203 76.6867 754.109 76.4467 754.109 76.14C754.109 75.78 754.236 75.5 754.489 75.3C754.743 75.1 754.996 75 755.249 75C755.729 75 756.116 75.2133 756.409 75.64C756.716 76.0533 756.869 76.5467 756.869 77.12C756.869 78.24 756.043 79.06 754.389 79.58V79.02C754.723 78.98 755.063 78.7933 755.409 78.46C755.769 78.14 755.949 77.7733 755.949 77.36C755.949 77.12 755.936 76.98 755.909 76.94C755.883 76.8867 755.829 76.86 755.749 76.86C755.709 76.86 755.629 76.9067 755.509 77C755.403 77.08 755.276 77.12 755.129 77.12ZM763.883 76.84C763.643 76.5867 763.523 76.3 763.523 75.98C763.523 75.66 763.63 75.3733 763.843 75.12C764.07 74.8533 764.357 74.72 764.703 74.72C765.01 74.72 765.29 74.84 765.543 75.08C765.797 75.32 765.923 75.6 765.923 75.92C765.923 76.24 765.81 76.5333 765.583 76.8C765.357 77.0667 765.07 77.2 764.723 77.2C764.417 77.2 764.137 77.08 763.883 76.84ZM768.278 76.84C768.038 76.5867 767.918 76.3 767.918 75.98C767.918 75.66 768.025 75.3733 768.238 75.12C768.465 74.8533 768.751 74.72 769.098 74.72C769.405 74.72 769.685 74.84 769.938 75.08C770.191 75.32 770.318 75.6 770.318 75.92C770.318 76.24 770.205 76.5333 769.978 76.8C769.751 77.0667 769.465 77.2 769.118 77.2C768.811 77.2 768.531 77.08 768.278 76.84ZM772.673 76.84C772.433 76.5867 772.313 76.3 772.313 75.98C772.313 75.66 772.419 75.3733 772.632 75.12C772.859 74.8533 773.146 74.72 773.493 74.72C773.799 74.72 774.079 74.84 774.333 75.08C774.586 75.32 774.713 75.6 774.713 75.92C774.713 76.24 774.599 76.5333 774.373 76.8C774.146 77.0667 773.859 77.2 773.513 77.2C773.206 77.2 772.926 77.08 772.673 76.84Z" fill="#E85A4F"/>
<path d="M436.84 42V41.58C437.56 41.58 437.98 41.4467 438.1 41.18V31.12C437.98 30.8533 437.56 30.72 436.84 30.72V30.3H441.2V30.72C440.48 30.72 440.06 30.8533 439.94 31.12V35.58H445.06V31.12C444.94 30.8533 444.52 30.72 443.8 30.72V30.3H448.16V30.72C447.44 30.72 447.02 30.8533 446.9 31.12V41.18C447.02 41.4467 447.44 41.58 448.16 41.58V42H443.8V41.58C444.52 41.58 444.94 41.4467 445.06 41.18V36.26H439.94V41.18C440.06 41.4467 440.48 41.58 441.2 41.58V42H436.84ZM451.376 37.04C451.376 38.56 451.662 39.7 452.236 40.46C452.822 41.22 453.569 41.6 454.476 41.6C455.196 41.6 455.776 41.28 456.216 40.64C456.656 39.9867 456.876 39.1533 456.876 38.14C456.876 35.1267 455.829 33.62 453.736 33.62C453.029 33.62 452.456 33.96 452.016 34.64C451.589 35.3067 451.376 36.1067 451.376 37.04ZM454.216 42.2C452.722 42.2 451.556 41.7667 450.716 40.9C449.876 40.02 449.456 38.8667 449.456 37.44C449.456 36.1467 449.836 35.0867 450.596 34.26C451.356 33.42 452.516 33 454.076 33C455.649 33 456.829 33.42 457.616 34.26C458.402 35.0867 458.796 36.2267 458.796 37.68C458.796 38.9733 458.416 40.0533 457.656 40.92C456.909 41.7733 455.762 42.2 454.216 42.2ZM463.714 41.6C464.088 41.6 464.494 41.48 464.934 41.24C465.388 41 465.614 40.64 465.614 40.16C465.614 39.3867 464.821 38.72 463.234 38.16C462.848 38.0267 462.528 37.9 462.274 37.78C462.034 37.66 461.768 37.4933 461.474 37.28C461.181 37.0667 460.961 36.8067 460.814 36.5C460.668 36.1933 460.594 35.8333 460.594 35.42C460.594 34.6733 460.868 34.0867 461.414 33.66C461.961 33.22 462.621 33 463.394 33C463.848 33 464.308 33.1 464.774 33.3C465.254 33.5 465.528 33.6 465.594 33.6C465.754 33.6 465.834 33.4667 465.834 33.2H466.294V35.6H465.854C465.774 35.04 465.501 34.5667 465.034 34.18C464.581 33.7933 464.054 33.6 463.454 33.6C463.028 33.6 462.668 33.7 462.374 33.9C462.094 34.1 461.954 34.3733 461.954 34.72C461.954 34.92 461.994 35.1067 462.074 35.28C462.154 35.44 462.234 35.5733 462.314 35.68C462.394 35.7733 462.541 35.88 462.754 36C462.981 36.12 463.148 36.2067 463.254 36.26C463.374 36.3 463.581 36.3733 463.874 36.48C464.181 36.5867 464.388 36.66 464.494 36.7C465.188 36.9667 465.781 37.3467 466.274 37.84C466.768 38.32 467.014 38.88 467.014 39.52C467.014 40.3333 466.688 40.9867 466.034 41.48C465.381 41.96 464.554 42.2 463.554 42.2C463.074 42.2 462.608 42.0867 462.154 41.86C461.701 41.6333 461.448 41.52 461.394 41.52C461.314 41.52 461.221 41.5733 461.114 41.68C461.008 41.7867 460.954 41.8933 460.954 42H460.474V39.18H460.914C461.008 39.86 461.321 40.4333 461.854 40.9C462.401 41.3667 463.021 41.6 463.714 41.6ZM468.12 45.84V45.42C468.84 45.42 469.26 45.2867 469.38 45.02V34.42C469.38 34.42 468.96 34.3867 468.12 34.32V33.86C468.373 33.86 468.866 33.72 469.6 33.44C470.346 33.1467 470.873 33 471.18 33V33.66C471.82 33.22 472.62 33 473.58 33C474.02 33 474.453 33.08 474.88 33.24C475.32 33.3867 475.753 33.6267 476.18 33.96C476.62 34.28 476.973 34.76 477.24 35.4C477.52 36.04 477.66 36.7867 477.66 37.64C477.66 39.12 477.246 40.2533 476.42 41.04C475.593 41.8133 474.5 42.2 473.14 42.2C472.366 42.2 471.713 42.0533 471.18 41.76V45.02C471.3 45.2867 471.72 45.42 472.44 45.42V45.84H468.12ZM471.18 41.12C471.686 41.3867 472.3 41.52 473.02 41.52C473.753 41.52 474.393 41.18 474.94 40.5C475.486 39.82 475.76 38.8667 475.76 37.64C475.76 36.8267 475.52 35.9667 475.04 35.06C474.573 34.14 474.02 33.68 473.38 33.68C472.46 33.68 471.726 33.8933 471.18 34.32V41.12ZM479.061 42V41.58C479.781 41.58 480.201 41.4467 480.321 41.18V34.42C479.495 34.3533 479.075 34.32 479.061 34.32V33.86C479.315 33.86 479.808 33.72 480.541 33.44C481.288 33.1467 481.815 33 482.121 33V41.18C482.241 41.4467 482.661 41.58 483.381 41.58V42H479.061ZM481.161 31.72C480.868 31.72 480.608 31.6133 480.381 31.4C480.168 31.1733 480.061 30.8867 480.061 30.54C480.061 30.2333 480.155 29.9667 480.341 29.74C480.541 29.5133 480.795 29.4 481.101 29.4C481.395 29.4 481.655 29.5133 481.881 29.74C482.108 29.9667 482.221 30.2533 482.221 30.6C482.221 30.9067 482.121 31.1733 481.921 31.4C481.721 31.6133 481.468 31.72 481.161 31.72ZM487.393 30.3V33.2H489.113V33.8H487.393V40.16C487.393 40.5733 487.466 40.8933 487.613 41.12C487.76 41.3333 488.033 41.44 488.433 41.44C488.673 41.44 488.913 41.3267 489.153 41.1C489.406 40.86 489.58 40.5333 489.673 40.12L490.153 40.36C489.873 41.5867 489.073 42.2 487.753 42.2C486.233 42.2 485.473 41.4667 485.473 40V33.8H484.073V33.2C484.7 33.2 485.266 32.94 485.773 32.42C486.28 31.9 486.533 31.1933 486.533 30.3H487.393ZM492.693 34.68C492.88 34.68 493.04 34.7467 493.173 34.88C493.32 35.0133 493.393 35.22 493.393 35.5C493.393 35.7267 493.3 35.9 493.113 36.02C492.94 36.14 492.733 36.2 492.493 36.2C492.24 36.2 492.033 36.1133 491.873 35.94C491.713 35.7533 491.633 35.5067 491.633 35.2C491.633 34.5067 491.92 33.9667 492.493 33.58C493.066 33.1933 493.88 33 494.933 33C496.173 33 497.08 33.3067 497.653 33.92C498.24 34.5333 498.533 35.3467 498.533 36.36V40.32C498.533 40.7467 498.6 41.06 498.733 41.26C498.88 41.46 499.053 41.56 499.253 41.56C499.426 41.56 499.58 41.5133 499.713 41.42C499.86 41.3267 499.933 41.2133 499.933 41.08H500.293C500.293 41.4533 500.153 41.7267 499.873 41.9C499.606 42.0733 499.133 42.16 498.453 42.16C497.786 42.16 497.313 41.8867 497.033 41.34C496.246 41.9133 495.266 42.2 494.093 42.2C492.093 42.2 491.093 41.3867 491.093 39.76C491.093 39.4133 491.213 39.1 491.453 38.82C491.706 38.54 492.066 38.3067 492.533 38.12C493 37.9333 493.44 37.7867 493.853 37.68C494.266 37.56 494.78 37.4333 495.393 37.3C496.02 37.1533 496.466 37.04 496.733 36.96C496.733 35.84 496.586 35.02 496.293 34.5C496 33.98 495.48 33.72 494.733 33.72C493.533 33.72 492.853 34.04 492.693 34.68ZM496.853 40.84C496.773 40.5467 496.733 40.1867 496.733 39.76V37.4C496.586 37.4533 496.333 37.5267 495.973 37.62C495.626 37.7133 495.34 37.7933 495.113 37.86C494.9 37.9267 494.64 38.0267 494.333 38.16C494.026 38.2933 493.786 38.4267 493.613 38.56C493.44 38.6933 493.286 38.8733 493.153 39.1C493.02 39.3133 492.953 39.5467 492.953 39.8C492.953 40.44 493.073 40.8867 493.313 41.14C493.566 41.3933 493.94 41.52 494.433 41.52C495.313 41.52 496.12 41.2933 496.853 40.84ZM500.541 42V41.58C501.261 41.58 501.681 41.4467 501.801 41.18V30.82C500.974 30.7533 500.554 30.72 500.541 30.72V30.26C500.794 30.26 501.288 30.12 502.021 29.84C502.768 29.5467 503.294 29.4 503.601 29.4V41.18C503.721 41.4467 504.141 41.58 504.861 41.58V42H500.541ZM514.582 30.3V30.72C513.955 30.72 513.569 30.8 513.422 30.96L515.602 34.78L517.982 31.04C517.849 30.8267 517.442 30.72 516.762 30.72V30.3H520.042V30.72C519.389 30.72 518.989 30.8333 518.842 31.06L516.002 35.48L519.262 41.16C519.409 41.44 519.835 41.58 520.542 41.58V42H516.162V41.58C516.789 41.58 517.175 41.5 517.322 41.34L514.942 37.16L512.302 41.26C512.435 41.4733 512.842 41.58 513.522 41.58V42H510.242V41.58C510.909 41.58 511.335 41.4333 511.522 41.14L514.522 36.46L511.482 31.12C511.335 30.8533 510.909 30.72 510.202 30.72V30.3H514.582ZM522.053 35.24C521.813 34.9867 521.693 34.7 521.693 34.38C521.693 34.06 521.8 33.7733 522.013 33.52C522.24 33.2533 522.526 33.12 522.873 33.12C523.18 33.12 523.46 33.24 523.713 33.48C523.966 33.72 524.093 34 524.093 34.32C524.093 34.64 523.98 34.9333 523.753 35.2C523.526 35.4667 523.24 35.6 522.893 35.6C522.586 35.6 522.306 35.48 522.053 35.24ZM522.053 41.84C521.813 41.5867 521.693 41.3 521.693 40.98C521.693 40.66 521.8 40.3733 522.013 40.12C522.24 39.8533 522.526 39.72 522.873 39.72C523.18 39.72 523.46 39.84 523.713 40.08C523.966 40.32 524.093 40.6 524.093 40.92C524.093 41.24 523.98 41.5333 523.753 41.8C523.526 42.0667 523.24 42.2 522.893 42.2C522.586 42.2 522.306 42.08 522.053 41.84ZM530.981 42V41.58C531.701 41.58 532.121 41.4467 532.241 41.18V31.12C532.121 30.8533 531.701 30.72 530.981 30.72V30.3H535.581C537.354 30.3 538.781 30.84 539.861 31.92C540.941 32.9867 541.481 34.3867 541.481 36.12C541.481 37.8533 540.954 39.2667 539.901 40.36C538.847 41.4533 537.487 42 535.821 42H530.981ZM534.081 30.88V41.32H535.821C536.247 41.32 536.661 41.2267 537.061 41.04C537.474 40.84 537.867 40.5467 538.241 40.16C538.614 39.7733 538.914 39.2333 539.141 38.54C539.367 37.8467 539.481 37.0467 539.481 36.14C539.481 34.4067 539.087 33.1 538.301 32.22C537.527 31.3267 536.621 30.88 535.581 30.88H534.081ZM545.067 37.04C545.067 38.56 545.354 39.7 545.927 40.46C546.514 41.22 547.261 41.6 548.167 41.6C548.887 41.6 549.467 41.28 549.907 40.64C550.347 39.9867 550.567 39.1533 550.567 38.14C550.567 35.1267 549.521 33.62 547.427 33.62C546.721 33.62 546.147 33.96 545.707 34.64C545.281 35.3067 545.067 36.1067 545.067 37.04ZM547.907 42.2C546.414 42.2 545.247 41.7667 544.407 40.9C543.567 40.02 543.147 38.8667 543.147 37.44C543.147 36.1467 543.527 35.0867 544.287 34.26C545.047 33.42 546.207 33 547.767 33C549.341 33 550.521 33.42 551.307 34.26C552.094 35.0867 552.487 36.2267 552.487 37.68C552.487 38.9733 552.107 40.0533 551.347 40.92C550.601 41.7733 549.454 42.2 547.907 42.2ZM553.886 42V41.58C554.606 41.58 555.026 41.4467 555.146 41.18V34.42C554.319 34.3533 553.899 34.32 553.886 34.32V33.86C554.139 33.86 554.632 33.72 555.366 33.44C556.112 33.1467 556.639 33 556.946 33V33.92C557.666 33.3067 558.459 33 559.326 33C560.566 33 561.459 33.2333 562.006 33.7C562.566 34.1533 562.846 34.8667 562.846 35.84V41.18C562.966 41.4467 563.386 41.58 564.106 41.58V42H559.786V41.58C560.506 41.58 560.926 41.4467 561.046 41.18V35.7C561.046 34.3533 560.432 33.68 559.206 33.68C558.366 33.68 557.612 33.9733 556.946 34.56V41.18C557.066 41.4467 557.486 41.58 558.206 41.58V42H553.886ZM567.039 37.18C567.053 38.3 567.373 39.2933 567.999 40.16C568.639 41.0133 569.353 41.44 570.139 41.44C571.299 41.44 572.233 41 572.939 40.12L573.419 40.36C573.033 41 572.526 41.4667 571.899 41.76C571.286 42.0533 570.473 42.2 569.459 42.2C568.953 42.2 568.466 42.1267 567.999 41.98C567.533 41.82 567.073 41.5667 566.619 41.22C566.166 40.86 565.806 40.3333 565.539 39.64C565.273 38.9467 565.139 38.12 565.139 37.16C565.139 35.9867 565.499 35 566.219 34.2C566.953 33.4 567.966 33 569.259 33C570.673 33 571.726 33.4 572.419 34.2C573.113 34.9867 573.459 35.98 573.459 37.18H567.039ZM567.059 36.56H571.499C571.419 35.6 571.213 34.8667 570.879 34.36C570.559 33.8533 569.993 33.6 569.179 33.6C568.713 33.6 568.259 33.8733 567.819 34.42C567.393 34.9667 567.139 35.68 567.059 36.56ZM581.727 37.04C581.727 38.56 582.014 39.7 582.587 40.46C583.174 41.22 583.921 41.6 584.827 41.6C585.547 41.6 586.127 41.28 586.567 40.64C587.007 39.9867 587.227 39.1533 587.227 38.14C587.227 35.1267 586.181 33.62 584.087 33.62C583.381 33.62 582.807 33.96 582.367 34.64C581.941 35.3067 581.727 36.1067 581.727 37.04ZM584.567 42.2C583.074 42.2 581.907 41.7667 581.067 40.9C580.227 40.02 579.807 38.8667 579.807 37.44C579.807 36.1467 580.187 35.0867 580.947 34.26C581.707 33.42 582.867 33 584.427 33C586.001 33 587.181 33.42 587.967 34.26C588.754 35.0867 589.147 36.2267 589.147 37.68C589.147 38.9733 588.767 40.0533 588.007 40.92C587.261 41.7733 586.114 42.2 584.567 42.2ZM590.546 42V41.58C591.266 41.58 591.686 41.4467 591.806 41.18V34.42C590.979 34.3533 590.559 34.32 590.546 34.32V33.86C590.799 33.86 591.292 33.72 592.026 33.44C592.772 33.1467 593.299 33 593.606 33V33.92C594.326 33.3067 595.119 33 595.986 33C597.226 33 598.119 33.2333 598.666 33.7C599.226 34.1533 599.506 34.8667 599.506 35.84V41.18C599.626 41.4467 600.046 41.58 600.766 41.58V42H596.446V41.58C597.166 41.58 597.586 41.4467 597.706 41.18V35.7C597.706 34.3533 597.092 33.68 595.866 33.68C595.026 33.68 594.272 33.9733 593.606 34.56V41.18C593.726 41.4467 594.146 41.58 594.866 41.58V42H590.546ZM608.142 34.68C608.329 34.68 608.489 34.7467 608.622 34.88C608.769 35.0133 608.842 35.22 608.842 35.5C608.842 35.7267 608.749 35.9 608.562 36.02C608.389 36.14 608.182 36.2 607.942 36.2C607.689 36.2 607.482 36.1133 607.322 35.94C607.162 35.7533 607.082 35.5067 607.082 35.2C607.082 34.5067 607.369 33.9667 607.942 33.58C608.516 33.1933 609.329 33 610.382 33C611.622 33 612.529 33.3067 613.102 33.92C613.689 34.5333 613.982 35.3467 613.982 36.36V40.32C613.982 40.7467 614.049 41.06 614.182 41.26C614.329 41.46 614.502 41.56 614.702 41.56C614.876 41.56 615.029 41.5133 615.162 41.42C615.309 41.3267 615.382 41.2133 615.382 41.08H615.742C615.742 41.4533 615.602 41.7267 615.322 41.9C615.056 42.0733 614.582 42.16 613.902 42.16C613.236 42.16 612.762 41.8867 612.482 41.34C611.696 41.9133 610.716 42.2 609.542 42.2C607.542 42.2 606.542 41.3867 606.542 39.76C606.542 39.4133 606.662 39.1 606.902 38.82C607.156 38.54 607.516 38.3067 607.982 38.12C608.449 37.9333 608.889 37.7867 609.302 37.68C609.716 37.56 610.229 37.4333 610.842 37.3C611.469 37.1533 611.916 37.04 612.182 36.96C612.182 35.84 612.036 35.02 611.742 34.5C611.449 33.98 610.929 33.72 610.182 33.72C608.982 33.72 608.302 34.04 608.142 34.68ZM612.302 40.84C612.222 40.5467 612.182 40.1867 612.182 39.76V37.4C612.036 37.4533 611.782 37.5267 611.422 37.62C611.076 37.7133 610.789 37.7933 610.562 37.86C610.349 37.9267 610.089 38.0267 609.782 38.16C609.476 38.2933 609.236 38.4267 609.062 38.56C608.889 38.6933 608.736 38.8733 608.602 39.1C608.469 39.3133 608.402 39.5467 608.402 39.8C608.402 40.44 608.522 40.8867 608.762 41.14C609.016 41.3933 609.389 41.52 609.882 41.52C610.762 41.52 611.569 41.2933 612.302 40.84ZM615.99 42V41.58C616.71 41.58 617.13 41.4467 617.25 41.18V30.82C616.424 30.7533 616.004 30.72 615.99 30.72V30.26C616.244 30.26 616.737 30.12 617.47 29.84C618.217 29.5467 618.744 29.4 619.05 29.4V41.18C619.17 41.4467 619.59 41.58 620.31 41.58V42H615.99ZM621.147 42V41.58C621.867 41.58 622.287 41.4467 622.407 41.18V30.82C621.58 30.7533 621.16 30.72 621.147 30.72V30.26C621.4 30.26 621.893 30.12 622.627 29.84C623.373 29.5467 623.9 29.4 624.207 29.4V41.18C624.327 41.4467 624.747 41.58 625.467 41.58V42H621.147ZM631.528 42V41.58C632.248 41.58 632.668 41.4467 632.788 41.18V31.12C632.668 30.8533 632.248 30.72 631.528 30.72V30.3H634.208L640.828 38.48V31.12C640.708 30.8533 640.288 30.72 639.568 30.72V30.3H642.768V30.72C642.048 30.72 641.628 30.8533 641.508 31.12V42H641.328L633.468 32.06V41.18C633.588 41.4467 634.008 41.58 634.728 41.58V42H631.528ZM645.79 37.04C645.79 38.56 646.077 39.7 646.65 40.46C647.237 41.22 647.983 41.6 648.89 41.6C649.61 41.6 650.19 41.28 650.63 40.64C651.07 39.9867 651.29 39.1533 651.29 38.14C651.29 35.1267 650.243 33.62 648.15 33.62C647.443 33.62 646.87 33.96 646.43 34.64C646.003 35.3067 645.79 36.1067 645.79 37.04ZM648.63 42.2C647.137 42.2 645.97 41.7667 645.13 40.9C644.29 40.02 643.87 38.8667 643.87 37.44C643.87 36.1467 644.25 35.0867 645.01 34.26C645.77 33.42 646.93 33 648.49 33C650.063 33 651.243 33.42 652.03 34.26C652.817 35.0867 653.21 36.2267 653.21 37.68C653.21 38.9733 652.83 40.0533 652.07 40.92C651.323 41.7733 650.177 42.2 648.63 42.2ZM661.248 33.4V30.82C661.248 30.82 660.828 30.7867 659.988 30.72V30.26C660.242 30.26 660.735 30.12 661.468 29.84C662.215 29.5467 662.742 29.4 663.048 29.4V40.78L664.308 40.88V41.34C664.055 41.34 663.555 41.4867 662.808 41.78C662.075 42.06 661.555 42.2 661.248 42.2V41.54C660.608 41.98 659.808 42.2 658.848 42.2C658.408 42.2 657.968 42.1267 657.528 41.98C657.102 41.82 656.668 41.58 656.228 41.26C655.802 40.9267 655.448 40.44 655.168 39.8C654.902 39.16 654.768 38.4133 654.768 37.56C654.768 36.0667 655.182 34.92 656.008 34.12C656.848 33.32 657.942 32.92 659.288 32.92C660.048 32.92 660.702 33.08 661.248 33.4ZM661.248 34.02C660.768 33.74 660.155 33.6 659.408 33.6C658.675 33.6 658.035 33.9533 657.488 34.66C656.942 35.3667 656.668 36.3333 656.668 37.56C656.668 38.3733 656.902 39.24 657.368 40.16C657.848 41.0667 658.408 41.52 659.048 41.52C659.928 41.52 660.662 41.3067 661.248 40.88V34.02ZM667.41 37.18C667.424 38.3 667.744 39.2933 668.37 40.16C669.01 41.0133 669.724 41.44 670.51 41.44C671.67 41.44 672.604 41 673.31 40.12L673.79 40.36C673.404 41 672.897 41.4667 672.27 41.76C671.657 42.0533 670.844 42.2 669.83 42.2C669.324 42.2 668.837 42.1267 668.37 41.98C667.904 41.82 667.444 41.5667 666.99 41.22C666.537 40.86 666.177 40.3333 665.91 39.64C665.644 38.9467 665.51 38.12 665.51 37.16C665.51 35.9867 665.87 35 666.59 34.2C667.324 33.4 668.337 33 669.63 33C671.044 33 672.097 33.4 672.79 34.2C673.484 34.9867 673.83 35.98 673.83 37.18H667.41ZM667.43 36.56H671.87C671.79 35.6 671.584 34.8667 671.25 34.36C670.93 33.8533 670.364 33.6 669.55 33.6C669.084 33.6 668.63 33.8733 668.19 34.42C667.764 34.9667 667.51 35.68 667.43 36.56ZM678.734 41.6C679.107 41.6 679.514 41.48 679.954 41.24C680.407 41 680.634 40.64 680.634 40.16C680.634 39.3867 679.84 38.72 678.254 38.16C677.867 38.0267 677.547 37.9 677.294 37.78C677.054 37.66 676.787 37.4933 676.494 37.28C676.2 37.0667 675.98 36.8067 675.834 36.5C675.687 36.1933 675.614 35.8333 675.614 35.42C675.614 34.6733 675.887 34.0867 676.434 33.66C676.98 33.22 677.64 33 678.414 33C678.867 33 679.327 33.1 679.794 33.3C680.274 33.5 680.547 33.6 680.614 33.6C680.774 33.6 680.854 33.4667 680.854 33.2H681.314V35.6H680.874C680.794 35.04 680.52 34.5667 680.054 34.18C679.6 33.7933 679.074 33.6 678.474 33.6C678.047 33.6 677.687 33.7 677.394 33.9C677.114 34.1 676.974 34.3733 676.974 34.72C676.974 34.92 677.014 35.1067 677.094 35.28C677.174 35.44 677.254 35.5733 677.334 35.68C677.414 35.7733 677.56 35.88 677.774 36C678 36.12 678.167 36.2067 678.274 36.26C678.394 36.3 678.6 36.3733 678.894 36.48C679.2 36.5867 679.407 36.66 679.514 36.7C680.207 36.9667 680.8 37.3467 681.294 37.84C681.787 38.32 682.034 38.88 682.034 39.52C682.034 40.3333 681.707 40.9867 681.054 41.48C680.4 41.96 679.574 42.2 678.574 42.2C678.094 42.2 677.627 42.0867 677.174 41.86C676.72 41.6333 676.467 41.52 676.414 41.52C676.334 41.52 676.24 41.5733 676.134 41.68C676.027 41.7867 675.974 41.8933 675.974 42H675.494V39.18H675.934C676.027 39.86 676.34 40.4333 676.874 40.9C677.42 41.3667 678.04 41.6 678.734 41.6Z" fill="#E85A4F"/>
<path d="M436.84 168V167.58C437.56 167.58 437.98 167.447 438.1 167.18V157.12C437.98 156.853 437.56 156.72 436.84 156.72V156.3H439.52L446.14 164.48V157.12C446.02 156.853 445.6 156.72 444.88 156.72V156.3H448.08V156.72C447.36 156.72 446.94 156.853 446.82 157.12V168H446.64L438.78 158.06V167.18C438.9 167.447 439.32 167.58 440.04 167.58V168H436.84ZM450.701 160.68C450.888 160.68 451.048 160.747 451.181 160.88C451.328 161.013 451.401 161.22 451.401 161.5C451.401 161.727 451.308 161.9 451.121 162.02C450.948 162.14 450.741 162.2 450.501 162.2C450.248 162.2 450.041 162.113 449.881 161.94C449.721 161.753 449.641 161.507 449.641 161.2C449.641 160.507 449.928 159.967 450.501 159.58C451.074 159.193 451.888 159 452.941 159C454.181 159 455.088 159.307 455.661 159.92C456.248 160.533 456.541 161.347 456.541 162.36V166.32C456.541 166.747 456.608 167.06 456.741 167.26C456.888 167.46 457.061 167.56 457.261 167.56C457.434 167.56 457.588 167.513 457.721 167.42C457.868 167.327 457.941 167.213 457.941 167.08H458.301C458.301 167.453 458.161 167.727 457.881 167.9C457.614 168.073 457.141 168.16 456.461 168.16C455.794 168.16 455.321 167.887 455.041 167.34C454.254 167.913 453.274 168.2 452.101 168.2C450.101 168.2 449.101 167.387 449.101 165.76C449.101 165.413 449.221 165.1 449.461 164.82C449.714 164.54 450.074 164.307 450.541 164.12C451.008 163.933 451.448 163.787 451.861 163.68C452.274 163.56 452.788 163.433 453.401 163.3C454.028 163.153 454.474 163.04 454.741 162.96C454.741 161.84 454.594 161.02 454.301 160.5C454.008 159.98 453.488 159.72 452.741 159.72C451.541 159.72 450.861 160.04 450.701 160.68ZM454.861 166.84C454.781 166.547 454.741 166.187 454.741 165.76V163.4C454.594 163.453 454.341 163.527 453.981 163.62C453.634 163.713 453.348 163.793 453.121 163.86C452.908 163.927 452.648 164.027 452.341 164.16C452.034 164.293 451.794 164.427 451.621 164.56C451.448 164.693 451.294 164.873 451.161 165.1C451.028 165.313 450.961 165.547 450.961 165.8C450.961 166.44 451.081 166.887 451.321 167.14C451.574 167.393 451.948 167.52 452.441 167.52C453.321 167.52 454.128 167.293 454.861 166.84ZM458.749 168V167.58C459.469 167.58 459.889 167.447 460.009 167.18V160.42C459.182 160.353 458.762 160.32 458.749 160.32V159.86C459.002 159.86 459.496 159.72 460.229 159.44C460.976 159.147 461.502 159 461.809 159V159.9C462.516 159.3 463.256 159 464.029 159C465.629 159 466.656 159.387 467.109 160.16C467.856 159.387 468.689 159 469.609 159C471.849 159 472.969 159.76 472.969 161.28V167.18C473.089 167.447 473.509 167.58 474.229 167.58V168H469.909V167.58C470.629 167.58 471.049 167.447 471.169 167.18V162.02C471.169 161.153 471.042 160.547 470.789 160.2C470.536 159.853 470.102 159.68 469.489 159.68C468.702 159.68 467.976 160 467.309 160.64C467.362 160.813 467.389 161.027 467.389 161.28V167.18C467.509 167.447 467.929 167.58 468.649 167.58V168H464.329V167.58C465.049 167.58 465.469 167.447 465.589 167.18V162.02C465.589 161.153 465.462 160.547 465.209 160.2C464.956 159.853 464.522 159.68 463.909 159.68C463.149 159.68 462.449 159.973 461.809 160.56V167.18C461.929 167.447 462.349 167.58 463.069 167.58V168H458.749ZM477.196 163.18C477.209 164.3 477.529 165.293 478.156 166.16C478.796 167.013 479.509 167.44 480.296 167.44C481.456 167.44 482.389 167 483.096 166.12L483.576 166.36C483.189 167 482.682 167.467 482.056 167.76C481.442 168.053 480.629 168.2 479.616 168.2C479.109 168.2 478.622 168.127 478.156 167.98C477.689 167.82 477.229 167.567 476.776 167.22C476.322 166.86 475.962 166.333 475.696 165.64C475.429 164.947 475.296 164.12 475.296 163.16C475.296 161.987 475.656 161 476.376 160.2C477.109 159.4 478.122 159 479.416 159C480.829 159 481.882 159.4 482.576 160.2C483.269 160.987 483.616 161.98 483.616 163.18H477.196ZM477.216 162.56H481.656C481.576 161.6 481.369 160.867 481.036 160.36C480.716 159.853 480.149 159.6 479.336 159.6C478.869 159.6 478.416 159.873 477.976 160.42C477.549 160.967 477.296 161.68 477.216 162.56ZM485.979 161.24C485.739 160.987 485.619 160.7 485.619 160.38C485.619 160.06 485.726 159.773 485.939 159.52C486.166 159.253 486.452 159.12 486.799 159.12C487.106 159.12 487.386 159.24 487.639 159.48C487.892 159.72 488.019 160 488.019 160.32C488.019 160.64 487.906 160.933 487.679 161.2C487.452 161.467 487.166 161.6 486.819 161.6C486.512 161.6 486.232 161.48 485.979 161.24ZM485.979 167.84C485.739 167.587 485.619 167.3 485.619 166.98C485.619 166.66 485.726 166.373 485.939 166.12C486.166 165.853 486.452 165.72 486.799 165.72C487.106 165.72 487.386 165.84 487.639 166.08C487.892 166.32 488.019 166.6 488.019 166.92C488.019 167.24 487.906 167.533 487.679 167.8C487.452 168.067 487.166 168.2 486.819 168.2C486.512 168.2 486.232 168.08 485.979 167.84ZM499.046 168.2C498.393 168.2 497.726 168.1 497.046 167.9C496.366 167.7 496.013 167.6 495.986 167.6C495.906 167.6 495.813 167.64 495.706 167.72C495.6 167.8 495.546 167.893 495.546 168H495.086V165.22H495.526C495.673 166.02 496.066 166.607 496.706 166.98C497.36 167.34 498.1 167.52 498.926 167.52C499.633 167.52 500.213 167.36 500.666 167.04C501.12 166.72 501.346 166.24 501.346 165.6C501.346 165.307 501.28 165.04 501.146 164.8C501.026 164.56 500.833 164.34 500.566 164.14C500.313 163.927 500.066 163.753 499.826 163.62C499.586 163.473 499.273 163.3 498.886 163.1C498.513 162.887 498.226 162.72 498.026 162.6C497.56 162.307 497.213 162.087 496.986 161.94C496.76 161.78 496.466 161.547 496.106 161.24C495.76 160.933 495.506 160.613 495.346 160.28C495.186 159.947 495.106 159.587 495.106 159.2C495.106 158.413 495.466 157.7 496.186 157.06C496.906 156.42 497.713 156.1 498.606 156.1C498.993 156.1 499.473 156.2 500.046 156.4C500.62 156.6 500.946 156.7 501.026 156.7C501.186 156.7 501.266 156.567 501.266 156.3H501.726L501.926 158.84H501.486C501.406 158.253 501.113 157.767 500.606 157.38C500.1 156.98 499.44 156.78 498.626 156.78C498.013 156.78 497.52 156.98 497.146 157.38C496.786 157.767 496.606 158.16 496.606 158.56C496.606 158.813 496.666 159.053 496.786 159.28C496.906 159.493 497.093 159.693 497.346 159.88C497.6 160.067 497.84 160.233 498.066 160.38C498.293 160.513 498.593 160.68 498.966 160.88C499.353 161.08 499.646 161.24 499.846 161.36C500.393 161.693 500.786 161.94 501.026 162.1C501.266 162.26 501.573 162.507 501.946 162.84C502.333 163.173 502.6 163.52 502.746 163.88C502.906 164.227 502.986 164.613 502.986 165.04C502.986 166.027 502.586 166.8 501.786 167.36C500.986 167.92 500.073 168.2 499.046 168.2ZM505.857 160.68C506.044 160.68 506.204 160.747 506.337 160.88C506.484 161.013 506.557 161.22 506.557 161.5C506.557 161.727 506.464 161.9 506.277 162.02C506.104 162.14 505.897 162.2 505.657 162.2C505.404 162.2 505.197 162.113 505.037 161.94C504.877 161.753 504.797 161.507 504.797 161.2C504.797 160.507 505.084 159.967 505.657 159.58C506.231 159.193 507.044 159 508.097 159C509.337 159 510.244 159.307 510.817 159.92C511.404 160.533 511.697 161.347 511.697 162.36V166.32C511.697 166.747 511.764 167.06 511.897 167.26C512.044 167.46 512.217 167.56 512.417 167.56C512.591 167.56 512.744 167.513 512.877 167.42C513.024 167.327 513.097 167.213 513.097 167.08H513.457C513.457 167.453 513.317 167.727 513.037 167.9C512.771 168.073 512.297 168.16 511.617 168.16C510.951 168.16 510.477 167.887 510.197 167.34C509.411 167.913 508.431 168.2 507.257 168.2C505.257 168.2 504.257 167.387 504.257 165.76C504.257 165.413 504.377 165.1 504.617 164.82C504.871 164.54 505.231 164.307 505.697 164.12C506.164 163.933 506.604 163.787 507.017 163.68C507.431 163.56 507.944 163.433 508.557 163.3C509.184 163.153 509.631 163.04 509.897 162.96C509.897 161.84 509.751 161.02 509.457 160.5C509.164 159.98 508.644 159.72 507.897 159.72C506.697 159.72 506.017 160.04 505.857 160.68ZM510.017 166.84C509.937 166.547 509.897 166.187 509.897 165.76V163.4C509.751 163.453 509.497 163.527 509.137 163.62C508.791 163.713 508.504 163.793 508.277 163.86C508.064 163.927 507.804 164.027 507.497 164.16C507.191 164.293 506.951 164.427 506.777 164.56C506.604 164.693 506.451 164.873 506.317 165.1C506.184 165.313 506.117 165.547 506.117 165.8C506.117 166.44 506.237 166.887 506.477 167.14C506.731 167.393 507.104 167.52 507.597 167.52C508.477 167.52 509.284 167.293 510.017 166.84ZM513.905 168V167.58C514.625 167.58 515.045 167.447 515.165 167.18V160.42C514.338 160.353 513.918 160.32 513.905 160.32V159.86C514.158 159.86 514.652 159.72 515.385 159.44C516.132 159.147 516.658 159 516.965 159V159.9C517.672 159.3 518.412 159 519.185 159C520.785 159 521.812 159.387 522.265 160.16C523.012 159.387 523.845 159 524.765 159C527.005 159 528.125 159.76 528.125 161.28V167.18C528.245 167.447 528.665 167.58 529.385 167.58V168H525.065V167.58C525.785 167.58 526.205 167.447 526.325 167.18V162.02C526.325 161.153 526.198 160.547 525.945 160.2C525.692 159.853 525.258 159.68 524.645 159.68C523.858 159.68 523.132 160 522.465 160.64C522.518 160.813 522.545 161.027 522.545 161.28V167.18C522.665 167.447 523.085 167.58 523.805 167.58V168H519.485V167.58C520.205 167.58 520.625 167.447 520.745 167.18V162.02C520.745 161.153 520.618 160.547 520.365 160.2C520.112 159.853 519.678 159.68 519.065 159.68C518.305 159.68 517.605 159.973 516.965 160.56V167.18C517.085 167.447 517.505 167.58 518.225 167.58V168H513.905ZM539.535 168.2C538.881 168.2 538.215 168.1 537.535 167.9C536.855 167.7 536.501 167.6 536.475 167.6C536.395 167.6 536.301 167.64 536.195 167.72C536.088 167.8 536.035 167.893 536.035 168H535.575V165.22H536.015C536.161 166.02 536.555 166.607 537.195 166.98C537.848 167.34 538.588 167.52 539.415 167.52C540.121 167.52 540.701 167.36 541.155 167.04C541.608 166.72 541.835 166.24 541.835 165.6C541.835 165.307 541.768 165.04 541.635 164.8C541.515 164.56 541.321 164.34 541.055 164.14C540.801 163.927 540.555 163.753 540.315 163.62C540.075 163.473 539.761 163.3 539.375 163.1C539.001 162.887 538.715 162.72 538.515 162.6C538.048 162.307 537.701 162.087 537.475 161.94C537.248 161.78 536.955 161.547 536.595 161.24C536.248 160.933 535.995 160.613 535.835 160.28C535.675 159.947 535.595 159.587 535.595 159.2C535.595 158.413 535.955 157.7 536.675 157.06C537.395 156.42 538.201 156.1 539.095 156.1C539.481 156.1 539.961 156.2 540.535 156.4C541.108 156.6 541.435 156.7 541.515 156.7C541.675 156.7 541.755 156.567 541.755 156.3H542.215L542.415 158.84H541.975C541.895 158.253 541.601 157.767 541.095 157.38C540.588 156.98 539.928 156.78 539.115 156.78C538.501 156.78 538.008 156.98 537.635 157.38C537.275 157.767 537.095 158.16 537.095 158.56C537.095 158.813 537.155 159.053 537.275 159.28C537.395 159.493 537.581 159.693 537.835 159.88C538.088 160.067 538.328 160.233 538.555 160.38C538.781 160.513 539.081 160.68 539.455 160.88C539.841 161.08 540.135 161.24 540.335 161.36C540.881 161.693 541.275 161.94 541.515 162.1C541.755 162.26 542.061 162.507 542.435 162.84C542.821 163.173 543.088 163.52 543.235 163.88C543.395 164.227 543.475 164.613 543.475 165.04C543.475 166.027 543.075 166.8 542.275 167.36C541.475 167.92 540.561 168.2 539.535 168.2ZM544.569 168V167.58C545.289 167.58 545.709 167.447 545.829 167.18V160.42C545.003 160.353 544.583 160.32 544.569 160.32V159.86C544.823 159.86 545.316 159.72 546.049 159.44C546.796 159.147 547.323 159 547.629 159V159.9C548.336 159.3 549.076 159 549.849 159C551.449 159 552.476 159.387 552.929 160.16C553.676 159.387 554.509 159 555.429 159C557.669 159 558.789 159.76 558.789 161.28V167.18C558.909 167.447 559.329 167.58 560.049 167.58V168H555.729V167.58C556.449 167.58 556.869 167.447 556.989 167.18V162.02C556.989 161.153 556.863 160.547 556.609 160.2C556.356 159.853 555.923 159.68 555.309 159.68C554.523 159.68 553.796 160 553.129 160.64C553.183 160.813 553.209 161.027 553.209 161.28V167.18C553.329 167.447 553.749 167.58 554.469 167.58V168H550.149V167.58C550.869 167.58 551.289 167.447 551.409 167.18V162.02C551.409 161.153 551.283 160.547 551.029 160.2C550.776 159.853 550.343 159.68 549.729 159.68C548.969 159.68 548.269 159.973 547.629 160.56V167.18C547.749 167.447 548.169 167.58 548.889 167.58V168H544.569ZM561.034 168V167.58C561.754 167.58 562.174 167.447 562.294 167.18V160.42C561.467 160.353 561.047 160.32 561.034 160.32V159.86C561.287 159.86 561.781 159.72 562.514 159.44C563.261 159.147 563.787 159 564.094 159V167.18C564.214 167.447 564.634 167.58 565.354 167.58V168H561.034ZM563.134 157.72C562.841 157.72 562.581 157.613 562.354 157.4C562.141 157.173 562.034 156.887 562.034 156.54C562.034 156.233 562.127 155.967 562.314 155.74C562.514 155.513 562.767 155.4 563.074 155.4C563.367 155.4 563.627 155.513 563.854 155.74C564.081 155.967 564.194 156.253 564.194 156.6C564.194 156.907 564.094 157.173 563.894 157.4C563.694 157.613 563.441 157.72 563.134 157.72ZM569.366 156.3V159.2H571.086V159.8H569.366V166.16C569.366 166.573 569.439 166.893 569.586 167.12C569.732 167.333 570.006 167.44 570.406 167.44C570.646 167.44 570.886 167.327 571.126 167.1C571.379 166.86 571.552 166.533 571.646 166.12L572.126 166.36C571.846 167.587 571.046 168.2 569.726 168.2C568.206 168.2 567.446 167.467 567.446 166V159.8H566.046V159.2C566.672 159.2 567.239 158.94 567.746 158.42C568.252 157.9 568.506 157.193 568.506 156.3H569.366ZM572.846 168V167.58C573.566 167.58 573.986 167.447 574.106 167.18V156.82C573.279 156.753 572.859 156.72 572.846 156.72V156.26C573.099 156.26 573.592 156.12 574.326 155.84C575.072 155.547 575.599 155.4 575.906 155.4V159.92C576.626 159.307 577.419 159 578.286 159C579.552 159 580.452 159.207 580.986 159.62C581.532 160.033 581.806 160.747 581.806 161.76V167.18C581.926 167.447 582.346 167.58 583.066 167.58V168H578.746V167.58C579.466 167.58 579.886 167.447 580.006 167.18V161.62C580.006 160.327 579.392 159.68 578.166 159.68C577.326 159.68 576.572 159.973 575.906 160.56V167.18C576.026 167.447 576.446 167.58 577.166 167.58V168H572.846ZM585.442 168.12C585.149 168.12 584.902 168.033 584.702 167.86C584.515 167.687 584.422 167.447 584.422 167.14C584.422 166.78 584.549 166.5 584.802 166.3C585.055 166.1 585.309 166 585.562 166C586.042 166 586.429 166.213 586.722 166.64C587.029 167.053 587.182 167.547 587.182 168.12C587.182 169.24 586.355 170.06 584.702 170.58V170.02C585.035 169.98 585.375 169.793 585.722 169.46C586.082 169.14 586.262 168.773 586.262 168.36C586.262 168.12 586.249 167.98 586.222 167.94C586.195 167.887 586.142 167.86 586.062 167.86C586.022 167.86 585.942 167.907 585.822 168C585.715 168.08 585.589 168.12 585.442 168.12ZM599.596 167.52C600.489 167.52 601.236 167.147 601.836 166.4C602.449 165.653 602.756 164.667 602.756 163.44V157.12C602.636 156.853 602.216 156.72 601.496 156.72V156.3H604.696V156.72C603.976 156.72 603.556 156.853 603.436 157.12V163.04C603.436 164.773 603.049 166.067 602.276 166.92C601.516 167.773 600.556 168.2 599.396 168.2C596.196 168.2 594.596 166.48 594.596 163.04V157.12C594.476 156.853 594.056 156.72 593.336 156.72V156.3H597.696V156.72C596.976 156.72 596.556 156.853 596.436 157.12V163.32C596.436 164.64 596.729 165.673 597.316 166.42C597.903 167.153 598.663 167.52 599.596 167.52ZM605.507 168V167.58C606.227 167.58 606.647 167.447 606.767 167.18V160.42C605.94 160.353 605.52 160.32 605.507 160.32V159.86C605.76 159.86 606.253 159.72 606.987 159.44C607.733 159.147 608.26 159 608.567 159V159.88C609.233 159.293 609.893 159 610.547 159C611.147 159 611.647 159.113 612.047 159.34C612.46 159.567 612.667 159.82 612.667 160.1C612.667 160.58 612.4 160.82 611.867 160.82C611.587 160.82 611.333 160.633 611.107 160.26C610.88 159.873 610.62 159.68 610.327 159.68C609.807 159.68 609.22 159.967 608.567 160.54V167.18C608.687 167.447 609.107 167.58 609.827 167.58V168H605.507ZM621.72 159V167.42C621.72 168.793 621.386 169.9 620.72 170.74C620.066 171.58 619.106 172 617.84 172C616.706 172 615.793 171.807 615.1 171.42C614.42 171.033 614.08 170.627 614.08 170.2C614.08 169.893 614.16 169.647 614.32 169.46C614.48 169.287 614.686 169.2 614.94 169.2C615.18 169.2 615.386 169.26 615.56 169.38C615.746 169.5 615.84 169.673 615.84 169.9C615.84 170.327 615.673 170.607 615.34 170.74C615.7 171.1 616.466 171.28 617.64 171.28C619.013 171.28 619.766 170.053 619.9 167.6C619.286 168 618.5 168.2 617.54 168.2C617.1 168.2 616.66 168.133 616.22 168C615.793 167.853 615.36 167.62 614.92 167.3C614.493 166.98 614.14 166.507 613.86 165.88C613.593 165.24 613.46 164.493 613.46 163.64C613.46 162.147 613.873 161 614.7 160.2C615.54 159.4 616.633 159 617.98 159C618.82 159 619.553 159.213 620.18 159.64C620.86 159.213 621.373 159 621.72 159ZM619.92 166.94V166.7V160.1C619.44 159.82 618.833 159.68 618.1 159.68C617.366 159.68 616.726 160.033 616.18 160.74C615.633 161.433 615.36 162.4 615.36 163.64C615.36 164.813 615.58 165.753 616.02 166.46C616.46 167.167 617.033 167.52 617.74 167.52C618.62 167.52 619.346 167.327 619.92 166.94ZM625.75 163.18C625.764 164.3 626.084 165.293 626.71 166.16C627.35 167.013 628.064 167.44 628.85 167.44C630.01 167.44 630.944 167 631.65 166.12L632.13 166.36C631.744 167 631.237 167.467 630.61 167.76C629.997 168.053 629.184 168.2 628.17 168.2C627.664 168.2 627.177 168.127 626.71 167.98C626.244 167.82 625.784 167.567 625.33 167.22C624.877 166.86 624.517 166.333 624.25 165.64C623.984 164.947 623.85 164.12 623.85 163.16C623.85 161.987 624.21 161 624.93 160.2C625.664 159.4 626.677 159 627.97 159C629.384 159 630.437 159.4 631.13 160.2C631.824 160.987 632.17 161.98 632.17 163.18H625.75ZM625.77 162.56H630.21C630.13 161.6 629.924 160.867 629.59 160.36C629.27 159.853 628.704 159.6 627.89 159.6C627.424 159.6 626.97 159.873 626.53 160.42C626.104 160.967 625.85 161.68 625.77 162.56ZM633.554 168V167.58C634.274 167.58 634.694 167.447 634.814 167.18V160.42C633.987 160.353 633.567 160.32 633.554 160.32V159.86C633.807 159.86 634.3 159.72 635.034 159.44C635.78 159.147 636.307 159 636.614 159V159.92C637.334 159.307 638.127 159 638.994 159C640.234 159 641.127 159.233 641.674 159.7C642.234 160.153 642.514 160.867 642.514 161.84V167.18C642.634 167.447 643.054 167.58 643.774 167.58V168H639.454V167.58C640.174 167.58 640.594 167.447 640.714 167.18V161.7C640.714 160.353 640.1 159.68 638.874 159.68C638.034 159.68 637.28 159.973 636.614 160.56V167.18C636.734 167.447 637.154 167.58 637.874 167.58V168H633.554ZM649.467 159.6C648.641 159.6 647.974 159.913 647.467 160.54C646.961 161.167 646.707 162.013 646.707 163.08C646.707 164.213 647.021 165.227 647.647 166.12C648.287 167 649.007 167.44 649.807 167.44C650.967 167.44 651.901 167 652.607 166.12L653.087 166.36C652.701 167 652.194 167.467 651.567 167.76C650.954 168.053 650.141 168.2 649.127 168.2C648.621 168.2 648.134 168.127 647.667 167.98C647.201 167.82 646.741 167.567 646.287 167.22C645.834 166.86 645.474 166.333 645.207 165.64C644.941 164.947 644.807 164.12 644.807 163.16C644.807 162 645.214 161.02 646.027 160.22C646.854 159.407 647.934 159 649.267 159C650.321 159 651.134 159.18 651.707 159.54C652.281 159.9 652.567 160.427 652.567 161.12C652.567 161.427 652.487 161.673 652.327 161.86C652.167 162.033 651.961 162.12 651.707 162.12C651.467 162.12 651.254 162.06 651.067 161.94C650.894 161.82 650.807 161.647 650.807 161.42C650.807 161.14 650.874 160.933 651.007 160.8C651.154 160.667 651.321 160.6 651.507 160.6C651.334 159.933 650.654 159.6 649.467 159.6ZM657.378 159.2V159.62C656.991 159.62 656.711 159.647 656.538 159.7L658.918 165.56L661.198 159.84C661.011 159.693 660.638 159.62 660.078 159.62V159.2H663.358V159.62C662.638 159.62 662.224 159.74 662.118 159.98L658.098 170.04C657.844 170.667 657.518 171.12 657.118 171.4C656.731 171.693 656.358 171.84 655.998 171.84C655.664 171.84 655.398 171.753 655.198 171.58C655.011 171.407 654.918 171.2 654.918 170.96C654.918 170.76 654.984 170.58 655.118 170.42C655.264 170.26 655.458 170.18 655.698 170.18C655.844 170.18 655.998 170.233 656.158 170.34C656.318 170.46 656.438 170.52 656.518 170.52C656.798 170.52 656.984 170.4 657.078 170.16L657.938 168L654.758 160.02C654.638 159.753 654.218 159.62 653.498 159.62V159.2H657.378ZM672.25 156.3V156.72C671.637 156.72 671.25 156.8 671.09 156.96L674.15 165.34L677.09 157.08C676.957 156.84 676.544 156.72 675.85 156.72V156.3H679.13V156.72C678.384 156.72 677.977 156.827 677.91 157.04L673.99 168H673.03L669.15 157.14C669.044 156.86 668.617 156.72 667.87 156.72V156.3H672.25ZM680.232 160.68C680.419 160.68 680.579 160.747 680.712 160.88C680.859 161.013 680.932 161.22 680.932 161.5C680.932 161.727 680.839 161.9 680.652 162.02C680.479 162.14 680.272 162.2 680.032 162.2C679.779 162.2 679.572 162.113 679.412 161.94C679.252 161.753 679.172 161.507 679.172 161.2C679.172 160.507 679.459 159.967 680.032 159.58C680.606 159.193 681.419 159 682.472 159C683.712 159 684.619 159.307 685.192 159.92C685.779 160.533 686.072 161.347 686.072 162.36V166.32C686.072 166.747 686.139 167.06 686.272 167.26C686.419 167.46 686.592 167.56 686.792 167.56C686.966 167.56 687.119 167.513 687.252 167.42C687.399 167.327 687.472 167.213 687.472 167.08H687.832C687.832 167.453 687.692 167.727 687.412 167.9C687.146 168.073 686.672 168.16 685.992 168.16C685.326 168.16 684.852 167.887 684.572 167.34C683.786 167.913 682.806 168.2 681.632 168.2C679.632 168.2 678.632 167.387 678.632 165.76C678.632 165.413 678.752 165.1 678.992 164.82C679.246 164.54 679.606 164.307 680.072 164.12C680.539 163.933 680.979 163.787 681.392 163.68C681.806 163.56 682.319 163.433 682.932 163.3C683.559 163.153 684.006 163.04 684.272 162.96C684.272 161.84 684.126 161.02 683.832 160.5C683.539 159.98 683.019 159.72 682.272 159.72C681.072 159.72 680.392 160.04 680.232 160.68ZM684.392 166.84C684.312 166.547 684.272 166.187 684.272 165.76V163.4C684.126 163.453 683.872 163.527 683.512 163.62C683.166 163.713 682.879 163.793 682.652 163.86C682.439 163.927 682.179 164.027 681.872 164.16C681.566 164.293 681.326 164.427 681.152 164.56C680.979 164.693 680.826 164.873 680.692 165.1C680.559 165.313 680.492 165.547 680.492 165.8C680.492 166.44 680.612 166.887 680.852 167.14C681.106 167.393 681.479 167.52 681.972 167.52C682.852 167.52 683.659 167.293 684.392 166.84ZM688.08 168V167.58C688.8 167.58 689.22 167.447 689.34 167.18V156.82C688.513 156.753 688.093 156.72 688.08 156.72V156.26C688.333 156.26 688.827 156.12 689.56 155.84C690.307 155.547 690.833 155.4 691.14 155.4V167.18C691.26 167.447 691.68 167.58 692.4 167.58V168H688.08ZM702.038 166.78C702.038 166.78 702.458 166.813 703.298 166.88V167.34C703.045 167.34 702.545 167.487 701.798 167.78C701.065 168.06 700.545 168.2 700.238 168.2V167.28C699.518 167.893 698.725 168.2 697.858 168.2C696.618 168.2 695.718 167.973 695.158 167.52C694.612 167.053 694.338 166.333 694.338 165.36V160.02C694.218 159.753 693.798 159.62 693.078 159.62V159.2H696.138V165.5C696.138 166.847 696.752 167.52 697.978 167.52C698.818 167.52 699.572 167.227 700.238 166.64V160.02C700.118 159.753 699.698 159.62 698.978 159.62V159.2H702.038V166.78ZM706.414 163.18C706.428 164.3 706.748 165.293 707.374 166.16C708.014 167.013 708.728 167.44 709.514 167.44C710.674 167.44 711.608 167 712.314 166.12L712.794 166.36C712.408 167 711.901 167.467 711.274 167.76C710.661 168.053 709.848 168.2 708.834 168.2C708.328 168.2 707.841 168.127 707.374 167.98C706.908 167.82 706.448 167.567 705.994 167.22C705.541 166.86 705.181 166.333 704.914 165.64C704.648 164.947 704.514 164.12 704.514 163.16C704.514 161.987 704.874 161 705.594 160.2C706.328 159.4 707.341 159 708.634 159C710.048 159 711.101 159.4 711.794 160.2C712.488 160.987 712.834 161.98 712.834 163.18H706.414ZM706.434 162.56H710.874C710.794 161.6 710.588 160.867 710.254 160.36C709.934 159.853 709.368 159.6 708.554 159.6C708.088 159.6 707.634 159.873 707.194 160.42C706.768 160.967 706.514 161.68 706.434 162.56ZM715.198 161.24C714.958 160.987 714.838 160.7 714.838 160.38C714.838 160.06 714.944 159.773 715.158 159.52C715.384 159.253 715.671 159.12 716.018 159.12C716.324 159.12 716.604 159.24 716.858 159.48C717.111 159.72 717.238 160 717.238 160.32C717.238 160.64 717.124 160.933 716.898 161.2C716.671 161.467 716.384 161.6 716.038 161.6C715.731 161.6 715.451 161.48 715.198 161.24ZM715.198 167.84C714.958 167.587 714.838 167.3 714.838 166.98C714.838 166.66 714.944 166.373 715.158 166.12C715.384 165.853 715.671 165.72 716.018 165.72C716.324 165.72 716.604 165.84 716.858 166.08C717.111 166.32 717.238 166.6 717.238 166.92C717.238 167.24 717.124 167.533 716.898 167.8C716.671 168.067 716.384 168.2 716.038 168.2C715.731 168.2 715.451 168.08 715.198 167.84ZM728.105 163.02C728.972 163.02 729.638 162.867 730.105 162.56C730.185 162 730.225 161.407 730.225 160.78C730.225 159.393 730.018 158.373 729.605 157.72C729.205 157.067 728.692 156.74 728.065 156.74C727.492 156.74 727.025 157.067 726.665 157.72C726.318 158.36 726.145 159.193 726.145 160.22C726.145 160.673 726.192 161.1 726.285 161.5C726.392 161.887 726.598 162.24 726.905 162.56C727.225 162.867 727.625 163.02 728.105 163.02ZM730.005 163.22C729.458 163.54 728.838 163.7 728.145 163.7C726.705 163.7 725.712 163.387 725.165 162.76C724.618 162.133 724.345 161.233 724.345 160.06C724.345 158.833 724.672 157.867 725.325 157.16C725.978 156.453 726.892 156.1 728.065 156.1C729.332 156.1 730.305 156.54 730.985 157.42C731.678 158.287 732.025 159.407 732.025 160.78C732.025 161.9 731.832 162.947 731.445 163.92C731.058 164.88 730.565 165.667 729.965 166.28C729.378 166.88 728.772 167.36 728.145 167.72C727.518 168.08 726.932 168.293 726.385 168.36L726.145 168C727.132 167.747 727.958 167.213 728.625 166.4C729.292 165.587 729.752 164.527 730.005 163.22ZM738.07 161.28C737.203 161.28 736.537 161.433 736.07 161.74C735.99 162.3 735.95 162.893 735.95 163.52C735.95 164.907 736.15 165.927 736.55 166.58C736.963 167.233 737.483 167.56 738.11 167.56C738.683 167.56 739.143 167.24 739.49 166.6C739.85 165.947 740.03 165.107 740.03 164.08C740.03 163.627 739.977 163.207 739.87 162.82C739.777 162.42 739.57 162.067 739.25 161.76C738.943 161.44 738.55 161.28 738.07 161.28ZM736.17 161.08C736.717 160.76 737.337 160.6 738.03 160.6C739.47 160.6 740.463 160.913 741.01 161.54C741.557 162.167 741.83 163.067 741.83 164.24C741.83 165.467 741.503 166.433 740.85 167.14C740.197 167.847 739.283 168.2 738.11 168.2C736.843 168.2 735.863 167.767 735.17 166.9C734.49 166.033 734.15 164.907 734.15 163.52C734.15 162.4 734.343 161.36 734.73 160.4C735.117 159.427 735.603 158.64 736.19 158.04C736.79 157.427 737.403 156.94 738.03 156.58C738.657 156.22 739.243 156.007 739.79 155.94L740.03 156.3C739.043 156.553 738.217 157.087 737.55 157.9C736.883 158.713 736.423 159.773 736.17 161.08Z" fill="#E85A4F"/>
<path d="M590.84 116V115.58C591.56 115.58 591.98 115.447 592.1 115.18V105.12C591.98 104.853 591.56 104.72 590.84 104.72V104.3H595.2V104.72C594.48 104.72 594.06 104.853 593.94 105.12V115.32H598.5C598.833 115.173 599.133 114.753 599.4 114.06H599.8L599.32 116H590.84ZM600.742 116V115.58C601.462 115.58 601.882 115.447 602.002 115.18V105.12C601.882 104.853 601.462 104.72 600.742 104.72V104.3H605.102V104.72C604.382 104.72 603.962 104.853 603.842 105.12V115.32H608.402C608.736 115.173 609.036 114.753 609.302 114.06H609.702L609.222 116H600.742ZM610.645 116V115.58C611.365 115.58 611.785 115.447 611.905 115.18V105.12C611.785 104.853 611.365 104.72 610.645 104.72V104.3H613.565L617.825 113.6L622.085 104.3H625.045V104.72C624.325 104.72 623.905 104.853 623.785 105.12V115.18C623.905 115.447 624.325 115.58 625.045 115.58V116H620.685V115.58C621.405 115.58 621.825 115.447 621.945 115.18V106.2L617.465 116H617.165L612.585 106.08V115.18C612.705 115.447 613.125 115.58 613.845 115.58V116H610.645ZM637.444 115.52C638.337 115.52 639.084 115.147 639.684 114.4C640.297 113.653 640.604 112.667 640.604 111.44V105.12C640.484 104.853 640.064 104.72 639.344 104.72V104.3H642.544V104.72C641.824 104.72 641.404 104.853 641.284 105.12V111.04C641.284 112.773 640.897 114.067 640.124 114.92C639.364 115.773 638.404 116.2 637.244 116.2C634.044 116.2 632.444 114.48 632.444 111.04V105.12C632.324 104.853 631.904 104.72 631.184 104.72V104.3H635.544V104.72C634.824 104.72 634.404 104.853 634.284 105.12V111.32C634.284 112.64 634.577 113.673 635.164 114.42C635.75 115.153 636.51 115.52 637.444 115.52ZM643.354 116V115.58C644.074 115.58 644.494 115.447 644.614 115.18V108.42C643.788 108.353 643.368 108.32 643.354 108.32V107.86C643.608 107.86 644.101 107.72 644.834 107.44C645.581 107.147 646.108 107 646.414 107V107.88C647.081 107.293 647.741 107 648.394 107C648.994 107 649.494 107.113 649.894 107.34C650.308 107.567 650.514 107.82 650.514 108.1C650.514 108.58 650.248 108.82 649.714 108.82C649.434 108.82 649.181 108.633 648.954 108.26C648.728 107.873 648.468 107.68 648.174 107.68C647.654 107.68 647.068 107.967 646.414 108.54V115.18C646.534 115.447 646.954 115.58 647.674 115.58V116H643.354ZM659.567 107V115.42C659.567 116.793 659.234 117.9 658.567 118.74C657.914 119.58 656.954 120 655.687 120C654.554 120 653.641 119.807 652.947 119.42C652.267 119.033 651.927 118.627 651.927 118.2C651.927 117.893 652.007 117.647 652.167 117.46C652.327 117.287 652.534 117.2 652.787 117.2C653.027 117.2 653.234 117.26 653.407 117.38C653.594 117.5 653.687 117.673 653.687 117.9C653.687 118.327 653.521 118.607 653.187 118.74C653.547 119.1 654.314 119.28 655.487 119.28C656.861 119.28 657.614 118.053 657.747 115.6C657.134 116 656.347 116.2 655.387 116.2C654.947 116.2 654.507 116.133 654.067 116C653.641 115.853 653.207 115.62 652.767 115.3C652.341 114.98 651.987 114.507 651.707 113.88C651.441 113.24 651.307 112.493 651.307 111.64C651.307 110.147 651.721 109 652.547 108.2C653.387 107.4 654.481 107 655.827 107C656.667 107 657.401 107.213 658.027 107.64C658.707 107.213 659.221 107 659.567 107ZM657.767 114.94V114.7V108.1C657.287 107.82 656.681 107.68 655.947 107.68C655.214 107.68 654.574 108.033 654.027 108.74C653.481 109.433 653.207 110.4 653.207 111.64C653.207 112.813 653.427 113.753 653.867 114.46C654.307 115.167 654.881 115.52 655.587 115.52C656.467 115.52 657.194 115.327 657.767 114.94ZM663.598 111.18C663.611 112.3 663.931 113.293 664.558 114.16C665.198 115.013 665.911 115.44 666.698 115.44C667.858 115.44 668.791 115 669.498 114.12L669.978 114.36C669.591 115 669.085 115.467 668.458 115.76C667.845 116.053 667.031 116.2 666.018 116.2C665.511 116.2 665.025 116.127 664.558 115.98C664.091 115.82 663.631 115.567 663.178 115.22C662.725 114.86 662.365 114.333 662.098 113.64C661.831 112.947 661.698 112.12 661.698 111.16C661.698 109.987 662.058 109 662.778 108.2C663.511 107.4 664.525 107 665.818 107C667.231 107 668.285 107.4 668.978 108.2C669.671 108.987 670.018 109.98 670.018 111.18H663.598ZM663.618 110.56H668.058C667.978 109.6 667.771 108.867 667.438 108.36C667.118 107.853 666.551 107.6 665.738 107.6C665.271 107.6 664.818 107.873 664.378 108.42C663.951 108.967 663.698 109.68 663.618 110.56ZM671.401 116V115.58C672.121 115.58 672.541 115.447 672.661 115.18V108.42C671.835 108.353 671.415 108.32 671.401 108.32V107.86C671.655 107.86 672.148 107.72 672.881 107.44C673.628 107.147 674.155 107 674.461 107V107.92C675.181 107.307 675.975 107 676.841 107C678.081 107 678.975 107.233 679.521 107.7C680.081 108.153 680.361 108.867 680.361 109.84V115.18C680.481 115.447 680.901 115.58 681.621 115.58V116H677.301V115.58C678.021 115.58 678.441 115.447 678.561 115.18V109.7C678.561 108.353 677.948 107.68 676.721 107.68C675.881 107.68 675.128 107.973 674.461 108.56V115.18C674.581 115.447 675.001 115.58 675.721 115.58V116H671.401ZM687.315 107.6C686.488 107.6 685.822 107.913 685.315 108.54C684.808 109.167 684.555 110.013 684.555 111.08C684.555 112.213 684.868 113.227 685.495 114.12C686.135 115 686.855 115.44 687.655 115.44C688.815 115.44 689.748 115 690.455 114.12L690.935 114.36C690.548 115 690.042 115.467 689.415 115.76C688.802 116.053 687.988 116.2 686.975 116.2C686.468 116.2 685.982 116.127 685.515 115.98C685.048 115.82 684.588 115.567 684.135 115.22C683.682 114.86 683.322 114.333 683.055 113.64C682.788 112.947 682.655 112.12 682.655 111.16C682.655 110 683.062 109.02 683.875 108.22C684.702 107.407 685.782 107 687.115 107C688.168 107 688.982 107.18 689.555 107.54C690.128 107.9 690.415 108.427 690.415 109.12C690.415 109.427 690.335 109.673 690.175 109.86C690.015 110.033 689.808 110.12 689.555 110.12C689.315 110.12 689.102 110.06 688.915 109.94C688.742 109.82 688.655 109.647 688.655 109.42C688.655 109.14 688.722 108.933 688.855 108.8C689.002 108.667 689.168 108.6 689.355 108.6C689.182 107.933 688.502 107.6 687.315 107.6ZM695.225 107.2V107.62C694.839 107.62 694.559 107.647 694.385 107.7L696.765 113.56L699.045 107.84C698.859 107.693 698.485 107.62 697.925 107.62V107.2H701.205V107.62C700.485 107.62 700.072 107.74 699.965 107.98L695.945 118.04C695.692 118.667 695.365 119.12 694.965 119.4C694.579 119.693 694.205 119.84 693.845 119.84C693.512 119.84 693.245 119.753 693.045 119.58C692.859 119.407 692.765 119.2 692.765 118.96C692.765 118.76 692.832 118.58 692.965 118.42C693.112 118.26 693.305 118.18 693.545 118.18C693.692 118.18 693.845 118.233 694.005 118.34C694.165 118.46 694.285 118.52 694.365 118.52C694.645 118.52 694.832 118.4 694.925 118.16L695.785 116L692.605 108.02C692.485 107.753 692.065 107.62 691.345 107.62V107.2H695.225ZM710.098 104.3V104.72C709.485 104.72 709.098 104.8 708.938 104.96L711.998 113.34L714.938 105.08C714.805 104.84 714.391 104.72 713.698 104.72V104.3H716.978V104.72C716.231 104.72 715.825 104.827 715.758 105.04L711.838 116H710.878L706.998 105.14C706.891 104.86 706.465 104.72 705.718 104.72V104.3H710.098ZM718.08 108.68C718.267 108.68 718.427 108.747 718.56 108.88C718.707 109.013 718.78 109.22 718.78 109.5C718.78 109.727 718.687 109.9 718.5 110.02C718.327 110.14 718.12 110.2 717.88 110.2C717.627 110.2 717.42 110.113 717.26 109.94C717.1 109.753 717.02 109.507 717.02 109.2C717.02 108.507 717.307 107.967 717.88 107.58C718.453 107.193 719.267 107 720.32 107C721.56 107 722.467 107.307 723.04 107.92C723.627 108.533 723.92 109.347 723.92 110.36V114.32C723.92 114.747 723.987 115.06 724.12 115.26C724.267 115.46 724.44 115.56 724.64 115.56C724.813 115.56 724.967 115.513 725.1 115.42C725.247 115.327 725.32 115.213 725.32 115.08H725.68C725.68 115.453 725.54 115.727 725.26 115.9C724.993 116.073 724.52 116.16 723.84 116.16C723.173 116.16 722.7 115.887 722.42 115.34C721.633 115.913 720.653 116.2 719.48 116.2C717.48 116.2 716.48 115.387 716.48 113.76C716.48 113.413 716.6 113.1 716.84 112.82C717.093 112.54 717.453 112.307 717.92 112.12C718.387 111.933 718.827 111.787 719.24 111.68C719.653 111.56 720.167 111.433 720.78 111.3C721.407 111.153 721.853 111.04 722.12 110.96C722.12 109.84 721.973 109.02 721.68 108.5C721.387 107.98 720.867 107.72 720.12 107.72C718.92 107.72 718.24 108.04 718.08 108.68ZM722.24 114.84C722.16 114.547 722.12 114.187 722.12 113.76V111.4C721.973 111.453 721.72 111.527 721.36 111.62C721.013 111.713 720.727 111.793 720.5 111.86C720.287 111.927 720.027 112.027 719.72 112.16C719.413 112.293 719.173 112.427 719 112.56C718.827 112.693 718.673 112.873 718.54 113.1C718.407 113.313 718.34 113.547 718.34 113.8C718.34 114.44 718.46 114.887 718.7 115.14C718.953 115.393 719.327 115.52 719.82 115.52C720.7 115.52 721.507 115.293 722.24 114.84ZM725.928 116V115.58C726.648 115.58 727.068 115.447 727.188 115.18V104.82C726.361 104.753 725.941 104.72 725.928 104.72V104.26C726.181 104.26 726.674 104.12 727.408 103.84C728.154 103.547 728.681 103.4 728.988 103.4V115.18C729.108 115.447 729.528 115.58 730.248 115.58V116H725.928ZM739.886 114.78C739.886 114.78 740.306 114.813 741.146 114.88V115.34C740.893 115.34 740.393 115.487 739.646 115.78C738.913 116.06 738.393 116.2 738.086 116.2V115.28C737.366 115.893 736.573 116.2 735.706 116.2C734.466 116.2 733.566 115.973 733.006 115.52C732.459 115.053 732.186 114.333 732.186 113.36V108.02C732.066 107.753 731.646 107.62 730.926 107.62V107.2H733.986V113.5C733.986 114.847 734.599 115.52 735.826 115.52C736.666 115.52 737.419 115.227 738.086 114.64V108.02C737.966 107.753 737.546 107.62 736.826 107.62V107.2H739.886V114.78ZM744.262 111.18C744.275 112.3 744.595 113.293 745.222 114.16C745.862 115.013 746.575 115.44 747.362 115.44C748.522 115.44 749.455 115 750.162 114.12L750.642 114.36C750.255 115 749.749 115.467 749.122 115.76C748.509 116.053 747.695 116.2 746.682 116.2C746.175 116.2 745.689 116.127 745.222 115.98C744.755 115.82 744.295 115.567 743.842 115.22C743.389 114.86 743.029 114.333 742.762 113.64C742.495 112.947 742.362 112.12 742.362 111.16C742.362 109.987 742.722 109 743.442 108.2C744.175 107.4 745.189 107 746.482 107C747.895 107 748.949 107.4 749.642 108.2C750.335 108.987 750.682 109.98 750.682 111.18H744.262ZM744.282 110.56H748.722C748.642 109.6 748.435 108.867 748.102 108.36C747.782 107.853 747.215 107.6 746.402 107.6C745.935 107.6 745.482 107.873 745.042 108.42C744.615 108.967 744.362 109.68 744.282 110.56ZM763.17 104.78C762.023 104.78 761.07 105.253 760.31 106.2C759.55 107.147 759.17 108.373 759.17 109.88C759.17 111.64 759.57 113.02 760.37 114.02C761.17 115.02 762.13 115.52 763.25 115.52C763.917 115.52 764.577 115.293 765.23 114.84C765.883 114.373 766.303 113.88 766.49 113.36L766.97 113.6C766.663 114.333 766.177 114.953 765.51 115.46C764.857 115.953 763.97 116.2 762.85 116.2C761.077 116.2 759.67 115.627 758.63 114.48C757.603 113.32 757.09 111.933 757.09 110.32C757.09 108.453 757.683 106.953 758.87 105.82C760.07 104.673 761.497 104.1 763.15 104.1C763.537 104.1 763.983 104.2 764.49 104.4C764.997 104.6 765.29 104.7 765.37 104.7C765.53 104.7 765.61 104.567 765.61 104.3H766.07L766.27 106.84H765.83C765.737 106.24 765.47 105.747 765.03 105.36C764.603 104.973 763.983 104.78 763.17 104.78ZM769.72 108.68C769.907 108.68 770.067 108.747 770.2 108.88C770.347 109.013 770.42 109.22 770.42 109.5C770.42 109.727 770.327 109.9 770.14 110.02C769.967 110.14 769.76 110.2 769.52 110.2C769.267 110.2 769.06 110.113 768.9 109.94C768.74 109.753 768.66 109.507 768.66 109.2C768.66 108.507 768.947 107.967 769.52 107.58C770.094 107.193 770.907 107 771.96 107C773.2 107 774.107 107.307 774.68 107.92C775.267 108.533 775.56 109.347 775.56 110.36V114.32C775.56 114.747 775.627 115.06 775.76 115.26C775.907 115.46 776.08 115.56 776.28 115.56C776.454 115.56 776.607 115.513 776.74 115.42C776.887 115.327 776.96 115.213 776.96 115.08H777.32C777.32 115.453 777.18 115.727 776.9 115.9C776.634 116.073 776.16 116.16 775.48 116.16C774.814 116.16 774.34 115.887 774.06 115.34C773.274 115.913 772.294 116.2 771.12 116.2C769.12 116.2 768.12 115.387 768.12 113.76C768.12 113.413 768.24 113.1 768.48 112.82C768.734 112.54 769.094 112.307 769.56 112.12C770.027 111.933 770.467 111.787 770.88 111.68C771.294 111.56 771.807 111.433 772.42 111.3C773.047 111.153 773.494 111.04 773.76 110.96C773.76 109.84 773.614 109.02 773.32 108.5C773.027 107.98 772.507 107.72 771.76 107.72C770.56 107.72 769.88 108.04 769.72 108.68ZM773.88 114.84C773.8 114.547 773.76 114.187 773.76 113.76V111.4C773.614 111.453 773.36 111.527 773 111.62C772.654 111.713 772.367 111.793 772.14 111.86C771.927 111.927 771.667 112.027 771.36 112.16C771.054 112.293 770.814 112.427 770.64 112.56C770.467 112.693 770.314 112.873 770.18 113.1C770.047 113.313 769.98 113.547 769.98 113.8C769.98 114.44 770.1 114.887 770.34 115.14C770.594 115.393 770.967 115.52 771.46 115.52C772.34 115.52 773.147 115.293 773.88 114.84ZM777.568 116V115.58C778.288 115.58 778.708 115.447 778.828 115.18V104.82C778.002 104.753 777.582 104.72 777.568 104.72V104.26C777.822 104.26 778.315 104.12 779.048 103.84C779.795 103.547 780.322 103.4 780.628 103.4V115.18C780.748 115.447 781.168 115.58 781.888 115.58V116H777.568ZM787.667 107.6C786.84 107.6 786.173 107.913 785.667 108.54C785.16 109.167 784.907 110.013 784.907 111.08C784.907 112.213 785.22 113.227 785.847 114.12C786.487 115 787.207 115.44 788.007 115.44C789.167 115.44 790.1 115 790.807 114.12L791.287 114.36C790.9 115 790.393 115.467 789.767 115.76C789.153 116.053 788.34 116.2 787.327 116.2C786.82 116.2 786.333 116.127 785.867 115.98C785.4 115.82 784.94 115.567 784.487 115.22C784.033 114.86 783.673 114.333 783.407 113.64C783.14 112.947 783.007 112.12 783.007 111.16C783.007 110 783.413 109.02 784.227 108.22C785.053 107.407 786.133 107 787.467 107C788.52 107 789.333 107.18 789.907 107.54C790.48 107.9 790.767 108.427 790.767 109.12C790.767 109.427 790.687 109.673 790.527 109.86C790.367 110.033 790.16 110.12 789.907 110.12C789.667 110.12 789.453 110.06 789.267 109.94C789.093 109.82 789.007 109.647 789.007 109.42C789.007 109.14 789.073 108.933 789.207 108.8C789.353 108.667 789.52 108.6 789.707 108.6C789.533 107.933 788.853 107.6 787.667 107.6ZM801.097 114.78C801.097 114.78 801.517 114.813 802.357 114.88V115.34C802.104 115.34 801.604 115.487 800.857 115.78C800.124 116.06 799.604 116.2 799.297 116.2V115.28C798.577 115.893 797.784 116.2 796.917 116.2C795.677 116.2 794.777 115.973 794.217 115.52C793.67 115.053 793.397 114.333 793.397 113.36V108.02C793.277 107.753 792.857 107.62 792.137 107.62V107.2H795.197V113.5C795.197 114.847 795.81 115.52 797.037 115.52C797.877 115.52 798.63 115.227 799.297 114.64V108.02C799.177 107.753 798.757 107.62 798.037 107.62V107.2H801.097V114.78ZM803.213 116V115.58C803.933 115.58 804.353 115.447 804.473 115.18V104.82C803.646 104.753 803.226 104.72 803.213 104.72V104.26C803.466 104.26 803.96 104.12 804.693 103.84C805.44 103.547 805.966 103.4 806.273 103.4V115.18C806.393 115.447 806.813 115.58 807.533 115.58V116H803.213ZM810.189 108.68C810.376 108.68 810.536 108.747 810.669 108.88C810.816 109.013 810.889 109.22 810.889 109.5C810.889 109.727 810.796 109.9 810.609 110.02C810.436 110.14 810.229 110.2 809.989 110.2C809.736 110.2 809.529 110.113 809.369 109.94C809.209 109.753 809.129 109.507 809.129 109.2C809.129 108.507 809.416 107.967 809.989 107.58C810.563 107.193 811.376 107 812.429 107C813.669 107 814.576 107.307 815.149 107.92C815.736 108.533 816.029 109.347 816.029 110.36V114.32C816.029 114.747 816.096 115.06 816.229 115.26C816.376 115.46 816.549 115.56 816.749 115.56C816.923 115.56 817.076 115.513 817.209 115.42C817.356 115.327 817.429 115.213 817.429 115.08H817.789C817.789 115.453 817.649 115.727 817.369 115.9C817.103 116.073 816.629 116.16 815.949 116.16C815.283 116.16 814.809 115.887 814.529 115.34C813.743 115.913 812.763 116.2 811.589 116.2C809.589 116.2 808.589 115.387 808.589 113.76C808.589 113.413 808.709 113.1 808.949 112.82C809.203 112.54 809.563 112.307 810.029 112.12C810.496 111.933 810.936 111.787 811.349 111.68C811.763 111.56 812.276 111.433 812.889 111.3C813.516 111.153 813.963 111.04 814.229 110.96C814.229 109.84 814.083 109.02 813.789 108.5C813.496 107.98 812.976 107.72 812.229 107.72C811.029 107.72 810.349 108.04 810.189 108.68ZM814.349 114.84C814.269 114.547 814.229 114.187 814.229 113.76V111.4C814.083 111.453 813.829 111.527 813.469 111.62C813.123 111.713 812.836 111.793 812.609 111.86C812.396 111.927 812.136 112.027 811.829 112.16C811.523 112.293 811.283 112.427 811.109 112.56C810.936 112.693 810.783 112.873 810.649 113.1C810.516 113.313 810.449 113.547 810.449 113.8C810.449 114.44 810.569 114.887 810.809 115.14C811.063 115.393 811.436 115.52 811.929 115.52C812.809 115.52 813.616 115.293 814.349 114.84ZM821.217 104.3V107.2H822.937V107.8H821.217V114.16C821.217 114.573 821.291 114.893 821.437 115.12C821.584 115.333 821.857 115.44 822.257 115.44C822.497 115.44 822.737 115.327 822.977 115.1C823.231 114.86 823.404 114.533 823.497 114.12L823.977 114.36C823.697 115.587 822.897 116.2 821.577 116.2C820.057 116.2 819.297 115.467 819.297 114V107.8H817.897V107.2C818.524 107.2 819.091 106.94 819.597 106.42C820.104 105.9 820.357 105.193 820.357 104.3H821.217ZM824.897 116V115.58C825.617 115.58 826.037 115.447 826.157 115.18V108.42C825.331 108.353 824.911 108.32 824.897 108.32V107.86C825.151 107.86 825.644 107.72 826.377 107.44C827.124 107.147 827.651 107 827.957 107V115.18C828.077 115.447 828.497 115.58 829.217 115.58V116H824.897ZM826.997 105.72C826.704 105.72 826.444 105.613 826.217 105.4C826.004 105.173 825.897 104.887 825.897 104.54C825.897 104.233 825.991 103.967 826.177 103.74C826.377 103.513 826.631 103.4 826.937 103.4C827.231 103.4 827.491 103.513 827.717 103.74C827.944 103.967 828.057 104.253 828.057 104.6C828.057 104.907 827.957 105.173 827.757 105.4C827.557 105.613 827.304 105.72 826.997 105.72ZM832.231 111.04C832.231 112.56 832.518 113.7 833.091 114.46C833.678 115.22 834.425 115.6 835.331 115.6C836.051 115.6 836.631 115.28 837.071 114.64C837.511 113.987 837.731 113.153 837.731 112.14C837.731 109.127 836.685 107.62 834.591 107.62C833.885 107.62 833.311 107.96 832.871 108.64C832.445 109.307 832.231 110.107 832.231 111.04ZM835.071 116.2C833.578 116.2 832.411 115.767 831.571 114.9C830.731 114.02 830.311 112.867 830.311 111.44C830.311 110.147 830.691 109.087 831.451 108.26C832.211 107.42 833.371 107 834.931 107C836.505 107 837.685 107.42 838.471 108.26C839.258 109.087 839.651 110.227 839.651 111.68C839.651 112.973 839.271 114.053 838.511 114.92C837.765 115.773 836.618 116.2 835.071 116.2ZM841.05 116V115.58C841.77 115.58 842.19 115.447 842.31 115.18V108.42C841.483 108.353 841.063 108.32 841.05 108.32V107.86C841.303 107.86 841.796 107.72 842.53 107.44C843.276 107.147 843.803 107 844.11 107V107.92C844.83 107.307 845.623 107 846.49 107C847.73 107 848.623 107.233 849.17 107.7C849.73 108.153 850.01 108.867 850.01 109.84V115.18C850.13 115.447 850.55 115.58 851.27 115.58V116H846.95V115.58C847.67 115.58 848.09 115.447 848.21 115.18V109.7C848.21 108.353 847.596 107.68 846.37 107.68C845.53 107.68 844.776 107.973 844.11 108.56V115.18C844.23 115.447 844.65 115.58 845.37 115.58V116H841.05Z" fill="#E85A4F"/>
<path d="M563.586 134.414C564.367 135.195 565.633 135.195 566.414 134.414L579.142 121.686C579.923 120.905 579.923 119.639 579.142 118.858C578.361 118.077 577.095 118.077 576.314 118.858L565 130.172L553.686 118.858C552.905 118.077 551.639 118.077 550.858 118.858C550.077 119.639 550.077 120.905 550.858 121.686L563.586 134.414ZM563 92V133H567V92H563Z" fill="#E85A4F"/>
<mask id="mask0_0_1" style="mask-type:alpha" maskUnits="userSpaceOnUse" x="349" y="84" width="48" height="48">
<path d="M361 96H361.02M361 120H361.02M357 88H389C391.209 88 393 89.7909 393 92V100C393 102.209 391.209 104 389 104H357C354.791 104 353 102.209 353 100V92C353 89.7909 354.791 88 357 88ZM357 112H389C391.209 112 393 113.791 393 116V124C393 126.209 391.209 128 389 128H357C354.791 128 353 126.209 353 124V116C353 113.791 354.791 112 357 112Z" stroke="#1E1E1E" stroke-width="4" stroke-linecap="round" stroke-linejoin="round"/>
</mask>
<g mask="url(#mask0_0_1)">
<rect x="349" y="84" width="48" height="48" fill="#E85A4F"/>
</g>
<mask id="mask1_0_1" style="mask-type:alpha" maskUnits="userSpaceOnUse" x="0" y="147" width="48" height="48">
<path d="M12 159H12.02M12 183H12.02M8 151H40C42.2091 151 44 152.791 44 155V163C44 165.209 42.2091 167 40 167H8C5.79086 167 4 165.209 4 163V155C4 152.791 5.79086 151 8 151ZM8 175H40C42.2091 175 44 176.791 44 179V187C44 189.209 42.2091 191 40 191H8C5.79086 191 4 189.209 4 187V179C4 176.791 5.79086 175 8 175Z" stroke="#1E1E1E" stroke-width="4" stroke-linecap="round" stroke-linejoin="round"/>
</mask>
<g mask="url(#mask1_0_1)">
<rect y="147" width="48" height="48" fill="#E85A4F"/>
</g>
<mask id="mask2_0_1" style="mask-type:alpha" maskUnits="userSpaceOnUse" x="234" y="233" width="48" height="48">
<path d="M246 245H246.02M246 269H246.02M242 237H274C276.209 237 278 238.791 278 241V249C278 251.209 276.209 253 274 253H242C239.791 253 238 251.209 238 249V241C238 238.791 239.791 237 242 237ZM242 261H274C276.209 261 278 262.791 278 265V273C278 275.209 276.209 277 274 277H242C239.791 277 238 275.209 238 273V265C238 262.791 239.791 261 242 261Z" stroke="#1E1E1E" stroke-width="4" stroke-linecap="round" stroke-linejoin="round"/>
</mask>
<g mask="url(#mask2_0_1)">
<rect x="234" y="233" width="48" height="48" fill="#E85A4F"/>
</g>
<mask id="mask3_0_1" style="mask-type:alpha" maskUnits="userSpaceOnUse" x="130" y="0" width="48" height="48">
<path d="M142 12H142.02M142 36H142.02M138 4H170C172.209 4 174 5.79086 174 8V16C174 18.2091 172.209 20 170 20H138C135.791 20 134 18.2091 134 16V8C134 5.79086 135.791 4 138 4ZM138 28H170C172.209 28 174 29.7909 174 32V40C174 42.2091 172.209 44 170 44H138C135.791 44 134 42.2091 134 40V32C134 29.7909 135.791 28 138 28Z" stroke="#1E1E1E" stroke-width="4" stroke-linecap="round" stroke-linejoin="round"/>
</mask>
<g mask="url(#mask3_0_1)">
<rect x="130" width="48" height="48" fill="#E85A4F"/>
<mask id="mask4_0_1" style="mask-type:alpha" maskUnits="userSpaceOnUse" x="130" y="0" width="48" height="48">
<path d="M142 12H142.02M142 36H142.02M138 4H170C172.209 4 174 5.79086 174 8V16C174 18.2091 172.209 20 170 20H138C135.791 20 134 18.2091 134 16V8C134 5.79086 135.791 4 138 4ZM138 28H170C172.209 28 174 29.7909 174 32V40C174 42.2091 172.209 44 170 44H138C135.791 44 134 42.2091 134 40V32C134 29.7909 135.791 28 138 28Z" stroke="#1E1E1E" stroke-width="4" stroke-linecap="round" stroke-linejoin="round"/>
</mask>
<g mask="url(#mask4_0_1)">
<rect x="130" width="48" height="48" fill="#E85A4F"/>
</g>
</g>
</svg>