<svg width="1033" height="486" viewBox="0 0 1033 486" fill="none" xmlns="http://www.w3.org/2000/svg">
<rect width="1033" height="486" fill="white"/>
<line y1="-4" x2="210.757" y2="-4" transform="matrix(0.963399 0.268073 -0.268344 0.963323 114.375 298.84)" stroke="black" stroke-width="8"/>
<line y1="-4" x2="141.405" y2="-4" transform="matrix(0.611888 -0.790945 0.791267 0.611471 394.713 355.338)" stroke="black" stroke-width="8"/>
<line y1="-4" x2="320.39" y2="-4" transform="matrix(0.983012 -0.18354 0.183733 0.982976 123.604 264.249)" stroke="black" stroke-width="8"/>
<line y1="-4" x2="129.016" y2="-4" transform="matrix(-0.670646 0.741778 -0.742141 -0.670244 200.899 138.569)" stroke="#030303" stroke-width="8"/>
<line y1="-4" x2="201.142" y2="-4" transform="matrix(0.45884 0.888519 -0.888722 0.458446 244.738 138.569)" stroke="#030303" stroke-width="8"/>
<line y1="-4" x2="165.254" y2="-4" transform="matrix(0.94943 0.313979 -0.314287 0.949328 281.655 112.05)" stroke="#030303" stroke-width="8"/>
<path d="M565.84 146V145.58C566.56 145.58 566.98 145.447 567.1 145.18V135.12C566.98 134.853 566.56 134.72 565.84 134.72V134.3H568.52L575.14 142.48V135.12C575.02 134.853 574.6 134.72 573.88 134.72V134.3H577.08V134.72C576.36 134.72 575.94 134.853 575.82 135.12V146H575.64L567.78 136.06V145.18C567.9 145.447 568.32 145.58 569.04 145.58V146H565.84ZM579.701 138.68C579.888 138.68 580.048 138.747 580.181 138.88C580.328 139.013 580.401 139.22 580.401 139.5C580.401 139.727 580.308 139.9 580.121 140.02C579.948 140.14 579.741 140.2 579.501 140.2C579.248 140.2 579.041 140.113 578.881 139.94C578.721 139.753 578.641 139.507 578.641 139.2C578.641 138.507 578.928 137.967 579.501 137.58C580.074 137.193 580.888 137 581.941 137C583.181 137 584.088 137.307 584.661 137.92C585.248 138.533 585.541 139.347 585.541 140.36V144.32C585.541 144.747 585.608 145.06 585.741 145.26C585.888 145.46 586.061 145.56 586.261 145.56C586.434 145.56 586.588 145.513 586.721 145.42C586.868 145.327 586.941 145.213 586.941 145.08H587.301C587.301 145.453 587.161 145.727 586.881 145.9C586.614 146.073 586.141 146.16 585.461 146.16C584.794 146.16 584.321 145.887 584.041 145.34C583.254 145.913 582.274 146.2 581.101 146.2C579.101 146.2 578.101 145.387 578.101 143.76C578.101 143.413 578.221 143.1 578.461 142.82C578.714 142.54 579.074 142.307 579.541 142.12C580.008 141.933 580.448 141.787 580.861 141.68C581.274 141.56 581.788 141.433 582.401 141.3C583.028 141.153 583.474 141.04 583.741 140.96C583.741 139.84 583.594 139.02 583.301 138.5C583.008 137.98 582.488 137.72 581.741 137.72C580.541 137.72 579.861 138.04 579.701 138.68ZM583.861 144.84C583.781 144.547 583.741 144.187 583.741 143.76V141.4C583.594 141.453 583.341 141.527 582.981 141.62C582.634 141.713 582.348 141.793 582.121 141.86C581.908 141.927 581.648 142.027 581.341 142.16C581.034 142.293 580.794 142.427 580.621 142.56C580.448 142.693 580.294 142.873 580.161 143.1C580.028 143.313 579.961 143.547 579.961 143.8C579.961 144.44 580.081 144.887 580.321 145.14C580.574 145.393 580.948 145.52 581.441 145.52C582.321 145.52 583.128 145.293 583.861 144.84ZM587.749 146V145.58C588.469 145.58 588.889 145.447 589.009 145.18V138.42C588.182 138.353 587.762 138.32 587.749 138.32V137.86C588.002 137.86 588.496 137.72 589.229 137.44C589.976 137.147 590.502 137 590.809 137V137.9C591.516 137.3 592.256 137 593.029 137C594.629 137 595.656 137.387 596.109 138.16C596.856 137.387 597.689 137 598.609 137C600.849 137 601.969 137.76 601.969 139.28V145.18C602.089 145.447 602.509 145.58 603.229 145.58V146H598.909V145.58C599.629 145.58 600.049 145.447 600.169 145.18V140.02C600.169 139.153 600.042 138.547 599.789 138.2C599.536 137.853 599.102 137.68 598.489 137.68C597.702 137.68 596.976 138 596.309 138.64C596.362 138.813 596.389 139.027 596.389 139.28V145.18C596.509 145.447 596.929 145.58 597.649 145.58V146H593.329V145.58C594.049 145.58 594.469 145.447 594.589 145.18V140.02C594.589 139.153 594.462 138.547 594.209 138.2C593.956 137.853 593.522 137.68 592.909 137.68C592.149 137.68 591.449 137.973 590.809 138.56V145.18C590.929 145.447 591.349 145.58 592.069 145.58V146H587.749ZM606.196 141.18C606.209 142.3 606.529 143.293 607.156 144.16C607.796 145.013 608.509 145.44 609.296 145.44C610.456 145.44 611.389 145 612.096 144.12L612.576 144.36C612.189 145 611.682 145.467 611.056 145.76C610.442 146.053 609.629 146.2 608.616 146.2C608.109 146.2 607.622 146.127 607.156 145.98C606.689 145.82 606.229 145.567 605.776 145.22C605.322 144.86 604.962 144.333 604.696 143.64C604.429 142.947 604.296 142.12 604.296 141.16C604.296 139.987 604.656 139 605.376 138.2C606.109 137.4 607.122 137 608.416 137C609.829 137 610.882 137.4 611.576 138.2C612.269 138.987 612.616 139.98 612.616 141.18H606.196ZM606.216 140.56H610.656C610.576 139.6 610.369 138.867 610.036 138.36C609.716 137.853 609.149 137.6 608.336 137.6C607.869 137.6 607.416 137.873 606.976 138.42C606.549 138.967 606.296 139.68 606.216 140.56ZM614.979 139.24C614.739 138.987 614.619 138.7 614.619 138.38C614.619 138.06 614.726 137.773 614.939 137.52C615.166 137.253 615.452 137.12 615.799 137.12C616.106 137.12 616.386 137.24 616.639 137.48C616.892 137.72 617.019 138 617.019 138.32C617.019 138.64 616.906 138.933 616.679 139.2C616.452 139.467 616.166 139.6 615.819 139.6C615.512 139.6 615.232 139.48 614.979 139.24ZM614.979 145.84C614.739 145.587 614.619 145.3 614.619 144.98C614.619 144.66 614.726 144.373 614.939 144.12C615.166 143.853 615.452 143.72 615.799 143.72C616.106 143.72 616.386 143.84 616.639 144.08C616.892 144.32 617.019 144.6 617.019 144.92C617.019 145.24 616.906 145.533 616.679 145.8C616.452 146.067 616.166 146.2 615.819 146.2C615.512 146.2 615.232 146.08 614.979 145.84ZM628.046 146.2C627.393 146.2 626.726 146.1 626.046 145.9C625.366 145.7 625.013 145.6 624.986 145.6C624.906 145.6 624.813 145.64 624.706 145.72C624.6 145.8 624.546 145.893 624.546 146H624.086V143.22H624.526C624.673 144.02 625.066 144.607 625.706 144.98C626.36 145.34 627.1 145.52 627.926 145.52C628.633 145.52 629.213 145.36 629.666 145.04C630.12 144.72 630.346 144.24 630.346 143.6C630.346 143.307 630.28 143.04 630.146 142.8C630.026 142.56 629.833 142.34 629.566 142.14C629.313 141.927 629.066 141.753 628.826 141.62C628.586 141.473 628.273 141.3 627.886 141.1C627.513 140.887 627.226 140.72 627.026 140.6C626.56 140.307 626.213 140.087 625.986 139.94C625.76 139.78 625.466 139.547 625.106 139.24C624.76 138.933 624.506 138.613 624.346 138.28C624.186 137.947 624.106 137.587 624.106 137.2C624.106 136.413 624.466 135.7 625.186 135.06C625.906 134.42 626.713 134.1 627.606 134.1C627.993 134.1 628.473 134.2 629.046 134.4C629.62 134.6 629.946 134.7 630.026 134.7C630.186 134.7 630.266 134.567 630.266 134.3H630.726L630.926 136.84H630.486C630.406 136.253 630.113 135.767 629.606 135.38C629.1 134.98 628.44 134.78 627.626 134.78C627.013 134.78 626.52 134.98 626.146 135.38C625.786 135.767 625.606 136.16 625.606 136.56C625.606 136.813 625.666 137.053 625.786 137.28C625.906 137.493 626.093 137.693 626.346 137.88C626.6 138.067 626.84 138.233 627.066 138.38C627.293 138.513 627.593 138.68 627.966 138.88C628.353 139.08 628.646 139.24 628.846 139.36C629.393 139.693 629.786 139.94 630.026 140.1C630.266 140.26 630.573 140.507 630.946 140.84C631.333 141.173 631.6 141.52 631.746 141.88C631.906 142.227 631.986 142.613 631.986 143.04C631.986 144.027 631.586 144.8 630.786 145.36C629.986 145.92 629.073 146.2 628.046 146.2ZM634.857 138.68C635.044 138.68 635.204 138.747 635.337 138.88C635.484 139.013 635.557 139.22 635.557 139.5C635.557 139.727 635.464 139.9 635.277 140.02C635.104 140.14 634.897 140.2 634.657 140.2C634.404 140.2 634.197 140.113 634.037 139.94C633.877 139.753 633.797 139.507 633.797 139.2C633.797 138.507 634.084 137.967 634.657 137.58C635.231 137.193 636.044 137 637.097 137C638.337 137 639.244 137.307 639.817 137.92C640.404 138.533 640.697 139.347 640.697 140.36V144.32C640.697 144.747 640.764 145.06 640.897 145.26C641.044 145.46 641.217 145.56 641.417 145.56C641.591 145.56 641.744 145.513 641.877 145.42C642.024 145.327 642.097 145.213 642.097 145.08H642.457C642.457 145.453 642.317 145.727 642.037 145.9C641.771 146.073 641.297 146.16 640.617 146.16C639.951 146.16 639.477 145.887 639.197 145.34C638.411 145.913 637.431 146.2 636.257 146.2C634.257 146.2 633.257 145.387 633.257 143.76C633.257 143.413 633.377 143.1 633.617 142.82C633.871 142.54 634.231 142.307 634.697 142.12C635.164 141.933 635.604 141.787 636.017 141.68C636.431 141.56 636.944 141.433 637.557 141.3C638.184 141.153 638.631 141.04 638.897 140.96C638.897 139.84 638.751 139.02 638.457 138.5C638.164 137.98 637.644 137.72 636.897 137.72C635.697 137.72 635.017 138.04 634.857 138.68ZM639.017 144.84C638.937 144.547 638.897 144.187 638.897 143.76V141.4C638.751 141.453 638.497 141.527 638.137 141.62C637.791 141.713 637.504 141.793 637.277 141.86C637.064 141.927 636.804 142.027 636.497 142.16C636.191 142.293 635.951 142.427 635.777 142.56C635.604 142.693 635.451 142.873 635.317 143.1C635.184 143.313 635.117 143.547 635.117 143.8C635.117 144.44 635.237 144.887 635.477 145.14C635.731 145.393 636.104 145.52 636.597 145.52C637.477 145.52 638.284 145.293 639.017 144.84ZM642.905 146V145.58C643.625 145.58 644.045 145.447 644.165 145.18V138.42C643.338 138.353 642.918 138.32 642.905 138.32V137.86C643.158 137.86 643.652 137.72 644.385 137.44C645.132 137.147 645.658 137 645.965 137V137.9C646.672 137.3 647.412 137 648.185 137C649.785 137 650.812 137.387 651.265 138.16C652.012 137.387 652.845 137 653.765 137C656.005 137 657.125 137.76 657.125 139.28V145.18C657.245 145.447 657.665 145.58 658.385 145.58V146H654.065V145.58C654.785 145.58 655.205 145.447 655.325 145.18V140.02C655.325 139.153 655.198 138.547 654.945 138.2C654.692 137.853 654.258 137.68 653.645 137.68C652.858 137.68 652.132 138 651.465 138.64C651.518 138.813 651.545 139.027 651.545 139.28V145.18C651.665 145.447 652.085 145.58 652.805 145.58V146H648.485V145.58C649.205 145.58 649.625 145.447 649.745 145.18V140.02C649.745 139.153 649.618 138.547 649.365 138.2C649.112 137.853 648.678 137.68 648.065 137.68C647.305 137.68 646.605 137.973 645.965 138.56V145.18C646.085 145.447 646.505 145.58 647.225 145.58V146H642.905ZM668.535 146.2C667.881 146.2 667.215 146.1 666.535 145.9C665.855 145.7 665.501 145.6 665.475 145.6C665.395 145.6 665.301 145.64 665.195 145.72C665.088 145.8 665.035 145.893 665.035 146H664.575V143.22H665.015C665.161 144.02 665.555 144.607 666.195 144.98C666.848 145.34 667.588 145.52 668.415 145.52C669.121 145.52 669.701 145.36 670.155 145.04C670.608 144.72 670.835 144.24 670.835 143.6C670.835 143.307 670.768 143.04 670.635 142.8C670.515 142.56 670.321 142.34 670.055 142.14C669.801 141.927 669.555 141.753 669.315 141.62C669.075 141.473 668.761 141.3 668.375 141.1C668.001 140.887 667.715 140.72 667.515 140.6C667.048 140.307 666.701 140.087 666.475 139.94C666.248 139.78 665.955 139.547 665.595 139.24C665.248 138.933 664.995 138.613 664.835 138.28C664.675 137.947 664.595 137.587 664.595 137.2C664.595 136.413 664.955 135.7 665.675 135.06C666.395 134.42 667.201 134.1 668.095 134.1C668.481 134.1 668.961 134.2 669.535 134.4C670.108 134.6 670.435 134.7 670.515 134.7C670.675 134.7 670.755 134.567 670.755 134.3H671.215L671.415 136.84H670.975C670.895 136.253 670.601 135.767 670.095 135.38C669.588 134.98 668.928 134.78 668.115 134.78C667.501 134.78 667.008 134.98 666.635 135.38C666.275 135.767 666.095 136.16 666.095 136.56C666.095 136.813 666.155 137.053 666.275 137.28C666.395 137.493 666.581 137.693 666.835 137.88C667.088 138.067 667.328 138.233 667.555 138.38C667.781 138.513 668.081 138.68 668.455 138.88C668.841 139.08 669.135 139.24 669.335 139.36C669.881 139.693 670.275 139.94 670.515 140.1C670.755 140.26 671.061 140.507 671.435 140.84C671.821 141.173 672.088 141.52 672.235 141.88C672.395 142.227 672.475 142.613 672.475 143.04C672.475 144.027 672.075 144.8 671.275 145.36C670.475 145.92 669.561 146.2 668.535 146.2ZM673.569 146V145.58C674.289 145.58 674.709 145.447 674.829 145.18V138.42C674.003 138.353 673.583 138.32 673.569 138.32V137.86C673.823 137.86 674.316 137.72 675.049 137.44C675.796 137.147 676.323 137 676.629 137V137.9C677.336 137.3 678.076 137 678.849 137C680.449 137 681.476 137.387 681.929 138.16C682.676 137.387 683.509 137 684.429 137C686.669 137 687.789 137.76 687.789 139.28V145.18C687.909 145.447 688.329 145.58 689.049 145.58V146H684.729V145.58C685.449 145.58 685.869 145.447 685.989 145.18V140.02C685.989 139.153 685.863 138.547 685.609 138.2C685.356 137.853 684.923 137.68 684.309 137.68C683.523 137.68 682.796 138 682.129 138.64C682.183 138.813 682.209 139.027 682.209 139.28V145.18C682.329 145.447 682.749 145.58 683.469 145.58V146H679.149V145.58C679.869 145.58 680.289 145.447 680.409 145.18V140.02C680.409 139.153 680.283 138.547 680.029 138.2C679.776 137.853 679.343 137.68 678.729 137.68C677.969 137.68 677.269 137.973 676.629 138.56V145.18C676.749 145.447 677.169 145.58 677.889 145.58V146H673.569ZM690.034 146V145.58C690.754 145.58 691.174 145.447 691.294 145.18V138.42C690.467 138.353 690.047 138.32 690.034 138.32V137.86C690.287 137.86 690.781 137.72 691.514 137.44C692.261 137.147 692.787 137 693.094 137V145.18C693.214 145.447 693.634 145.58 694.354 145.58V146H690.034ZM692.134 135.72C691.841 135.72 691.581 135.613 691.354 135.4C691.141 135.173 691.034 134.887 691.034 134.54C691.034 134.233 691.127 133.967 691.314 133.74C691.514 133.513 691.767 133.4 692.074 133.4C692.367 133.4 692.627 133.513 692.854 133.74C693.081 133.967 693.194 134.253 693.194 134.6C693.194 134.907 693.094 135.173 692.894 135.4C692.694 135.613 692.441 135.72 692.134 135.72ZM698.366 134.3V137.2H700.086V137.8H698.366V144.16C698.366 144.573 698.439 144.893 698.586 145.12C698.732 145.333 699.006 145.44 699.406 145.44C699.646 145.44 699.886 145.327 700.126 145.1C700.379 144.86 700.552 144.533 700.646 144.12L701.126 144.36C700.846 145.587 700.046 146.2 698.726 146.2C697.206 146.2 696.446 145.467 696.446 144V137.8H695.046V137.2C695.672 137.2 696.239 136.94 696.746 136.42C697.252 135.9 697.506 135.193 697.506 134.3H698.366ZM701.846 146V145.58C702.566 145.58 702.986 145.447 703.106 145.18V134.82C702.279 134.753 701.859 134.72 701.846 134.72V134.26C702.099 134.26 702.592 134.12 703.326 133.84C704.072 133.547 704.599 133.4 704.906 133.4V137.92C705.626 137.307 706.419 137 707.286 137C708.552 137 709.452 137.207 709.986 137.62C710.532 138.033 710.806 138.747 710.806 139.76V145.18C710.926 145.447 711.346 145.58 712.066 145.58V146H707.746V145.58C708.466 145.58 708.886 145.447 709.006 145.18V139.62C709.006 138.327 708.392 137.68 707.166 137.68C706.326 137.68 705.572 137.973 704.906 138.56V145.18C705.026 145.447 705.446 145.58 706.166 145.58V146H701.846ZM714.442 146.12C714.149 146.12 713.902 146.033 713.702 145.86C713.515 145.687 713.422 145.447 713.422 145.14C713.422 144.78 713.549 144.5 713.802 144.3C714.055 144.1 714.309 144 714.562 144C715.042 144 715.429 144.213 715.722 144.64C716.029 145.053 716.182 145.547 716.182 146.12C716.182 147.24 715.355 148.06 713.702 148.58V148.02C714.035 147.98 714.375 147.793 714.722 147.46C715.082 147.14 715.262 146.773 715.262 146.36C715.262 146.12 715.249 145.98 715.222 145.94C715.195 145.887 715.142 145.86 715.062 145.86C715.022 145.86 714.942 145.907 714.822 146C714.715 146.08 714.589 146.12 714.442 146.12ZM725.776 140.2V145.32H727.476C729.343 145.32 730.276 144.413 730.276 142.6C730.276 141.973 730.043 141.42 729.576 140.94C729.109 140.447 728.329 140.2 727.236 140.2H725.776ZM725.776 134.98V139.62H726.596C728.463 139.62 729.396 138.773 729.396 137.08C729.396 135.68 728.383 134.98 726.356 134.98H725.776ZM722.676 146V145.58C723.396 145.58 723.816 145.447 723.936 145.18V135.12C723.816 134.853 723.396 134.72 722.676 134.72V134.3H726.356C728.023 134.3 729.276 134.573 730.116 135.12C730.969 135.667 731.396 136.313 731.396 137.06C731.396 138.42 730.689 139.34 729.276 139.82C730.276 140.047 731.023 140.42 731.516 140.94C732.023 141.447 732.276 141.993 732.276 142.58C732.276 143.593 731.869 144.42 731.056 145.06C730.256 145.687 729.063 146 727.476 146H722.676ZM733.692 146V145.58C734.412 145.58 734.832 145.447 734.952 145.18V135.12C734.832 134.853 734.412 134.72 733.692 134.72V134.3H736.612L740.872 143.6L745.132 134.3H748.092V134.72C747.372 134.72 746.952 134.853 746.832 135.12V145.18C746.952 145.447 747.372 145.58 748.092 145.58V146H743.732V145.58C744.452 145.58 744.872 145.447 744.992 145.18V136.2L740.512 146H740.212L735.632 136.08V145.18C735.752 145.447 736.172 145.58 736.892 145.58V146H733.692ZM749.766 146V145.58C750.486 145.58 750.906 145.447 751.026 145.18V135.12C750.906 134.853 750.486 134.72 749.766 134.72V134.3H754.126V134.72C753.406 134.72 752.986 134.853 752.866 135.12V145.18C752.986 145.447 753.406 145.58 754.126 145.58V146H749.766ZM756.561 139.24C756.321 138.987 756.201 138.7 756.201 138.38C756.201 138.06 756.308 137.773 756.521 137.52C756.748 137.253 757.034 137.12 757.381 137.12C757.688 137.12 757.968 137.24 758.221 137.48C758.474 137.72 758.601 138 758.601 138.32C758.601 138.64 758.488 138.933 758.261 139.2C758.034 139.467 757.748 139.6 757.401 139.6C757.094 139.6 756.814 139.48 756.561 139.24ZM756.561 145.84C756.321 145.587 756.201 145.3 756.201 144.98C756.201 144.66 756.308 144.373 756.521 144.12C756.748 143.853 757.034 143.72 757.381 143.72C757.688 143.72 757.968 143.84 758.221 144.08C758.474 144.32 758.601 144.6 758.601 144.92C758.601 145.24 758.488 145.533 758.261 145.8C758.034 146.067 757.748 146.2 757.401 146.2C757.094 146.2 756.814 146.08 756.561 145.84ZM768.888 140.18C768.795 140.18 768.708 140.153 768.628 140.1C768.548 140.047 768.508 139.987 768.508 139.92C768.508 139.867 768.555 139.82 768.648 139.78C769.342 139.567 769.942 139.247 770.448 138.82C770.968 138.38 771.228 137.8 771.228 137.08C771.228 136.533 771.042 136.1 770.668 135.78C770.295 135.46 769.768 135.3 769.088 135.3C768.542 135.3 768.075 135.38 767.688 135.54C767.302 135.7 767.035 135.88 766.888 136.08C766.755 136.28 766.635 136.46 766.528 136.62C766.435 136.78 766.362 136.86 766.308 136.86C766.202 136.86 766.148 136.793 766.148 136.66C766.148 136.513 766.208 136.313 766.328 136.06C766.448 135.807 766.622 135.527 766.848 135.22C767.088 134.913 767.422 134.653 767.848 134.44C768.288 134.213 768.775 134.1 769.308 134.1C770.588 134.1 771.515 134.327 772.088 134.78C772.662 135.233 772.948 135.913 772.948 136.82C772.948 137.78 772.302 138.633 771.008 139.38C771.662 139.54 772.235 139.947 772.728 140.6C773.235 141.24 773.488 141.893 773.488 142.56C773.488 143.08 773.428 143.547 773.308 143.96C773.202 144.36 773.002 144.74 772.708 145.1C772.428 145.447 772.002 145.72 771.428 145.92C770.868 146.107 770.182 146.2 769.368 146.2C768.822 146.2 768.302 146.133 767.808 146C767.315 145.867 766.915 145.707 766.608 145.52C766.302 145.333 766.055 145.153 765.868 144.98C765.695 144.793 765.608 144.653 765.608 144.56C765.608 144.16 765.655 143.88 765.748 143.72C765.855 143.56 766.048 143.48 766.328 143.48C766.462 143.48 766.575 143.553 766.668 143.7C766.762 143.847 766.855 144.027 766.948 144.24C767.042 144.44 767.162 144.647 767.308 144.86C767.455 145.06 767.695 145.233 768.028 145.38C768.362 145.527 768.768 145.6 769.248 145.6C770.968 145.6 771.828 144.72 771.828 142.96C771.828 142.613 771.775 142.233 771.668 141.82C771.562 141.407 771.348 141.013 771.028 140.64C770.708 140.267 770.322 140.08 769.868 140.08C769.708 140.08 769.535 140.1 769.348 140.14C769.175 140.167 769.022 140.18 768.888 140.18ZM777.613 136.38C777.16 137.473 776.933 138.733 776.933 140.16C776.933 141.587 777.16 142.847 777.613 143.94C778.08 145.033 778.66 145.58 779.353 145.58C780.046 145.58 780.62 145.033 781.073 143.94C781.54 142.847 781.773 141.587 781.773 140.16C781.773 138.733 781.54 137.473 781.073 136.38C780.62 135.273 780.046 134.72 779.353 134.72C778.66 134.72 778.08 135.273 777.613 136.38ZM776.253 144.46C775.506 143.287 775.133 141.853 775.133 140.16C775.133 138.467 775.506 137.033 776.253 135.86C777.013 134.687 778.046 134.1 779.353 134.1C780.66 134.1 781.686 134.687 782.433 135.86C783.193 137.033 783.573 138.467 783.573 140.16C783.573 141.853 783.193 143.287 782.433 144.46C781.686 145.62 780.66 146.2 779.353 146.2C778.046 146.2 777.013 145.62 776.253 144.46ZM786.063 146.12C785.77 146.12 785.523 146.033 785.323 145.86C785.136 145.687 785.043 145.447 785.043 145.14C785.043 144.78 785.17 144.5 785.423 144.3C785.676 144.1 785.93 144 786.183 144C786.663 144 787.05 144.213 787.343 144.64C787.65 145.053 787.803 145.547 787.803 146.12C787.803 147.24 786.976 148.06 785.323 148.58V148.02C785.656 147.98 785.996 147.793 786.343 147.46C786.703 147.14 786.883 146.773 786.883 146.36C786.883 146.12 786.87 145.98 786.843 145.94C786.816 145.887 786.763 145.86 786.683 145.86C786.643 145.86 786.563 145.907 786.443 146C786.336 146.08 786.21 146.12 786.063 146.12ZM800.177 146V145.58C800.79 145.58 801.177 145.5 801.337 145.34L800.217 142.28H796.377L795.337 145.22C795.47 145.46 795.884 145.58 796.577 145.58V146H793.297V145.58C794.044 145.58 794.464 145.44 794.557 145.16L798.437 134.3H799.397L803.277 145.16C803.37 145.44 803.797 145.58 804.557 145.58V146H800.177ZM798.277 136.96L796.617 141.62H799.977L798.277 136.96ZM807.296 137.2V137.62C806.909 137.62 806.629 137.647 806.456 137.7L808.836 143.56L811.116 137.84C810.929 137.693 810.556 137.62 809.996 137.62V137.2H813.276V137.62C812.542 137.62 812.129 137.747 812.036 138L808.836 146H807.856L804.676 138.02C804.556 137.753 804.136 137.62 803.416 137.62V137.2H807.296ZM822.028 137V145.42C822.028 146.793 821.695 147.9 821.028 148.74C820.375 149.58 819.415 150 818.148 150C817.015 150 816.102 149.807 815.408 149.42C814.728 149.033 814.388 148.627 814.388 148.2C814.388 147.893 814.468 147.647 814.628 147.46C814.788 147.287 814.995 147.2 815.248 147.2C815.488 147.2 815.695 147.26 815.868 147.38C816.055 147.5 816.148 147.673 816.148 147.9C816.148 148.327 815.982 148.607 815.648 148.74C816.008 149.1 816.775 149.28 817.948 149.28C819.322 149.28 820.075 148.053 820.208 145.6C819.595 146 818.808 146.2 817.848 146.2C817.408 146.2 816.968 146.133 816.528 146C816.102 145.853 815.668 145.62 815.228 145.3C814.802 144.98 814.448 144.507 814.168 143.88C813.902 143.24 813.768 142.493 813.768 141.64C813.768 140.147 814.182 139 815.008 138.2C815.848 137.4 816.942 137 818.288 137C819.128 137 819.862 137.213 820.488 137.64C821.168 137.213 821.682 137 822.028 137ZM820.228 144.94V144.7V138.1C819.748 137.82 819.142 137.68 818.408 137.68C817.675 137.68 817.035 138.033 816.488 138.74C815.942 139.433 815.668 140.4 815.668 141.64C815.668 142.813 815.888 143.753 816.328 144.46C816.768 145.167 817.342 145.52 818.048 145.52C818.928 145.52 819.655 145.327 820.228 144.94ZM829.024 146V145.58C829.744 145.58 830.164 145.447 830.284 145.18V135.12C830.164 134.853 829.744 134.72 829.024 134.72V134.3H833.384V134.72C832.664 134.72 832.244 134.853 832.124 135.12V139.58H837.244V135.12C837.124 134.853 836.704 134.72 835.984 134.72V134.3H840.344V134.72C839.624 134.72 839.204 134.853 839.084 135.12V145.18C839.204 145.447 839.624 145.58 840.344 145.58V146H835.984V145.58C836.704 145.58 837.124 145.447 837.244 145.18V140.26H832.124V145.18C832.244 145.447 832.664 145.58 833.384 145.58V146H829.024ZM842.031 146V145.58C842.751 145.58 843.171 145.447 843.291 145.18V135.12C843.171 134.853 842.751 134.72 842.031 134.72V134.3H846.551C848.205 134.3 849.458 134.6 850.311 135.2C851.165 135.8 851.591 136.487 851.591 137.26C851.591 137.993 851.371 138.64 850.931 139.2C850.491 139.747 849.838 140.147 848.971 140.4L851.631 145.16C851.765 145.44 852.205 145.58 852.951 145.58V146H852.091C851.158 146 850.551 145.947 850.271 145.84C849.991 145.733 849.711 145.44 849.431 144.96L847.011 140.68H845.131V145.18C845.251 145.447 845.671 145.58 846.391 145.58V146H842.031ZM845.131 134.98V140H846.791C847.858 140 848.591 139.793 848.991 139.38C849.391 138.967 849.591 138.267 849.591 137.28C849.591 136.547 849.365 135.98 848.911 135.58C848.471 135.18 847.685 134.98 846.551 134.98H845.131ZM854.413 139.24C854.173 138.987 854.053 138.7 854.053 138.38C854.053 138.06 854.159 137.773 854.373 137.52C854.599 137.253 854.886 137.12 855.233 137.12C855.539 137.12 855.819 137.24 856.073 137.48C856.326 137.72 856.453 138 856.453 138.32C856.453 138.64 856.339 138.933 856.113 139.2C855.886 139.467 855.599 139.6 855.253 139.6C854.946 139.6 854.666 139.48 854.413 139.24ZM854.413 145.84C854.173 145.587 854.053 145.3 854.053 144.98C854.053 144.66 854.159 144.373 854.373 144.12C854.599 143.853 854.886 143.72 855.233 143.72C855.539 143.72 855.819 143.84 856.073 144.08C856.326 144.32 856.453 144.6 856.453 144.92C856.453 145.24 856.339 145.533 856.113 145.8C855.886 146.067 855.599 146.2 855.253 146.2C854.946 146.2 854.666 146.08 854.413 145.84ZM868 139.52C869.12 138.907 869.68 137.967 869.68 136.7C869.68 136.073 869.5 135.593 869.14 135.26C868.78 134.913 868.333 134.74 867.8 134.74C866.333 134.74 865.6 135.44 865.6 136.84C865.6 137.133 865.727 137.447 865.98 137.78C866.233 138.1 866.493 138.373 866.76 138.6C867.04 138.813 867.453 139.12 868 139.52ZM868.62 139.98C869.433 140.593 870.067 141.18 870.52 141.74C870.973 142.287 871.2 142.887 871.2 143.54C871.2 144.3 870.847 144.933 870.14 145.44C869.433 145.947 868.52 146.2 867.4 146.2C866.2 146.2 865.267 145.947 864.6 145.44C863.933 144.92 863.6 144.233 863.6 143.38C863.6 142.007 864.413 140.873 866.04 139.98C864.573 138.833 863.84 137.74 863.84 136.7C863.84 135.967 864.16 135.353 864.8 134.86C865.453 134.353 866.327 134.1 867.42 134.1C868.607 134.1 869.5 134.347 870.1 134.84C870.713 135.32 871.02 135.993 871.02 136.86C871.02 138.127 870.22 139.167 868.62 139.98ZM866.66 140.46C865.513 141.14 864.94 142.167 864.94 143.54C864.94 144.1 865.153 144.58 865.58 144.98C866.007 145.367 866.487 145.56 867.02 145.56C867.78 145.56 868.373 145.367 868.8 144.98C869.227 144.58 869.44 144.053 869.44 143.4C869.44 143.293 869.427 143.187 869.4 143.08C869.373 142.96 869.32 142.847 869.24 142.74C869.173 142.62 869.1 142.513 869.02 142.42C868.953 142.327 868.853 142.22 868.72 142.1C868.6 141.967 868.493 141.86 868.4 141.78C868.307 141.687 868.167 141.573 867.98 141.44C867.807 141.307 867.667 141.207 867.56 141.14C867.467 141.06 867.313 140.947 867.1 140.8C866.9 140.64 866.753 140.527 866.66 140.46ZM878.745 134.3V144.78C878.745 145.06 879.011 145.267 879.545 145.4C880.078 145.52 880.631 145.58 881.205 145.58V146H874.445V145.58C875.018 145.58 875.571 145.52 876.105 145.4C876.638 145.267 876.905 145.06 876.905 144.78V137.12C876.345 137.453 875.638 137.94 874.785 138.58L874.645 138.24L878.205 134.3H878.745ZM884.129 146.12C883.836 146.12 883.589 146.033 883.389 145.86C883.203 145.687 883.109 145.447 883.109 145.14C883.109 144.78 883.236 144.5 883.489 144.3C883.743 144.1 883.996 144 884.249 144C884.729 144 885.116 144.213 885.409 144.64C885.716 145.053 885.869 145.547 885.869 146.12C885.869 147.24 885.043 148.06 883.389 148.58V148.02C883.723 147.98 884.063 147.793 884.409 147.46C884.769 147.14 884.949 146.773 884.949 146.36C884.949 146.12 884.936 145.98 884.909 145.94C884.883 145.887 884.829 145.86 884.749 145.86C884.709 145.86 884.629 145.907 884.509 146C884.403 146.08 884.276 146.12 884.129 146.12ZM892.883 145.84C892.643 145.587 892.523 145.3 892.523 144.98C892.523 144.66 892.63 144.373 892.843 144.12C893.07 143.853 893.357 143.72 893.703 143.72C894.01 143.72 894.29 143.84 894.543 144.08C894.797 144.32 894.923 144.6 894.923 144.92C894.923 145.24 894.81 145.533 894.583 145.8C894.357 146.067 894.07 146.2 893.723 146.2C893.417 146.2 893.137 146.08 892.883 145.84ZM897.278 145.84C897.038 145.587 896.918 145.3 896.918 144.98C896.918 144.66 897.025 144.373 897.238 144.12C897.465 143.853 897.751 143.72 898.098 143.72C898.405 143.72 898.685 143.84 898.938 144.08C899.191 144.32 899.318 144.6 899.318 144.92C899.318 145.24 899.205 145.533 898.978 145.8C898.751 146.067 898.465 146.2 898.118 146.2C897.811 146.2 897.531 146.08 897.278 145.84ZM901.673 145.84C901.433 145.587 901.313 145.3 901.313 144.98C901.313 144.66 901.419 144.373 901.632 144.12C901.859 143.853 902.146 143.72 902.493 143.72C902.799 143.72 903.079 143.84 903.333 144.08C903.586 144.32 903.713 144.6 903.713 144.92C903.713 145.24 903.599 145.533 903.373 145.8C903.146 146.067 902.859 146.2 902.513 146.2C902.206 146.2 901.926 146.08 901.673 145.84Z" fill="#E85A4F"/>
<path d="M565.84 117V116.58C566.56 116.58 566.98 116.447 567.1 116.18V106.12C566.98 105.853 566.56 105.72 565.84 105.72V105.3H570.2V105.72C569.48 105.72 569.06 105.853 568.94 106.12V110.58H574.06V106.12C573.94 105.853 573.52 105.72 572.8 105.72V105.3H577.16V105.72C576.44 105.72 576.02 105.853 575.9 106.12V116.18C576.02 116.447 576.44 116.58 577.16 116.58V117H572.8V116.58C573.52 116.58 573.94 116.447 574.06 116.18V111.26H568.94V116.18C569.06 116.447 569.48 116.58 570.2 116.58V117H565.84ZM580.376 112.04C580.376 113.56 580.662 114.7 581.236 115.46C581.822 116.22 582.569 116.6 583.476 116.6C584.196 116.6 584.776 116.28 585.216 115.64C585.656 114.987 585.876 114.153 585.876 113.14C585.876 110.127 584.829 108.62 582.736 108.62C582.029 108.62 581.456 108.96 581.016 109.64C580.589 110.307 580.376 111.107 580.376 112.04ZM583.216 117.2C581.722 117.2 580.556 116.767 579.716 115.9C578.876 115.02 578.456 113.867 578.456 112.44C578.456 111.147 578.836 110.087 579.596 109.26C580.356 108.42 581.516 108 583.076 108C584.649 108 585.829 108.42 586.616 109.26C587.402 110.087 587.796 111.227 587.796 112.68C587.796 113.973 587.416 115.053 586.656 115.92C585.909 116.773 584.762 117.2 583.216 117.2ZM592.714 116.6C593.088 116.6 593.494 116.48 593.934 116.24C594.388 116 594.614 115.64 594.614 115.16C594.614 114.387 593.821 113.72 592.234 113.16C591.848 113.027 591.528 112.9 591.274 112.78C591.034 112.66 590.768 112.493 590.474 112.28C590.181 112.067 589.961 111.807 589.814 111.5C589.668 111.193 589.594 110.833 589.594 110.42C589.594 109.673 589.868 109.087 590.414 108.66C590.961 108.22 591.621 108 592.394 108C592.848 108 593.308 108.1 593.774 108.3C594.254 108.5 594.528 108.6 594.594 108.6C594.754 108.6 594.834 108.467 594.834 108.2H595.294V110.6H594.854C594.774 110.04 594.501 109.567 594.034 109.18C593.581 108.793 593.054 108.6 592.454 108.6C592.028 108.6 591.668 108.7 591.374 108.9C591.094 109.1 590.954 109.373 590.954 109.72C590.954 109.92 590.994 110.107 591.074 110.28C591.154 110.44 591.234 110.573 591.314 110.68C591.394 110.773 591.541 110.88 591.754 111C591.981 111.12 592.148 111.207 592.254 111.26C592.374 111.3 592.581 111.373 592.874 111.48C593.181 111.587 593.388 111.66 593.494 111.7C594.188 111.967 594.781 112.347 595.274 112.84C595.768 113.32 596.014 113.88 596.014 114.52C596.014 115.333 595.688 115.987 595.034 116.48C594.381 116.96 593.554 117.2 592.554 117.2C592.074 117.2 591.608 117.087 591.154 116.86C590.701 116.633 590.448 116.52 590.394 116.52C590.314 116.52 590.221 116.573 590.114 116.68C590.008 116.787 589.954 116.893 589.954 117H589.474V114.18H589.914C590.008 114.86 590.321 115.433 590.854 115.9C591.401 116.367 592.021 116.6 592.714 116.6ZM597.12 120.84V120.42C597.84 120.42 598.26 120.287 598.38 120.02V109.42C598.38 109.42 597.96 109.387 597.12 109.32V108.86C597.373 108.86 597.866 108.72 598.6 108.44C599.346 108.147 599.873 108 600.18 108V108.66C600.82 108.22 601.62 108 602.58 108C603.02 108 603.453 108.08 603.88 108.24C604.32 108.387 604.753 108.627 605.18 108.96C605.62 109.28 605.973 109.76 606.24 110.4C606.52 111.04 606.66 111.787 606.66 112.64C606.66 114.12 606.246 115.253 605.42 116.04C604.593 116.813 603.5 117.2 602.14 117.2C601.366 117.2 600.713 117.053 600.18 116.76V120.02C600.3 120.287 600.72 120.42 601.44 120.42V120.84H597.12ZM600.18 116.12C600.686 116.387 601.3 116.52 602.02 116.52C602.753 116.52 603.393 116.18 603.94 115.5C604.486 114.82 604.76 113.867 604.76 112.64C604.76 111.827 604.52 110.967 604.04 110.06C603.573 109.14 603.02 108.68 602.38 108.68C601.46 108.68 600.726 108.893 600.18 109.32V116.12ZM608.061 117V116.58C608.781 116.58 609.201 116.447 609.321 116.18V109.42C608.495 109.353 608.075 109.32 608.061 109.32V108.86C608.315 108.86 608.808 108.72 609.541 108.44C610.288 108.147 610.815 108 611.121 108V116.18C611.241 116.447 611.661 116.58 612.381 116.58V117H608.061ZM610.161 106.72C609.868 106.72 609.608 106.613 609.381 106.4C609.168 106.173 609.061 105.887 609.061 105.54C609.061 105.233 609.155 104.967 609.341 104.74C609.541 104.513 609.795 104.4 610.101 104.4C610.395 104.4 610.655 104.513 610.881 104.74C611.108 104.967 611.221 105.253 611.221 105.6C611.221 105.907 611.121 106.173 610.921 106.4C610.721 106.613 610.468 106.72 610.161 106.72ZM616.393 105.3V108.2H618.113V108.8H616.393V115.16C616.393 115.573 616.466 115.893 616.613 116.12C616.76 116.333 617.033 116.44 617.433 116.44C617.673 116.44 617.913 116.327 618.153 116.1C618.406 115.86 618.58 115.533 618.673 115.12L619.153 115.36C618.873 116.587 618.073 117.2 616.753 117.2C615.233 117.2 614.473 116.467 614.473 115V108.8H613.073V108.2C613.7 108.2 614.266 107.94 614.773 107.42C615.28 106.9 615.533 106.193 615.533 105.3H616.393ZM621.693 109.68C621.88 109.68 622.04 109.747 622.173 109.88C622.32 110.013 622.393 110.22 622.393 110.5C622.393 110.727 622.3 110.9 622.113 111.02C621.94 111.14 621.733 111.2 621.493 111.2C621.24 111.2 621.033 111.113 620.873 110.94C620.713 110.753 620.633 110.507 620.633 110.2C620.633 109.507 620.92 108.967 621.493 108.58C622.066 108.193 622.88 108 623.933 108C625.173 108 626.08 108.307 626.653 108.92C627.24 109.533 627.533 110.347 627.533 111.36V115.32C627.533 115.747 627.6 116.06 627.733 116.26C627.88 116.46 628.053 116.56 628.253 116.56C628.426 116.56 628.58 116.513 628.713 116.42C628.86 116.327 628.933 116.213 628.933 116.08H629.293C629.293 116.453 629.153 116.727 628.873 116.9C628.606 117.073 628.133 117.16 627.453 117.16C626.786 117.16 626.313 116.887 626.033 116.34C625.246 116.913 624.266 117.2 623.093 117.2C621.093 117.2 620.093 116.387 620.093 114.76C620.093 114.413 620.213 114.1 620.453 113.82C620.706 113.54 621.066 113.307 621.533 113.12C622 112.933 622.44 112.787 622.853 112.68C623.266 112.56 623.78 112.433 624.393 112.3C625.02 112.153 625.466 112.04 625.733 111.96C625.733 110.84 625.586 110.02 625.293 109.5C625 108.98 624.48 108.72 623.733 108.72C622.533 108.72 621.853 109.04 621.693 109.68ZM625.853 115.84C625.773 115.547 625.733 115.187 625.733 114.76V112.4C625.586 112.453 625.333 112.527 624.973 112.62C624.626 112.713 624.34 112.793 624.113 112.86C623.9 112.927 623.64 113.027 623.333 113.16C623.026 113.293 622.786 113.427 622.613 113.56C622.44 113.693 622.286 113.873 622.153 114.1C622.02 114.313 621.953 114.547 621.953 114.8C621.953 115.44 622.073 115.887 622.313 116.14C622.566 116.393 622.94 116.52 623.433 116.52C624.313 116.52 625.12 116.293 625.853 115.84ZM629.541 117V116.58C630.261 116.58 630.681 116.447 630.801 116.18V105.82C629.974 105.753 629.554 105.72 629.541 105.72V105.26C629.794 105.26 630.288 105.12 631.021 104.84C631.768 104.547 632.294 104.4 632.601 104.4V116.18C632.721 116.447 633.141 116.58 633.861 116.58V117H629.541ZM643.582 105.3V105.72C642.955 105.72 642.569 105.8 642.422 105.96L644.602 109.78L646.982 106.04C646.849 105.827 646.442 105.72 645.762 105.72V105.3H649.042V105.72C648.389 105.72 647.989 105.833 647.842 106.06L645.002 110.48L648.262 116.16C648.409 116.44 648.835 116.58 649.542 116.58V117H645.162V116.58C645.789 116.58 646.175 116.5 646.322 116.34L643.942 112.16L641.302 116.26C641.435 116.473 641.842 116.58 642.522 116.58V117H639.242V116.58C639.909 116.58 640.335 116.433 640.522 116.14L643.522 111.46L640.482 106.12C640.335 105.853 639.909 105.72 639.202 105.72V105.3H643.582ZM651.053 110.24C650.813 109.987 650.693 109.7 650.693 109.38C650.693 109.06 650.8 108.773 651.013 108.52C651.24 108.253 651.526 108.12 651.873 108.12C652.18 108.12 652.46 108.24 652.713 108.48C652.966 108.72 653.093 109 653.093 109.32C653.093 109.64 652.98 109.933 652.753 110.2C652.526 110.467 652.24 110.6 651.893 110.6C651.586 110.6 651.306 110.48 651.053 110.24ZM651.053 116.84C650.813 116.587 650.693 116.3 650.693 115.98C650.693 115.66 650.8 115.373 651.013 115.12C651.24 114.853 651.526 114.72 651.873 114.72C652.18 114.72 652.46 114.84 652.713 115.08C652.966 115.32 653.093 115.6 653.093 115.92C653.093 116.24 652.98 116.533 652.753 116.8C652.526 117.067 652.24 117.2 651.893 117.2C651.586 117.2 651.306 117.08 651.053 116.84ZM659.981 117V116.58C660.701 116.58 661.121 116.447 661.241 116.18V106.12C661.121 105.853 660.701 105.72 659.981 105.72V105.3H664.581C666.354 105.3 667.781 105.84 668.861 106.92C669.941 107.987 670.481 109.387 670.481 111.12C670.481 112.853 669.954 114.267 668.901 115.36C667.847 116.453 666.487 117 664.821 117H659.981ZM663.081 105.88V116.32H664.821C665.247 116.32 665.661 116.227 666.061 116.04C666.474 115.84 666.867 115.547 667.241 115.16C667.614 114.773 667.914 114.233 668.141 113.54C668.367 112.847 668.481 112.047 668.481 111.14C668.481 109.407 668.087 108.1 667.301 107.22C666.527 106.327 665.621 105.88 664.581 105.88H663.081ZM674.067 112.04C674.067 113.56 674.354 114.7 674.927 115.46C675.514 116.22 676.261 116.6 677.167 116.6C677.887 116.6 678.467 116.28 678.907 115.64C679.347 114.987 679.567 114.153 679.567 113.14C679.567 110.127 678.521 108.62 676.427 108.62C675.721 108.62 675.147 108.96 674.707 109.64C674.281 110.307 674.067 111.107 674.067 112.04ZM676.907 117.2C675.414 117.2 674.247 116.767 673.407 115.9C672.567 115.02 672.147 113.867 672.147 112.44C672.147 111.147 672.527 110.087 673.287 109.26C674.047 108.42 675.207 108 676.767 108C678.341 108 679.521 108.42 680.307 109.26C681.094 110.087 681.487 111.227 681.487 112.68C681.487 113.973 681.107 115.053 680.347 115.92C679.601 116.773 678.454 117.2 676.907 117.2ZM682.886 117V116.58C683.606 116.58 684.026 116.447 684.146 116.18V109.42C683.319 109.353 682.899 109.32 682.886 109.32V108.86C683.139 108.86 683.632 108.72 684.366 108.44C685.112 108.147 685.639 108 685.946 108V108.92C686.666 108.307 687.459 108 688.326 108C689.566 108 690.459 108.233 691.006 108.7C691.566 109.153 691.846 109.867 691.846 110.84V116.18C691.966 116.447 692.386 116.58 693.106 116.58V117H688.786V116.58C689.506 116.58 689.926 116.447 690.046 116.18V110.7C690.046 109.353 689.432 108.68 688.206 108.68C687.366 108.68 686.612 108.973 685.946 109.56V116.18C686.066 116.447 686.486 116.58 687.206 116.58V117H682.886ZM696.039 112.18C696.053 113.3 696.373 114.293 696.999 115.16C697.639 116.013 698.353 116.44 699.139 116.44C700.299 116.44 701.233 116 701.939 115.12L702.419 115.36C702.033 116 701.526 116.467 700.899 116.76C700.286 117.053 699.473 117.2 698.459 117.2C697.953 117.2 697.466 117.127 696.999 116.98C696.533 116.82 696.073 116.567 695.619 116.22C695.166 115.86 694.806 115.333 694.539 114.64C694.273 113.947 694.139 113.12 694.139 112.16C694.139 110.987 694.499 110 695.219 109.2C695.953 108.4 696.966 108 698.259 108C699.673 108 700.726 108.4 701.419 109.2C702.113 109.987 702.459 110.98 702.459 112.18H696.039ZM696.059 111.56H700.499C700.419 110.6 700.213 109.867 699.879 109.36C699.559 108.853 698.993 108.6 698.179 108.6C697.713 108.6 697.259 108.873 696.819 109.42C696.393 109.967 696.139 110.68 696.059 111.56ZM710.727 112.04C710.727 113.56 711.014 114.7 711.587 115.46C712.174 116.22 712.921 116.6 713.827 116.6C714.547 116.6 715.127 116.28 715.567 115.64C716.007 114.987 716.227 114.153 716.227 113.14C716.227 110.127 715.181 108.62 713.087 108.62C712.381 108.62 711.807 108.96 711.367 109.64C710.941 110.307 710.727 111.107 710.727 112.04ZM713.567 117.2C712.074 117.2 710.907 116.767 710.067 115.9C709.227 115.02 708.807 113.867 708.807 112.44C708.807 111.147 709.187 110.087 709.947 109.26C710.707 108.42 711.867 108 713.427 108C715.001 108 716.181 108.42 716.967 109.26C717.754 110.087 718.147 111.227 718.147 112.68C718.147 113.973 717.767 115.053 717.007 115.92C716.261 116.773 715.114 117.2 713.567 117.2ZM719.546 117V116.58C720.266 116.58 720.686 116.447 720.806 116.18V109.42C719.979 109.353 719.559 109.32 719.546 109.32V108.86C719.799 108.86 720.292 108.72 721.026 108.44C721.772 108.147 722.299 108 722.606 108V108.92C723.326 108.307 724.119 108 724.986 108C726.226 108 727.119 108.233 727.666 108.7C728.226 109.153 728.506 109.867 728.506 110.84V116.18C728.626 116.447 729.046 116.58 729.766 116.58V117H725.446V116.58C726.166 116.58 726.586 116.447 726.706 116.18V110.7C726.706 109.353 726.092 108.68 724.866 108.68C724.026 108.68 723.272 108.973 722.606 109.56V116.18C722.726 116.447 723.146 116.58 723.866 116.58V117H719.546ZM737.142 109.68C737.329 109.68 737.489 109.747 737.622 109.88C737.769 110.013 737.842 110.22 737.842 110.5C737.842 110.727 737.749 110.9 737.562 111.02C737.389 111.14 737.182 111.2 736.942 111.2C736.689 111.2 736.482 111.113 736.322 110.94C736.162 110.753 736.082 110.507 736.082 110.2C736.082 109.507 736.369 108.967 736.942 108.58C737.516 108.193 738.329 108 739.382 108C740.622 108 741.529 108.307 742.102 108.92C742.689 109.533 742.982 110.347 742.982 111.36V115.32C742.982 115.747 743.049 116.06 743.182 116.26C743.329 116.46 743.502 116.56 743.702 116.56C743.876 116.56 744.029 116.513 744.162 116.42C744.309 116.327 744.382 116.213 744.382 116.08H744.742C744.742 116.453 744.602 116.727 744.322 116.9C744.056 117.073 743.582 117.16 742.902 117.16C742.236 117.16 741.762 116.887 741.482 116.34C740.696 116.913 739.716 117.2 738.542 117.2C736.542 117.2 735.542 116.387 735.542 114.76C735.542 114.413 735.662 114.1 735.902 113.82C736.156 113.54 736.516 113.307 736.982 113.12C737.449 112.933 737.889 112.787 738.302 112.68C738.716 112.56 739.229 112.433 739.842 112.3C740.469 112.153 740.916 112.04 741.182 111.96C741.182 110.84 741.036 110.02 740.742 109.5C740.449 108.98 739.929 108.72 739.182 108.72C737.982 108.72 737.302 109.04 737.142 109.68ZM741.302 115.84C741.222 115.547 741.182 115.187 741.182 114.76V112.4C741.036 112.453 740.782 112.527 740.422 112.62C740.076 112.713 739.789 112.793 739.562 112.86C739.349 112.927 739.089 113.027 738.782 113.16C738.476 113.293 738.236 113.427 738.062 113.56C737.889 113.693 737.736 113.873 737.602 114.1C737.469 114.313 737.402 114.547 737.402 114.8C737.402 115.44 737.522 115.887 737.762 116.14C738.016 116.393 738.389 116.52 738.882 116.52C739.762 116.52 740.569 116.293 741.302 115.84ZM744.99 117V116.58C745.71 116.58 746.13 116.447 746.25 116.18V105.82C745.424 105.753 745.004 105.72 744.99 105.72V105.26C745.244 105.26 745.737 105.12 746.47 104.84C747.217 104.547 747.744 104.4 748.05 104.4V116.18C748.17 116.447 748.59 116.58 749.31 116.58V117H744.99ZM750.147 117V116.58C750.867 116.58 751.287 116.447 751.407 116.18V105.82C750.58 105.753 750.16 105.72 750.147 105.72V105.26C750.4 105.26 750.893 105.12 751.627 104.84C752.373 104.547 752.9 104.4 753.207 104.4V116.18C753.327 116.447 753.747 116.58 754.467 116.58V117H750.147ZM760.528 117V116.58C761.248 116.58 761.668 116.447 761.788 116.18V106.12C761.668 105.853 761.248 105.72 760.528 105.72V105.3H763.208L769.828 113.48V106.12C769.708 105.853 769.288 105.72 768.568 105.72V105.3H771.768V105.72C771.048 105.72 770.628 105.853 770.508 106.12V117H770.328L762.468 107.06V116.18C762.588 116.447 763.008 116.58 763.728 116.58V117H760.528ZM774.79 112.04C774.79 113.56 775.077 114.7 775.65 115.46C776.237 116.22 776.983 116.6 777.89 116.6C778.61 116.6 779.19 116.28 779.63 115.64C780.07 114.987 780.29 114.153 780.29 113.14C780.29 110.127 779.243 108.62 777.15 108.62C776.443 108.62 775.87 108.96 775.43 109.64C775.003 110.307 774.79 111.107 774.79 112.04ZM777.63 117.2C776.137 117.2 774.97 116.767 774.13 115.9C773.29 115.02 772.87 113.867 772.87 112.44C772.87 111.147 773.25 110.087 774.01 109.26C774.77 108.42 775.93 108 777.49 108C779.063 108 780.243 108.42 781.03 109.26C781.817 110.087 782.21 111.227 782.21 112.68C782.21 113.973 781.83 115.053 781.07 115.92C780.323 116.773 779.177 117.2 777.63 117.2ZM790.248 108.4V105.82C790.248 105.82 789.828 105.787 788.988 105.72V105.26C789.242 105.26 789.735 105.12 790.468 104.84C791.215 104.547 791.742 104.4 792.048 104.4V115.78L793.308 115.88V116.34C793.055 116.34 792.555 116.487 791.808 116.78C791.075 117.06 790.555 117.2 790.248 117.2V116.54C789.608 116.98 788.808 117.2 787.848 117.2C787.408 117.2 786.968 117.127 786.528 116.98C786.102 116.82 785.668 116.58 785.228 116.26C784.802 115.927 784.448 115.44 784.168 114.8C783.902 114.16 783.768 113.413 783.768 112.56C783.768 111.067 784.182 109.92 785.008 109.12C785.848 108.32 786.942 107.92 788.288 107.92C789.048 107.92 789.702 108.08 790.248 108.4ZM790.248 109.02C789.768 108.74 789.155 108.6 788.408 108.6C787.675 108.6 787.035 108.953 786.488 109.66C785.942 110.367 785.668 111.333 785.668 112.56C785.668 113.373 785.902 114.24 786.368 115.16C786.848 116.067 787.408 116.52 788.048 116.52C788.928 116.52 789.662 116.307 790.248 115.88V109.02ZM796.41 112.18C796.424 113.3 796.744 114.293 797.37 115.16C798.01 116.013 798.724 116.44 799.51 116.44C800.67 116.44 801.604 116 802.31 115.12L802.79 115.36C802.404 116 801.897 116.467 801.27 116.76C800.657 117.053 799.844 117.2 798.83 117.2C798.324 117.2 797.837 117.127 797.37 116.98C796.904 116.82 796.444 116.567 795.99 116.22C795.537 115.86 795.177 115.333 794.91 114.64C794.644 113.947 794.51 113.12 794.51 112.16C794.51 110.987 794.87 110 795.59 109.2C796.324 108.4 797.337 108 798.63 108C800.044 108 801.097 108.4 801.79 109.2C802.484 109.987 802.83 110.98 802.83 112.18H796.41ZM796.43 111.56H800.87C800.79 110.6 800.584 109.867 800.25 109.36C799.93 108.853 799.364 108.6 798.55 108.6C798.084 108.6 797.63 108.873 797.19 109.42C796.764 109.967 796.51 110.68 796.43 111.56ZM807.734 116.6C808.107 116.6 808.514 116.48 808.954 116.24C809.407 116 809.634 115.64 809.634 115.16C809.634 114.387 808.84 113.72 807.254 113.16C806.867 113.027 806.547 112.9 806.294 112.78C806.054 112.66 805.787 112.493 805.494 112.28C805.2 112.067 804.98 111.807 804.834 111.5C804.687 111.193 804.614 110.833 804.614 110.42C804.614 109.673 804.887 109.087 805.434 108.66C805.98 108.22 806.64 108 807.414 108C807.867 108 808.327 108.1 808.794 108.3C809.274 108.5 809.547 108.6 809.614 108.6C809.774 108.6 809.854 108.467 809.854 108.2H810.314V110.6H809.874C809.794 110.04 809.52 109.567 809.054 109.18C808.6 108.793 808.074 108.6 807.474 108.6C807.047 108.6 806.687 108.7 806.394 108.9C806.114 109.1 805.974 109.373 805.974 109.72C805.974 109.92 806.014 110.107 806.094 110.28C806.174 110.44 806.254 110.573 806.334 110.68C806.414 110.773 806.56 110.88 806.774 111C807 111.12 807.167 111.207 807.274 111.26C807.394 111.3 807.6 111.373 807.894 111.48C808.2 111.587 808.407 111.66 808.514 111.7C809.207 111.967 809.8 112.347 810.294 112.84C810.787 113.32 811.034 113.88 811.034 114.52C811.034 115.333 810.707 115.987 810.054 116.48C809.4 116.96 808.574 117.2 807.574 117.2C807.094 117.2 806.627 117.087 806.174 116.86C805.72 116.633 805.467 116.52 805.414 116.52C805.334 116.52 805.24 116.573 805.134 116.68C805.027 116.787 804.974 116.893 804.974 117H804.494V114.18H804.934C805.027 114.86 805.34 115.433 805.874 115.9C806.42 116.367 807.04 116.6 807.734 116.6Z" fill="#E85A4F"/>
<path d="M565.84 221V220.58C566.56 220.58 566.98 220.447 567.1 220.18V210.12C566.98 209.853 566.56 209.72 565.84 209.72V209.3H568.52L575.14 217.48V210.12C575.02 209.853 574.6 209.72 573.88 209.72V209.3H577.08V209.72C576.36 209.72 575.94 209.853 575.82 210.12V221H575.64L567.78 211.06V220.18C567.9 220.447 568.32 220.58 569.04 220.58V221H565.84ZM579.701 213.68C579.888 213.68 580.048 213.747 580.181 213.88C580.328 214.013 580.401 214.22 580.401 214.5C580.401 214.727 580.308 214.9 580.121 215.02C579.948 215.14 579.741 215.2 579.501 215.2C579.248 215.2 579.041 215.113 578.881 214.94C578.721 214.753 578.641 214.507 578.641 214.2C578.641 213.507 578.928 212.967 579.501 212.58C580.074 212.193 580.888 212 581.941 212C583.181 212 584.088 212.307 584.661 212.92C585.248 213.533 585.541 214.347 585.541 215.36V219.32C585.541 219.747 585.608 220.06 585.741 220.26C585.888 220.46 586.061 220.56 586.261 220.56C586.434 220.56 586.588 220.513 586.721 220.42C586.868 220.327 586.941 220.213 586.941 220.08H587.301C587.301 220.453 587.161 220.727 586.881 220.9C586.614 221.073 586.141 221.16 585.461 221.16C584.794 221.16 584.321 220.887 584.041 220.34C583.254 220.913 582.274 221.2 581.101 221.2C579.101 221.2 578.101 220.387 578.101 218.76C578.101 218.413 578.221 218.1 578.461 217.82C578.714 217.54 579.074 217.307 579.541 217.12C580.008 216.933 580.448 216.787 580.861 216.68C581.274 216.56 581.788 216.433 582.401 216.3C583.028 216.153 583.474 216.04 583.741 215.96C583.741 214.84 583.594 214.02 583.301 213.5C583.008 212.98 582.488 212.72 581.741 212.72C580.541 212.72 579.861 213.04 579.701 213.68ZM583.861 219.84C583.781 219.547 583.741 219.187 583.741 218.76V216.4C583.594 216.453 583.341 216.527 582.981 216.62C582.634 216.713 582.348 216.793 582.121 216.86C581.908 216.927 581.648 217.027 581.341 217.16C581.034 217.293 580.794 217.427 580.621 217.56C580.448 217.693 580.294 217.873 580.161 218.1C580.028 218.313 579.961 218.547 579.961 218.8C579.961 219.44 580.081 219.887 580.321 220.14C580.574 220.393 580.948 220.52 581.441 220.52C582.321 220.52 583.128 220.293 583.861 219.84ZM587.749 221V220.58C588.469 220.58 588.889 220.447 589.009 220.18V213.42C588.182 213.353 587.762 213.32 587.749 213.32V212.86C588.002 212.86 588.496 212.72 589.229 212.44C589.976 212.147 590.502 212 590.809 212V212.9C591.516 212.3 592.256 212 593.029 212C594.629 212 595.656 212.387 596.109 213.16C596.856 212.387 597.689 212 598.609 212C600.849 212 601.969 212.76 601.969 214.28V220.18C602.089 220.447 602.509 220.58 603.229 220.58V221H598.909V220.58C599.629 220.58 600.049 220.447 600.169 220.18V215.02C600.169 214.153 600.042 213.547 599.789 213.2C599.536 212.853 599.102 212.68 598.489 212.68C597.702 212.68 596.976 213 596.309 213.64C596.362 213.813 596.389 214.027 596.389 214.28V220.18C596.509 220.447 596.929 220.58 597.649 220.58V221H593.329V220.58C594.049 220.58 594.469 220.447 594.589 220.18V215.02C594.589 214.153 594.462 213.547 594.209 213.2C593.956 212.853 593.522 212.68 592.909 212.68C592.149 212.68 591.449 212.973 590.809 213.56V220.18C590.929 220.447 591.349 220.58 592.069 220.58V221H587.749ZM606.196 216.18C606.209 217.3 606.529 218.293 607.156 219.16C607.796 220.013 608.509 220.44 609.296 220.44C610.456 220.44 611.389 220 612.096 219.12L612.576 219.36C612.189 220 611.682 220.467 611.056 220.76C610.442 221.053 609.629 221.2 608.616 221.2C608.109 221.2 607.622 221.127 607.156 220.98C606.689 220.82 606.229 220.567 605.776 220.22C605.322 219.86 604.962 219.333 604.696 218.64C604.429 217.947 604.296 217.12 604.296 216.16C604.296 214.987 604.656 214 605.376 213.2C606.109 212.4 607.122 212 608.416 212C609.829 212 610.882 212.4 611.576 213.2C612.269 213.987 612.616 214.98 612.616 216.18H606.196ZM606.216 215.56H610.656C610.576 214.6 610.369 213.867 610.036 213.36C609.716 212.853 609.149 212.6 608.336 212.6C607.869 212.6 607.416 212.873 606.976 213.42C606.549 213.967 606.296 214.68 606.216 215.56ZM614.979 214.24C614.739 213.987 614.619 213.7 614.619 213.38C614.619 213.06 614.726 212.773 614.939 212.52C615.166 212.253 615.452 212.12 615.799 212.12C616.106 212.12 616.386 212.24 616.639 212.48C616.892 212.72 617.019 213 617.019 213.32C617.019 213.64 616.906 213.933 616.679 214.2C616.452 214.467 616.166 214.6 615.819 214.6C615.512 214.6 615.232 214.48 614.979 214.24ZM614.979 220.84C614.739 220.587 614.619 220.3 614.619 219.98C614.619 219.66 614.726 219.373 614.939 219.12C615.166 218.853 615.452 218.72 615.799 218.72C616.106 218.72 616.386 218.84 616.639 219.08C616.892 219.32 617.019 219.6 617.019 219.92C617.019 220.24 616.906 220.533 616.679 220.8C616.452 221.067 616.166 221.2 615.819 221.2C615.512 221.2 615.232 221.08 614.979 220.84ZM628.046 221.2C627.393 221.2 626.726 221.1 626.046 220.9C625.366 220.7 625.013 220.6 624.986 220.6C624.906 220.6 624.813 220.64 624.706 220.72C624.6 220.8 624.546 220.893 624.546 221H624.086V218.22H624.526C624.673 219.02 625.066 219.607 625.706 219.98C626.36 220.34 627.1 220.52 627.926 220.52C628.633 220.52 629.213 220.36 629.666 220.04C630.12 219.72 630.346 219.24 630.346 218.6C630.346 218.307 630.28 218.04 630.146 217.8C630.026 217.56 629.833 217.34 629.566 217.14C629.313 216.927 629.066 216.753 628.826 216.62C628.586 216.473 628.273 216.3 627.886 216.1C627.513 215.887 627.226 215.72 627.026 215.6C626.56 215.307 626.213 215.087 625.986 214.94C625.76 214.78 625.466 214.547 625.106 214.24C624.76 213.933 624.506 213.613 624.346 213.28C624.186 212.947 624.106 212.587 624.106 212.2C624.106 211.413 624.466 210.7 625.186 210.06C625.906 209.42 626.713 209.1 627.606 209.1C627.993 209.1 628.473 209.2 629.046 209.4C629.62 209.6 629.946 209.7 630.026 209.7C630.186 209.7 630.266 209.567 630.266 209.3H630.726L630.926 211.84H630.486C630.406 211.253 630.113 210.767 629.606 210.38C629.1 209.98 628.44 209.78 627.626 209.78C627.013 209.78 626.52 209.98 626.146 210.38C625.786 210.767 625.606 211.16 625.606 211.56C625.606 211.813 625.666 212.053 625.786 212.28C625.906 212.493 626.093 212.693 626.346 212.88C626.6 213.067 626.84 213.233 627.066 213.38C627.293 213.513 627.593 213.68 627.966 213.88C628.353 214.08 628.646 214.24 628.846 214.36C629.393 214.693 629.786 214.94 630.026 215.1C630.266 215.26 630.573 215.507 630.946 215.84C631.333 216.173 631.6 216.52 631.746 216.88C631.906 217.227 631.986 217.613 631.986 218.04C631.986 219.027 631.586 219.8 630.786 220.36C629.986 220.92 629.073 221.2 628.046 221.2ZM634.857 213.68C635.044 213.68 635.204 213.747 635.337 213.88C635.484 214.013 635.557 214.22 635.557 214.5C635.557 214.727 635.464 214.9 635.277 215.02C635.104 215.14 634.897 215.2 634.657 215.2C634.404 215.2 634.197 215.113 634.037 214.94C633.877 214.753 633.797 214.507 633.797 214.2C633.797 213.507 634.084 212.967 634.657 212.58C635.231 212.193 636.044 212 637.097 212C638.337 212 639.244 212.307 639.817 212.92C640.404 213.533 640.697 214.347 640.697 215.36V219.32C640.697 219.747 640.764 220.06 640.897 220.26C641.044 220.46 641.217 220.56 641.417 220.56C641.591 220.56 641.744 220.513 641.877 220.42C642.024 220.327 642.097 220.213 642.097 220.08H642.457C642.457 220.453 642.317 220.727 642.037 220.9C641.771 221.073 641.297 221.16 640.617 221.16C639.951 221.16 639.477 220.887 639.197 220.34C638.411 220.913 637.431 221.2 636.257 221.2C634.257 221.2 633.257 220.387 633.257 218.76C633.257 218.413 633.377 218.1 633.617 217.82C633.871 217.54 634.231 217.307 634.697 217.12C635.164 216.933 635.604 216.787 636.017 216.68C636.431 216.56 636.944 216.433 637.557 216.3C638.184 216.153 638.631 216.04 638.897 215.96C638.897 214.84 638.751 214.02 638.457 213.5C638.164 212.98 637.644 212.72 636.897 212.72C635.697 212.72 635.017 213.04 634.857 213.68ZM639.017 219.84C638.937 219.547 638.897 219.187 638.897 218.76V216.4C638.751 216.453 638.497 216.527 638.137 216.62C637.791 216.713 637.504 216.793 637.277 216.86C637.064 216.927 636.804 217.027 636.497 217.16C636.191 217.293 635.951 217.427 635.777 217.56C635.604 217.693 635.451 217.873 635.317 218.1C635.184 218.313 635.117 218.547 635.117 218.8C635.117 219.44 635.237 219.887 635.477 220.14C635.731 220.393 636.104 220.52 636.597 220.52C637.477 220.52 638.284 220.293 639.017 219.84ZM642.905 221V220.58C643.625 220.58 644.045 220.447 644.165 220.18V213.42C643.338 213.353 642.918 213.32 642.905 213.32V212.86C643.158 212.86 643.652 212.72 644.385 212.44C645.132 212.147 645.658 212 645.965 212V212.9C646.672 212.3 647.412 212 648.185 212C649.785 212 650.812 212.387 651.265 213.16C652.012 212.387 652.845 212 653.765 212C656.005 212 657.125 212.76 657.125 214.28V220.18C657.245 220.447 657.665 220.58 658.385 220.58V221H654.065V220.58C654.785 220.58 655.205 220.447 655.325 220.18V215.02C655.325 214.153 655.198 213.547 654.945 213.2C654.692 212.853 654.258 212.68 653.645 212.68C652.858 212.68 652.132 213 651.465 213.64C651.518 213.813 651.545 214.027 651.545 214.28V220.18C651.665 220.447 652.085 220.58 652.805 220.58V221H648.485V220.58C649.205 220.58 649.625 220.447 649.745 220.18V215.02C649.745 214.153 649.618 213.547 649.365 213.2C649.112 212.853 648.678 212.68 648.065 212.68C647.305 212.68 646.605 212.973 645.965 213.56V220.18C646.085 220.447 646.505 220.58 647.225 220.58V221H642.905ZM668.535 221.2C667.881 221.2 667.215 221.1 666.535 220.9C665.855 220.7 665.501 220.6 665.475 220.6C665.395 220.6 665.301 220.64 665.195 220.72C665.088 220.8 665.035 220.893 665.035 221H664.575V218.22H665.015C665.161 219.02 665.555 219.607 666.195 219.98C666.848 220.34 667.588 220.52 668.415 220.52C669.121 220.52 669.701 220.36 670.155 220.04C670.608 219.72 670.835 219.24 670.835 218.6C670.835 218.307 670.768 218.04 670.635 217.8C670.515 217.56 670.321 217.34 670.055 217.14C669.801 216.927 669.555 216.753 669.315 216.62C669.075 216.473 668.761 216.3 668.375 216.1C668.001 215.887 667.715 215.72 667.515 215.6C667.048 215.307 666.701 215.087 666.475 214.94C666.248 214.78 665.955 214.547 665.595 214.24C665.248 213.933 664.995 213.613 664.835 213.28C664.675 212.947 664.595 212.587 664.595 212.2C664.595 211.413 664.955 210.7 665.675 210.06C666.395 209.42 667.201 209.1 668.095 209.1C668.481 209.1 668.961 209.2 669.535 209.4C670.108 209.6 670.435 209.7 670.515 209.7C670.675 209.7 670.755 209.567 670.755 209.3H671.215L671.415 211.84H670.975C670.895 211.253 670.601 210.767 670.095 210.38C669.588 209.98 668.928 209.78 668.115 209.78C667.501 209.78 667.008 209.98 666.635 210.38C666.275 210.767 666.095 211.16 666.095 211.56C666.095 211.813 666.155 212.053 666.275 212.28C666.395 212.493 666.581 212.693 666.835 212.88C667.088 213.067 667.328 213.233 667.555 213.38C667.781 213.513 668.081 213.68 668.455 213.88C668.841 214.08 669.135 214.24 669.335 214.36C669.881 214.693 670.275 214.94 670.515 215.1C670.755 215.26 671.061 215.507 671.435 215.84C671.821 216.173 672.088 216.52 672.235 216.88C672.395 217.227 672.475 217.613 672.475 218.04C672.475 219.027 672.075 219.8 671.275 220.36C670.475 220.92 669.561 221.2 668.535 221.2ZM673.569 221V220.58C674.289 220.58 674.709 220.447 674.829 220.18V213.42C674.003 213.353 673.583 213.32 673.569 213.32V212.86C673.823 212.86 674.316 212.72 675.049 212.44C675.796 212.147 676.323 212 676.629 212V212.9C677.336 212.3 678.076 212 678.849 212C680.449 212 681.476 212.387 681.929 213.16C682.676 212.387 683.509 212 684.429 212C686.669 212 687.789 212.76 687.789 214.28V220.18C687.909 220.447 688.329 220.58 689.049 220.58V221H684.729V220.58C685.449 220.58 685.869 220.447 685.989 220.18V215.02C685.989 214.153 685.863 213.547 685.609 213.2C685.356 212.853 684.923 212.68 684.309 212.68C683.523 212.68 682.796 213 682.129 213.64C682.183 213.813 682.209 214.027 682.209 214.28V220.18C682.329 220.447 682.749 220.58 683.469 220.58V221H679.149V220.58C679.869 220.58 680.289 220.447 680.409 220.18V215.02C680.409 214.153 680.283 213.547 680.029 213.2C679.776 212.853 679.343 212.68 678.729 212.68C677.969 212.68 677.269 212.973 676.629 213.56V220.18C676.749 220.447 677.169 220.58 677.889 220.58V221H673.569ZM690.034 221V220.58C690.754 220.58 691.174 220.447 691.294 220.18V213.42C690.467 213.353 690.047 213.32 690.034 213.32V212.86C690.287 212.86 690.781 212.72 691.514 212.44C692.261 212.147 692.787 212 693.094 212V220.18C693.214 220.447 693.634 220.58 694.354 220.58V221H690.034ZM692.134 210.72C691.841 210.72 691.581 210.613 691.354 210.4C691.141 210.173 691.034 209.887 691.034 209.54C691.034 209.233 691.127 208.967 691.314 208.74C691.514 208.513 691.767 208.4 692.074 208.4C692.367 208.4 692.627 208.513 692.854 208.74C693.081 208.967 693.194 209.253 693.194 209.6C693.194 209.907 693.094 210.173 692.894 210.4C692.694 210.613 692.441 210.72 692.134 210.72ZM698.366 209.3V212.2H700.086V212.8H698.366V219.16C698.366 219.573 698.439 219.893 698.586 220.12C698.732 220.333 699.006 220.44 699.406 220.44C699.646 220.44 699.886 220.327 700.126 220.1C700.379 219.86 700.552 219.533 700.646 219.12L701.126 219.36C700.846 220.587 700.046 221.2 698.726 221.2C697.206 221.2 696.446 220.467 696.446 219V212.8H695.046V212.2C695.672 212.2 696.239 211.94 696.746 211.42C697.252 210.9 697.506 210.193 697.506 209.3H698.366ZM701.846 221V220.58C702.566 220.58 702.986 220.447 703.106 220.18V209.82C702.279 209.753 701.859 209.72 701.846 209.72V209.26C702.099 209.26 702.592 209.12 703.326 208.84C704.072 208.547 704.599 208.4 704.906 208.4V212.92C705.626 212.307 706.419 212 707.286 212C708.552 212 709.452 212.207 709.986 212.62C710.532 213.033 710.806 213.747 710.806 214.76V220.18C710.926 220.447 711.346 220.58 712.066 220.58V221H707.746V220.58C708.466 220.58 708.886 220.447 709.006 220.18V214.62C709.006 213.327 708.392 212.68 707.166 212.68C706.326 212.68 705.572 212.973 704.906 213.56V220.18C705.026 220.447 705.446 220.58 706.166 220.58V221H701.846ZM714.442 221.12C714.149 221.12 713.902 221.033 713.702 220.86C713.515 220.687 713.422 220.447 713.422 220.14C713.422 219.78 713.549 219.5 713.802 219.3C714.055 219.1 714.309 219 714.562 219C715.042 219 715.429 219.213 715.722 219.64C716.029 220.053 716.182 220.547 716.182 221.12C716.182 222.24 715.355 223.06 713.702 223.58V223.02C714.035 222.98 714.375 222.793 714.722 222.46C715.082 222.14 715.262 221.773 715.262 221.36C715.262 221.12 715.249 220.98 715.222 220.94C715.195 220.887 715.142 220.86 715.062 220.86C715.022 220.86 714.942 220.907 714.822 221C714.715 221.08 714.589 221.12 714.442 221.12ZM728.596 220.52C729.489 220.52 730.236 220.147 730.836 219.4C731.449 218.653 731.756 217.667 731.756 216.44V210.12C731.636 209.853 731.216 209.72 730.496 209.72V209.3H733.696V209.72C732.976 209.72 732.556 209.853 732.436 210.12V216.04C732.436 217.773 732.049 219.067 731.276 219.92C730.516 220.773 729.556 221.2 728.396 221.2C725.196 221.2 723.596 219.48 723.596 216.04V210.12C723.476 209.853 723.056 209.72 722.336 209.72V209.3H726.696V209.72C725.976 209.72 725.556 209.853 725.436 210.12V216.32C725.436 217.64 725.729 218.673 726.316 219.42C726.903 220.153 727.663 220.52 728.596 220.52ZM734.507 221V220.58C735.227 220.58 735.647 220.447 735.767 220.18V213.42C734.94 213.353 734.52 213.32 734.507 213.32V212.86C734.76 212.86 735.253 212.72 735.987 212.44C736.733 212.147 737.26 212 737.567 212V212.88C738.233 212.293 738.893 212 739.547 212C740.147 212 740.647 212.113 741.047 212.34C741.46 212.567 741.667 212.82 741.667 213.1C741.667 213.58 741.4 213.82 740.867 213.82C740.587 213.82 740.333 213.633 740.107 213.26C739.88 212.873 739.62 212.68 739.327 212.68C738.807 212.68 738.22 212.967 737.567 213.54V220.18C737.687 220.447 738.107 220.58 738.827 220.58V221H734.507ZM750.72 212V220.42C750.72 221.793 750.386 222.9 749.72 223.74C749.066 224.58 748.106 225 746.84 225C745.706 225 744.793 224.807 744.1 224.42C743.42 224.033 743.08 223.627 743.08 223.2C743.08 222.893 743.16 222.647 743.32 222.46C743.48 222.287 743.686 222.2 743.94 222.2C744.18 222.2 744.386 222.26 744.56 222.38C744.746 222.5 744.84 222.673 744.84 222.9C744.84 223.327 744.673 223.607 744.34 223.74C744.7 224.1 745.466 224.28 746.64 224.28C748.013 224.28 748.766 223.053 748.9 220.6C748.286 221 747.5 221.2 746.54 221.2C746.1 221.2 745.66 221.133 745.22 221C744.793 220.853 744.36 220.62 743.92 220.3C743.493 219.98 743.14 219.507 742.86 218.88C742.593 218.24 742.46 217.493 742.46 216.64C742.46 215.147 742.873 214 743.7 213.2C744.54 212.4 745.633 212 746.98 212C747.82 212 748.553 212.213 749.18 212.64C749.86 212.213 750.373 212 750.72 212ZM748.92 219.94V219.7V213.1C748.44 212.82 747.833 212.68 747.1 212.68C746.366 212.68 745.726 213.033 745.18 213.74C744.633 214.433 744.36 215.4 744.36 216.64C744.36 217.813 744.58 218.753 745.02 219.46C745.46 220.167 746.033 220.52 746.74 220.52C747.62 220.52 748.346 220.327 748.92 219.94ZM754.75 216.18C754.764 217.3 755.084 218.293 755.71 219.16C756.35 220.013 757.064 220.44 757.85 220.44C759.01 220.44 759.944 220 760.65 219.12L761.13 219.36C760.744 220 760.237 220.467 759.61 220.76C758.997 221.053 758.184 221.2 757.17 221.2C756.664 221.2 756.177 221.127 755.71 220.98C755.244 220.82 754.784 220.567 754.33 220.22C753.877 219.86 753.517 219.333 753.25 218.64C752.984 217.947 752.85 217.12 752.85 216.16C752.85 214.987 753.21 214 753.93 213.2C754.664 212.4 755.677 212 756.97 212C758.384 212 759.437 212.4 760.13 213.2C760.824 213.987 761.17 214.98 761.17 216.18H754.75ZM754.77 215.56H759.21C759.13 214.6 758.924 213.867 758.59 213.36C758.27 212.853 757.704 212.6 756.89 212.6C756.424 212.6 755.97 212.873 755.53 213.42C755.104 213.967 754.85 214.68 754.77 215.56ZM762.554 221V220.58C763.274 220.58 763.694 220.447 763.814 220.18V213.42C762.987 213.353 762.567 213.32 762.554 213.32V212.86C762.807 212.86 763.3 212.72 764.034 212.44C764.78 212.147 765.307 212 765.614 212V212.92C766.334 212.307 767.127 212 767.994 212C769.234 212 770.127 212.233 770.674 212.7C771.234 213.153 771.514 213.867 771.514 214.84V220.18C771.634 220.447 772.054 220.58 772.774 220.58V221H768.454V220.58C769.174 220.58 769.594 220.447 769.714 220.18V214.7C769.714 213.353 769.1 212.68 767.874 212.68C767.034 212.68 766.28 212.973 765.614 213.56V220.18C765.734 220.447 766.154 220.58 766.874 220.58V221H762.554ZM778.467 212.6C777.641 212.6 776.974 212.913 776.467 213.54C775.961 214.167 775.707 215.013 775.707 216.08C775.707 217.213 776.021 218.227 776.647 219.12C777.287 220 778.007 220.44 778.807 220.44C779.967 220.44 780.901 220 781.607 219.12L782.087 219.36C781.701 220 781.194 220.467 780.567 220.76C779.954 221.053 779.141 221.2 778.127 221.2C777.621 221.2 777.134 221.127 776.667 220.98C776.201 220.82 775.741 220.567 775.287 220.22C774.834 219.86 774.474 219.333 774.207 218.64C773.941 217.947 773.807 217.12 773.807 216.16C773.807 215 774.214 214.02 775.027 213.22C775.854 212.407 776.934 212 778.267 212C779.321 212 780.134 212.18 780.707 212.54C781.281 212.9 781.567 213.427 781.567 214.12C781.567 214.427 781.487 214.673 781.327 214.86C781.167 215.033 780.961 215.12 780.707 215.12C780.467 215.12 780.254 215.06 780.067 214.94C779.894 214.82 779.807 214.647 779.807 214.42C779.807 214.14 779.874 213.933 780.007 213.8C780.154 213.667 780.321 213.6 780.507 213.6C780.334 212.933 779.654 212.6 778.467 212.6ZM786.378 212.2V212.62C785.991 212.62 785.711 212.647 785.538 212.7L787.918 218.56L790.198 212.84C790.011 212.693 789.638 212.62 789.078 212.62V212.2H792.358V212.62C791.638 212.62 791.224 212.74 791.118 212.98L787.098 223.04C786.844 223.667 786.518 224.12 786.118 224.4C785.731 224.693 785.358 224.84 784.998 224.84C784.664 224.84 784.398 224.753 784.198 224.58C784.011 224.407 783.918 224.2 783.918 223.96C783.918 223.76 783.984 223.58 784.118 223.42C784.264 223.26 784.458 223.18 784.698 223.18C784.844 223.18 784.998 223.233 785.158 223.34C785.318 223.46 785.438 223.52 785.518 223.52C785.798 223.52 785.984 223.4 786.078 223.16L786.938 221L783.758 213.02C783.638 212.753 783.218 212.62 782.498 212.62V212.2H786.378ZM801.25 209.3V209.72C800.637 209.72 800.25 209.8 800.09 209.96L803.15 218.34L806.09 210.08C805.957 209.84 805.544 209.72 804.85 209.72V209.3H808.13V209.72C807.384 209.72 806.977 209.827 806.91 210.04L802.99 221H802.03L798.15 210.14C798.044 209.86 797.617 209.72 796.87 209.72V209.3H801.25ZM809.232 213.68C809.419 213.68 809.579 213.747 809.712 213.88C809.859 214.013 809.932 214.22 809.932 214.5C809.932 214.727 809.839 214.9 809.652 215.02C809.479 215.14 809.272 215.2 809.032 215.2C808.779 215.2 808.572 215.113 808.412 214.94C808.252 214.753 808.172 214.507 808.172 214.2C808.172 213.507 808.459 212.967 809.032 212.58C809.606 212.193 810.419 212 811.472 212C812.712 212 813.619 212.307 814.192 212.92C814.779 213.533 815.072 214.347 815.072 215.36V219.32C815.072 219.747 815.139 220.06 815.272 220.26C815.419 220.46 815.592 220.56 815.792 220.56C815.966 220.56 816.119 220.513 816.252 220.42C816.399 220.327 816.472 220.213 816.472 220.08H816.832C816.832 220.453 816.692 220.727 816.412 220.9C816.146 221.073 815.672 221.16 814.992 221.16C814.326 221.16 813.852 220.887 813.572 220.34C812.786 220.913 811.806 221.2 810.632 221.2C808.632 221.2 807.632 220.387 807.632 218.76C807.632 218.413 807.752 218.1 807.992 217.82C808.246 217.54 808.606 217.307 809.072 217.12C809.539 216.933 809.979 216.787 810.392 216.68C810.806 216.56 811.319 216.433 811.932 216.3C812.559 216.153 813.006 216.04 813.272 215.96C813.272 214.84 813.126 214.02 812.832 213.5C812.539 212.98 812.019 212.72 811.272 212.72C810.072 212.72 809.392 213.04 809.232 213.68ZM813.392 219.84C813.312 219.547 813.272 219.187 813.272 218.76V216.4C813.126 216.453 812.872 216.527 812.512 216.62C812.166 216.713 811.879 216.793 811.652 216.86C811.439 216.927 811.179 217.027 810.872 217.16C810.566 217.293 810.326 217.427 810.152 217.56C809.979 217.693 809.826 217.873 809.692 218.1C809.559 218.313 809.492 218.547 809.492 218.8C809.492 219.44 809.612 219.887 809.852 220.14C810.106 220.393 810.479 220.52 810.972 220.52C811.852 220.52 812.659 220.293 813.392 219.84ZM817.08 221V220.58C817.8 220.58 818.22 220.447 818.34 220.18V209.82C817.513 209.753 817.093 209.72 817.08 209.72V209.26C817.333 209.26 817.827 209.12 818.56 208.84C819.307 208.547 819.833 208.4 820.14 208.4V220.18C820.26 220.447 820.68 220.58 821.4 220.58V221H817.08ZM831.038 219.78C831.038 219.78 831.458 219.813 832.298 219.88V220.34C832.045 220.34 831.545 220.487 830.798 220.78C830.065 221.06 829.545 221.2 829.238 221.2V220.28C828.518 220.893 827.725 221.2 826.858 221.2C825.618 221.2 824.718 220.973 824.158 220.52C823.612 220.053 823.338 219.333 823.338 218.36V213.02C823.218 212.753 822.798 212.62 822.078 212.62V212.2H825.138V218.5C825.138 219.847 825.752 220.52 826.978 220.52C827.818 220.52 828.572 220.227 829.238 219.64V213.02C829.118 212.753 828.698 212.62 827.978 212.62V212.2H831.038V219.78ZM835.414 216.18C835.428 217.3 835.748 218.293 836.374 219.16C837.014 220.013 837.728 220.44 838.514 220.44C839.674 220.44 840.608 220 841.314 219.12L841.794 219.36C841.408 220 840.901 220.467 840.274 220.76C839.661 221.053 838.848 221.2 837.834 221.2C837.328 221.2 836.841 221.127 836.374 220.98C835.908 220.82 835.448 220.567 834.994 220.22C834.541 219.86 834.181 219.333 833.914 218.64C833.648 217.947 833.514 217.12 833.514 216.16C833.514 214.987 833.874 214 834.594 213.2C835.328 212.4 836.341 212 837.634 212C839.048 212 840.101 212.4 840.794 213.2C841.488 213.987 841.834 214.98 841.834 216.18H835.414ZM835.434 215.56H839.874C839.794 214.6 839.588 213.867 839.254 213.36C838.934 212.853 838.368 212.6 837.554 212.6C837.088 212.6 836.634 212.873 836.194 213.42C835.768 213.967 835.514 214.68 835.434 215.56ZM844.198 214.24C843.958 213.987 843.838 213.7 843.838 213.38C843.838 213.06 843.944 212.773 844.158 212.52C844.384 212.253 844.671 212.12 845.018 212.12C845.324 212.12 845.604 212.24 845.858 212.48C846.111 212.72 846.238 213 846.238 213.32C846.238 213.64 846.124 213.933 845.898 214.2C845.671 214.467 845.384 214.6 845.038 214.6C844.731 214.6 844.451 214.48 844.198 214.24ZM844.198 220.84C843.958 220.587 843.838 220.3 843.838 219.98C843.838 219.66 843.944 219.373 844.158 219.12C844.384 218.853 844.671 218.72 845.018 218.72C845.324 218.72 845.604 218.84 845.858 219.08C846.111 219.32 846.238 219.6 846.238 219.92C846.238 220.24 846.124 220.533 845.898 220.8C845.671 221.067 845.384 221.2 845.038 221.2C844.731 221.2 844.451 221.08 844.198 220.84ZM857.105 216.02C857.972 216.02 858.638 215.867 859.105 215.56C859.185 215 859.225 214.407 859.225 213.78C859.225 212.393 859.018 211.373 858.605 210.72C858.205 210.067 857.692 209.74 857.065 209.74C856.492 209.74 856.025 210.067 855.665 210.72C855.318 211.36 855.145 212.193 855.145 213.22C855.145 213.673 855.192 214.1 855.285 214.5C855.392 214.887 855.598 215.24 855.905 215.56C856.225 215.867 856.625 216.02 857.105 216.02ZM859.005 216.22C858.458 216.54 857.838 216.7 857.145 216.7C855.705 216.7 854.712 216.387 854.165 215.76C853.618 215.133 853.345 214.233 853.345 213.06C853.345 211.833 853.672 210.867 854.325 210.16C854.978 209.453 855.892 209.1 857.065 209.1C858.332 209.1 859.305 209.54 859.985 210.42C860.678 211.287 861.025 212.407 861.025 213.78C861.025 214.9 860.832 215.947 860.445 216.92C860.058 217.88 859.565 218.667 858.965 219.28C858.378 219.88 857.772 220.36 857.145 220.72C856.518 221.08 855.932 221.293 855.385 221.36L855.145 221C856.132 220.747 856.958 220.213 857.625 219.4C858.292 218.587 858.752 217.527 859.005 216.22ZM867.07 214.28C866.203 214.28 865.537 214.433 865.07 214.74C864.99 215.3 864.95 215.893 864.95 216.52C864.95 217.907 865.15 218.927 865.55 219.58C865.963 220.233 866.483 220.56 867.11 220.56C867.683 220.56 868.143 220.24 868.49 219.6C868.85 218.947 869.03 218.107 869.03 217.08C869.03 216.627 868.977 216.207 868.87 215.82C868.777 215.42 868.57 215.067 868.25 214.76C867.943 214.44 867.55 214.28 867.07 214.28ZM865.17 214.08C865.717 213.76 866.337 213.6 867.03 213.6C868.47 213.6 869.463 213.913 870.01 214.54C870.557 215.167 870.83 216.067 870.83 217.24C870.83 218.467 870.503 219.433 869.85 220.14C869.197 220.847 868.283 221.2 867.11 221.2C865.843 221.2 864.863 220.767 864.17 219.9C863.49 219.033 863.15 217.907 863.15 216.52C863.15 215.4 863.343 214.36 863.73 213.4C864.117 212.427 864.603 211.64 865.19 211.04C865.79 210.427 866.403 209.94 867.03 209.58C867.657 209.22 868.243 209.007 868.79 208.94L869.03 209.3C868.043 209.553 867.217 210.087 866.55 210.9C865.883 211.713 865.423 212.773 865.17 214.08Z" fill="#E85A4F"/>
<path d="M724.84 178V177.58C725.56 177.58 725.98 177.447 726.1 177.18V167.12C725.98 166.853 725.56 166.72 724.84 166.72V166.3H729.2V166.72C728.48 166.72 728.06 166.853 727.94 167.12V177.32H732.5C732.833 177.173 733.133 176.753 733.4 176.06H733.8L733.32 178H724.84ZM734.742 178V177.58C735.462 177.58 735.882 177.447 736.002 177.18V167.12C735.882 166.853 735.462 166.72 734.742 166.72V166.3H739.102V166.72C738.382 166.72 737.962 166.853 737.842 167.12V177.32H742.402C742.736 177.173 743.036 176.753 743.302 176.06H743.702L743.222 178H734.742ZM744.645 178V177.58C745.365 177.58 745.785 177.447 745.905 177.18V167.12C745.785 166.853 745.365 166.72 744.645 166.72V166.3H747.565L751.825 175.6L756.085 166.3H759.045V166.72C758.325 166.72 757.905 166.853 757.785 167.12V177.18C757.905 177.447 758.325 177.58 759.045 177.58V178H754.685V177.58C755.405 177.58 755.825 177.447 755.945 177.18V168.2L751.465 178H751.165L746.585 168.08V177.18C746.705 177.447 747.125 177.58 747.845 177.58V178H744.645ZM771.444 177.52C772.337 177.52 773.084 177.147 773.684 176.4C774.297 175.653 774.604 174.667 774.604 173.44V167.12C774.484 166.853 774.064 166.72 773.344 166.72V166.3H776.544V166.72C775.824 166.72 775.404 166.853 775.284 167.12V173.04C775.284 174.773 774.897 176.067 774.124 176.92C773.364 177.773 772.404 178.2 771.244 178.2C768.044 178.2 766.444 176.48 766.444 173.04V167.12C766.324 166.853 765.904 166.72 765.184 166.72V166.3H769.544V166.72C768.824 166.72 768.404 166.853 768.284 167.12V173.32C768.284 174.64 768.577 175.673 769.164 176.42C769.75 177.153 770.51 177.52 771.444 177.52ZM777.354 178V177.58C778.074 177.58 778.494 177.447 778.614 177.18V170.42C777.788 170.353 777.368 170.32 777.354 170.32V169.86C777.608 169.86 778.101 169.72 778.834 169.44C779.581 169.147 780.108 169 780.414 169V169.88C781.081 169.293 781.741 169 782.394 169C782.994 169 783.494 169.113 783.894 169.34C784.308 169.567 784.514 169.82 784.514 170.1C784.514 170.58 784.248 170.82 783.714 170.82C783.434 170.82 783.181 170.633 782.954 170.26C782.728 169.873 782.468 169.68 782.174 169.68C781.654 169.68 781.068 169.967 780.414 170.54V177.18C780.534 177.447 780.954 177.58 781.674 177.58V178H777.354ZM793.567 169V177.42C793.567 178.793 793.234 179.9 792.567 180.74C791.914 181.58 790.954 182 789.687 182C788.554 182 787.641 181.807 786.947 181.42C786.267 181.033 785.927 180.627 785.927 180.2C785.927 179.893 786.007 179.647 786.167 179.46C786.327 179.287 786.534 179.2 786.787 179.2C787.027 179.2 787.234 179.26 787.407 179.38C787.594 179.5 787.687 179.673 787.687 179.9C787.687 180.327 787.521 180.607 787.187 180.74C787.547 181.1 788.314 181.28 789.487 181.28C790.861 181.28 791.614 180.053 791.747 177.6C791.134 178 790.347 178.2 789.387 178.2C788.947 178.2 788.507 178.133 788.067 178C787.641 177.853 787.207 177.62 786.767 177.3C786.341 176.98 785.987 176.507 785.707 175.88C785.441 175.24 785.307 174.493 785.307 173.64C785.307 172.147 785.721 171 786.547 170.2C787.387 169.4 788.481 169 789.827 169C790.667 169 791.401 169.213 792.027 169.64C792.707 169.213 793.221 169 793.567 169ZM791.767 176.94V176.7V170.1C791.287 169.82 790.681 169.68 789.947 169.68C789.214 169.68 788.574 170.033 788.027 170.74C787.481 171.433 787.207 172.4 787.207 173.64C787.207 174.813 787.427 175.753 787.867 176.46C788.307 177.167 788.881 177.52 789.587 177.52C790.467 177.52 791.194 177.327 791.767 176.94ZM797.598 173.18C797.611 174.3 797.931 175.293 798.558 176.16C799.198 177.013 799.911 177.44 800.698 177.44C801.858 177.44 802.791 177 803.498 176.12L803.978 176.36C803.591 177 803.085 177.467 802.458 177.76C801.845 178.053 801.031 178.2 800.018 178.2C799.511 178.2 799.025 178.127 798.558 177.98C798.091 177.82 797.631 177.567 797.178 177.22C796.725 176.86 796.365 176.333 796.098 175.64C795.831 174.947 795.698 174.12 795.698 173.16C795.698 171.987 796.058 171 796.778 170.2C797.511 169.4 798.525 169 799.818 169C801.231 169 802.285 169.4 802.978 170.2C803.671 170.987 804.018 171.98 804.018 173.18H797.598ZM797.618 172.56H802.058C801.978 171.6 801.771 170.867 801.438 170.36C801.118 169.853 800.551 169.6 799.738 169.6C799.271 169.6 798.818 169.873 798.378 170.42C797.951 170.967 797.698 171.68 797.618 172.56ZM805.401 178V177.58C806.121 177.58 806.541 177.447 806.661 177.18V170.42C805.835 170.353 805.415 170.32 805.401 170.32V169.86C805.655 169.86 806.148 169.72 806.881 169.44C807.628 169.147 808.155 169 808.461 169V169.92C809.181 169.307 809.975 169 810.841 169C812.081 169 812.975 169.233 813.521 169.7C814.081 170.153 814.361 170.867 814.361 171.84V177.18C814.481 177.447 814.901 177.58 815.621 177.58V178H811.301V177.58C812.021 177.58 812.441 177.447 812.561 177.18V171.7C812.561 170.353 811.948 169.68 810.721 169.68C809.881 169.68 809.128 169.973 808.461 170.56V177.18C808.581 177.447 809.001 177.58 809.721 177.58V178H805.401ZM821.315 169.6C820.488 169.6 819.822 169.913 819.315 170.54C818.808 171.167 818.555 172.013 818.555 173.08C818.555 174.213 818.868 175.227 819.495 176.12C820.135 177 820.855 177.44 821.655 177.44C822.815 177.44 823.748 177 824.455 176.12L824.935 176.36C824.548 177 824.042 177.467 823.415 177.76C822.802 178.053 821.988 178.2 820.975 178.2C820.468 178.2 819.982 178.127 819.515 177.98C819.048 177.82 818.588 177.567 818.135 177.22C817.682 176.86 817.322 176.333 817.055 175.64C816.788 174.947 816.655 174.12 816.655 173.16C816.655 172 817.062 171.02 817.875 170.22C818.702 169.407 819.782 169 821.115 169C822.168 169 822.982 169.18 823.555 169.54C824.128 169.9 824.415 170.427 824.415 171.12C824.415 171.427 824.335 171.673 824.175 171.86C824.015 172.033 823.808 172.12 823.555 172.12C823.315 172.12 823.102 172.06 822.915 171.94C822.742 171.82 822.655 171.647 822.655 171.42C822.655 171.14 822.722 170.933 822.855 170.8C823.002 170.667 823.168 170.6 823.355 170.6C823.182 169.933 822.502 169.6 821.315 169.6ZM829.225 169.2V169.62C828.839 169.62 828.559 169.647 828.385 169.7L830.765 175.56L833.045 169.84C832.859 169.693 832.485 169.62 831.925 169.62V169.2H835.205V169.62C834.485 169.62 834.072 169.74 833.965 169.98L829.945 180.04C829.692 180.667 829.365 181.12 828.965 181.4C828.579 181.693 828.205 181.84 827.845 181.84C827.512 181.84 827.245 181.753 827.045 181.58C826.859 181.407 826.765 181.2 826.765 180.96C826.765 180.76 826.832 180.58 826.965 180.42C827.112 180.26 827.305 180.18 827.545 180.18C827.692 180.18 827.845 180.233 828.005 180.34C828.165 180.46 828.285 180.52 828.365 180.52C828.645 180.52 828.832 180.4 828.925 180.16L829.785 178L826.605 170.02C826.485 169.753 826.065 169.62 825.345 169.62V169.2H829.225ZM844.098 166.3V166.72C843.485 166.72 843.098 166.8 842.938 166.96L845.998 175.34L848.938 167.08C848.805 166.84 848.391 166.72 847.698 166.72V166.3H850.978V166.72C850.231 166.72 849.825 166.827 849.758 167.04L845.838 178H844.878L840.998 167.14C840.891 166.86 840.465 166.72 839.718 166.72V166.3H844.098ZM852.08 170.68C852.267 170.68 852.427 170.747 852.56 170.88C852.707 171.013 852.78 171.22 852.78 171.5C852.78 171.727 852.687 171.9 852.5 172.02C852.327 172.14 852.12 172.2 851.88 172.2C851.627 172.2 851.42 172.113 851.26 171.94C851.1 171.753 851.02 171.507 851.02 171.2C851.02 170.507 851.307 169.967 851.88 169.58C852.453 169.193 853.267 169 854.32 169C855.56 169 856.467 169.307 857.04 169.92C857.627 170.533 857.92 171.347 857.92 172.36V176.32C857.92 176.747 857.987 177.06 858.12 177.26C858.267 177.46 858.44 177.56 858.64 177.56C858.813 177.56 858.967 177.513 859.1 177.42C859.247 177.327 859.32 177.213 859.32 177.08H859.68C859.68 177.453 859.54 177.727 859.26 177.9C858.993 178.073 858.52 178.16 857.84 178.16C857.173 178.16 856.7 177.887 856.42 177.34C855.633 177.913 854.653 178.2 853.48 178.2C851.48 178.2 850.48 177.387 850.48 175.76C850.48 175.413 850.6 175.1 850.84 174.82C851.093 174.54 851.453 174.307 851.92 174.12C852.387 173.933 852.827 173.787 853.24 173.68C853.653 173.56 854.167 173.433 854.78 173.3C855.407 173.153 855.853 173.04 856.12 172.96C856.12 171.84 855.973 171.02 855.68 170.5C855.387 169.98 854.867 169.72 854.12 169.72C852.92 169.72 852.24 170.04 852.08 170.68ZM856.24 176.84C856.16 176.547 856.12 176.187 856.12 175.76V173.4C855.973 173.453 855.72 173.527 855.36 173.62C855.013 173.713 854.727 173.793 854.5 173.86C854.287 173.927 854.027 174.027 853.72 174.16C853.413 174.293 853.173 174.427 853 174.56C852.827 174.693 852.673 174.873 852.54 175.1C852.407 175.313 852.34 175.547 852.34 175.8C852.34 176.44 852.46 176.887 852.7 177.14C852.953 177.393 853.327 177.52 853.82 177.52C854.7 177.52 855.507 177.293 856.24 176.84ZM859.928 178V177.58C860.648 177.58 861.068 177.447 861.188 177.18V166.82C860.361 166.753 859.941 166.72 859.928 166.72V166.26C860.181 166.26 860.674 166.12 861.408 165.84C862.154 165.547 862.681 165.4 862.988 165.4V177.18C863.108 177.447 863.528 177.58 864.248 177.58V178H859.928ZM873.886 176.78C873.886 176.78 874.306 176.813 875.146 176.88V177.34C874.893 177.34 874.393 177.487 873.646 177.78C872.913 178.06 872.393 178.2 872.086 178.2V177.28C871.366 177.893 870.573 178.2 869.706 178.2C868.466 178.2 867.566 177.973 867.006 177.52C866.459 177.053 866.186 176.333 866.186 175.36V170.02C866.066 169.753 865.646 169.62 864.926 169.62V169.2H867.986V175.5C867.986 176.847 868.599 177.52 869.826 177.52C870.666 177.52 871.419 177.227 872.086 176.64V170.02C871.966 169.753 871.546 169.62 870.826 169.62V169.2H873.886V176.78ZM878.262 173.18C878.275 174.3 878.595 175.293 879.222 176.16C879.862 177.013 880.575 177.44 881.362 177.44C882.522 177.44 883.455 177 884.162 176.12L884.642 176.36C884.255 177 883.749 177.467 883.122 177.76C882.509 178.053 881.695 178.2 880.682 178.2C880.175 178.2 879.689 178.127 879.222 177.98C878.755 177.82 878.295 177.567 877.842 177.22C877.389 176.86 877.029 176.333 876.762 175.64C876.495 174.947 876.362 174.12 876.362 173.16C876.362 171.987 876.722 171 877.442 170.2C878.175 169.4 879.189 169 880.482 169C881.895 169 882.949 169.4 883.642 170.2C884.335 170.987 884.682 171.98 884.682 173.18H878.262ZM878.282 172.56H882.722C882.642 171.6 882.435 170.867 882.102 170.36C881.782 169.853 881.215 169.6 880.402 169.6C879.935 169.6 879.482 169.873 879.042 170.42C878.615 170.967 878.362 171.68 878.282 172.56ZM897.17 166.78C896.023 166.78 895.07 167.253 894.31 168.2C893.55 169.147 893.17 170.373 893.17 171.88C893.17 173.64 893.57 175.02 894.37 176.02C895.17 177.02 896.13 177.52 897.25 177.52C897.917 177.52 898.577 177.293 899.23 176.84C899.883 176.373 900.303 175.88 900.49 175.36L900.97 175.6C900.663 176.333 900.177 176.953 899.51 177.46C898.857 177.953 897.97 178.2 896.85 178.2C895.077 178.2 893.67 177.627 892.63 176.48C891.603 175.32 891.09 173.933 891.09 172.32C891.09 170.453 891.683 168.953 892.87 167.82C894.07 166.673 895.497 166.1 897.15 166.1C897.537 166.1 897.983 166.2 898.49 166.4C898.997 166.6 899.29 166.7 899.37 166.7C899.53 166.7 899.61 166.567 899.61 166.3H900.07L900.27 168.84H899.83C899.737 168.24 899.47 167.747 899.03 167.36C898.603 166.973 897.983 166.78 897.17 166.78ZM903.72 170.68C903.907 170.68 904.067 170.747 904.2 170.88C904.347 171.013 904.42 171.22 904.42 171.5C904.42 171.727 904.327 171.9 904.14 172.02C903.967 172.14 903.76 172.2 903.52 172.2C903.267 172.2 903.06 172.113 902.9 171.94C902.74 171.753 902.66 171.507 902.66 171.2C902.66 170.507 902.947 169.967 903.52 169.58C904.094 169.193 904.907 169 905.96 169C907.2 169 908.107 169.307 908.68 169.92C909.267 170.533 909.56 171.347 909.56 172.36V176.32C909.56 176.747 909.627 177.06 909.76 177.26C909.907 177.46 910.08 177.56 910.28 177.56C910.454 177.56 910.607 177.513 910.74 177.42C910.887 177.327 910.96 177.213 910.96 177.08H911.32C911.32 177.453 911.18 177.727 910.9 177.9C910.634 178.073 910.16 178.16 909.48 178.16C908.814 178.16 908.34 177.887 908.06 177.34C907.274 177.913 906.294 178.2 905.12 178.2C903.12 178.2 902.12 177.387 902.12 175.76C902.12 175.413 902.24 175.1 902.48 174.82C902.734 174.54 903.094 174.307 903.56 174.12C904.027 173.933 904.467 173.787 904.88 173.68C905.294 173.56 905.807 173.433 906.42 173.3C907.047 173.153 907.494 173.04 907.76 172.96C907.76 171.84 907.614 171.02 907.32 170.5C907.027 169.98 906.507 169.72 905.76 169.72C904.56 169.72 903.88 170.04 903.72 170.68ZM907.88 176.84C907.8 176.547 907.76 176.187 907.76 175.76V173.4C907.614 173.453 907.36 173.527 907 173.62C906.654 173.713 906.367 173.793 906.14 173.86C905.927 173.927 905.667 174.027 905.36 174.16C905.054 174.293 904.814 174.427 904.64 174.56C904.467 174.693 904.314 174.873 904.18 175.1C904.047 175.313 903.98 175.547 903.98 175.8C903.98 176.44 904.1 176.887 904.34 177.14C904.594 177.393 904.967 177.52 905.46 177.52C906.34 177.52 907.147 177.293 907.88 176.84ZM911.568 178V177.58C912.288 177.58 912.708 177.447 912.828 177.18V166.82C912.002 166.753 911.582 166.72 911.568 166.72V166.26C911.822 166.26 912.315 166.12 913.048 165.84C913.795 165.547 914.322 165.4 914.628 165.4V177.18C914.748 177.447 915.168 177.58 915.888 177.58V178H911.568ZM921.667 169.6C920.84 169.6 920.173 169.913 919.667 170.54C919.16 171.167 918.907 172.013 918.907 173.08C918.907 174.213 919.22 175.227 919.847 176.12C920.487 177 921.207 177.44 922.007 177.44C923.167 177.44 924.1 177 924.807 176.12L925.287 176.36C924.9 177 924.393 177.467 923.767 177.76C923.153 178.053 922.34 178.2 921.327 178.2C920.82 178.2 920.333 178.127 919.867 177.98C919.4 177.82 918.94 177.567 918.487 177.22C918.033 176.86 917.673 176.333 917.407 175.64C917.14 174.947 917.007 174.12 917.007 173.16C917.007 172 917.413 171.02 918.227 170.22C919.053 169.407 920.133 169 921.467 169C922.52 169 923.333 169.18 923.907 169.54C924.48 169.9 924.767 170.427 924.767 171.12C924.767 171.427 924.687 171.673 924.527 171.86C924.367 172.033 924.16 172.12 923.907 172.12C923.667 172.12 923.453 172.06 923.267 171.94C923.093 171.82 923.007 171.647 923.007 171.42C923.007 171.14 923.073 170.933 923.207 170.8C923.353 170.667 923.52 170.6 923.707 170.6C923.533 169.933 922.853 169.6 921.667 169.6ZM935.097 176.78C935.097 176.78 935.517 176.813 936.357 176.88V177.34C936.104 177.34 935.604 177.487 934.857 177.78C934.124 178.06 933.604 178.2 933.297 178.2V177.28C932.577 177.893 931.784 178.2 930.917 178.2C929.677 178.2 928.777 177.973 928.217 177.52C927.67 177.053 927.397 176.333 927.397 175.36V170.02C927.277 169.753 926.857 169.62 926.137 169.62V169.2H929.197V175.5C929.197 176.847 929.81 177.52 931.037 177.52C931.877 177.52 932.63 177.227 933.297 176.64V170.02C933.177 169.753 932.757 169.62 932.037 169.62V169.2H935.097V176.78ZM937.213 178V177.58C937.933 177.58 938.353 177.447 938.473 177.18V166.82C937.646 166.753 937.226 166.72 937.213 166.72V166.26C937.466 166.26 937.96 166.12 938.693 165.84C939.44 165.547 939.966 165.4 940.273 165.4V177.18C940.393 177.447 940.813 177.58 941.533 177.58V178H937.213ZM944.189 170.68C944.376 170.68 944.536 170.747 944.669 170.88C944.816 171.013 944.889 171.22 944.889 171.5C944.889 171.727 944.796 171.9 944.609 172.02C944.436 172.14 944.229 172.2 943.989 172.2C943.736 172.2 943.529 172.113 943.369 171.94C943.209 171.753 943.129 171.507 943.129 171.2C943.129 170.507 943.416 169.967 943.989 169.58C944.563 169.193 945.376 169 946.429 169C947.669 169 948.576 169.307 949.149 169.92C949.736 170.533 950.029 171.347 950.029 172.36V176.32C950.029 176.747 950.096 177.06 950.229 177.26C950.376 177.46 950.549 177.56 950.749 177.56C950.923 177.56 951.076 177.513 951.209 177.42C951.356 177.327 951.429 177.213 951.429 177.08H951.789C951.789 177.453 951.649 177.727 951.369 177.9C951.103 178.073 950.629 178.16 949.949 178.16C949.283 178.16 948.809 177.887 948.529 177.34C947.743 177.913 946.763 178.2 945.589 178.2C943.589 178.2 942.589 177.387 942.589 175.76C942.589 175.413 942.709 175.1 942.949 174.82C943.203 174.54 943.563 174.307 944.029 174.12C944.496 173.933 944.936 173.787 945.349 173.68C945.763 173.56 946.276 173.433 946.889 173.3C947.516 173.153 947.963 173.04 948.229 172.96C948.229 171.84 948.083 171.02 947.789 170.5C947.496 169.98 946.976 169.72 946.229 169.72C945.029 169.72 944.349 170.04 944.189 170.68ZM948.349 176.84C948.269 176.547 948.229 176.187 948.229 175.76V173.4C948.083 173.453 947.829 173.527 947.469 173.62C947.123 173.713 946.836 173.793 946.609 173.86C946.396 173.927 946.136 174.027 945.829 174.16C945.523 174.293 945.283 174.427 945.109 174.56C944.936 174.693 944.783 174.873 944.649 175.1C944.516 175.313 944.449 175.547 944.449 175.8C944.449 176.44 944.569 176.887 944.809 177.14C945.063 177.393 945.436 177.52 945.929 177.52C946.809 177.52 947.616 177.293 948.349 176.84ZM955.217 166.3V169.2H956.937V169.8H955.217V176.16C955.217 176.573 955.291 176.893 955.437 177.12C955.584 177.333 955.857 177.44 956.257 177.44C956.497 177.44 956.737 177.327 956.977 177.1C957.231 176.86 957.404 176.533 957.497 176.12L957.977 176.36C957.697 177.587 956.897 178.2 955.577 178.2C954.057 178.2 953.297 177.467 953.297 176V169.8H951.897V169.2C952.524 169.2 953.091 168.94 953.597 168.42C954.104 167.9 954.357 167.193 954.357 166.3H955.217ZM958.897 178V177.58C959.617 177.58 960.037 177.447 960.157 177.18V170.42C959.331 170.353 958.911 170.32 958.897 170.32V169.86C959.151 169.86 959.644 169.72 960.377 169.44C961.124 169.147 961.651 169 961.957 169V177.18C962.077 177.447 962.497 177.58 963.217 177.58V178H958.897ZM960.997 167.72C960.704 167.72 960.444 167.613 960.217 167.4C960.004 167.173 959.897 166.887 959.897 166.54C959.897 166.233 959.991 165.967 960.177 165.74C960.377 165.513 960.631 165.4 960.937 165.4C961.231 165.4 961.491 165.513 961.717 165.74C961.944 165.967 962.057 166.253 962.057 166.6C962.057 166.907 961.957 167.173 961.757 167.4C961.557 167.613 961.304 167.72 960.997 167.72ZM966.231 173.04C966.231 174.56 966.518 175.7 967.091 176.46C967.678 177.22 968.425 177.6 969.331 177.6C970.051 177.6 970.631 177.28 971.071 176.64C971.511 175.987 971.731 175.153 971.731 174.14C971.731 171.127 970.685 169.62 968.591 169.62C967.885 169.62 967.311 169.96 966.871 170.64C966.445 171.307 966.231 172.107 966.231 173.04ZM969.071 178.2C967.578 178.2 966.411 177.767 965.571 176.9C964.731 176.02 964.311 174.867 964.311 173.44C964.311 172.147 964.691 171.087 965.451 170.26C966.211 169.42 967.371 169 968.931 169C970.505 169 971.685 169.42 972.471 170.26C973.258 171.087 973.651 172.227 973.651 173.68C973.651 174.973 973.271 176.053 972.511 176.92C971.765 177.773 970.618 178.2 969.071 178.2ZM975.05 178V177.58C975.77 177.58 976.19 177.447 976.31 177.18V170.42C975.483 170.353 975.063 170.32 975.05 170.32V169.86C975.303 169.86 975.796 169.72 976.53 169.44C977.276 169.147 977.803 169 978.11 169V169.92C978.83 169.307 979.623 169 980.49 169C981.73 169 982.623 169.233 983.17 169.7C983.73 170.153 984.01 170.867 984.01 171.84V177.18C984.13 177.447 984.55 177.58 985.27 177.58V178H980.95V177.58C981.67 177.58 982.09 177.447 982.21 177.18V171.7C982.21 170.353 981.596 169.68 980.37 169.68C979.53 169.68 978.776 169.973 978.11 170.56V177.18C978.23 177.447 978.65 177.58 979.37 177.58V178H975.05Z" fill="#E85A4F"/>
<path d="M696.586 190.414C697.367 191.195 698.633 191.195 699.414 190.414L712.142 177.686C712.923 176.905 712.923 175.639 712.142 174.858C711.361 174.077 710.095 174.077 709.314 174.858L698 186.172L686.686 174.858C685.905 174.077 684.639 174.077 683.858 174.858C683.077 175.639 683.077 176.905 683.858 177.686L696.586 190.414ZM696 155V189H700V155H696Z" fill="#E85A4F"/>
<mask id="mask0_30_35" style="mask-type:alpha" maskUnits="userSpaceOnUse" x="461" y="170" width="56" height="57">
<path d="M475.468 184.69H475.492M475.468 212.363H475.492M470.854 175.466H507.771C510.319 175.466 512.385 177.531 512.385 180.078V189.302C512.385 191.85 510.319 193.915 507.771 193.915H470.854C468.305 193.915 466.239 191.85 466.239 189.302V180.078C466.239 177.531 468.305 175.466 470.854 175.466ZM470.854 203.139H507.771C510.319 203.139 512.385 205.204 512.385 207.751V216.975C512.385 219.522 510.319 221.587 507.771 221.587H470.854C468.305 221.587 466.239 219.522 466.239 216.975V207.751C466.239 205.204 468.305 203.139 470.854 203.139Z" stroke="#1E1E1E" stroke-width="4" stroke-linecap="round" stroke-linejoin="round"/>
</mask>
<g mask="url(#mask0_30_35)">
<rect x="461.625" y="170.854" width="55.3753" height="55.3452" fill="#E85A4F"/>
</g>
<mask id="mask1_30_35" style="mask-type:alpha" maskUnits="userSpaceOnUse" x="59" y="243" width="56" height="56">
<path d="M72.8437 257.331H72.8668M72.8437 285.004H72.8668M68.2291 248.107H105.146C107.695 248.107 109.761 250.172 109.761 252.719V261.943C109.761 264.49 107.695 266.555 105.146 266.555H68.2291C65.6805 266.555 63.6145 264.49 63.6145 261.943V252.719C63.6145 250.172 65.6805 248.107 68.2291 248.107ZM68.2291 275.779H105.146C107.695 275.779 109.761 277.844 109.761 280.391V289.616C109.761 292.163 107.695 294.228 105.146 294.228H68.2291C65.6805 294.228 63.6145 292.163 63.6145 289.616V280.391C63.6145 277.844 65.6805 275.779 68.2291 275.779Z" stroke="#1E1E1E" stroke-width="4" stroke-linecap="round" stroke-linejoin="round"/>
</mask>
<g mask="url(#mask1_30_35)">
<rect x="59" y="243.495" width="55.3753" height="55.3452" fill="#E85A4F"/>
</g>
<mask id="mask2_30_35" style="mask-type:alpha" maskUnits="userSpaceOnUse" x="328" y="342" width="57" height="56">
<path d="M342.798 356.491H342.821M342.798 384.164H342.821M338.184 347.267H375.101C377.649 347.267 379.715 349.332 379.715 351.879V361.103C379.715 363.65 377.649 365.715 375.101 365.715H338.184C335.635 365.715 333.569 363.65 333.569 361.103V351.879C333.569 349.332 335.635 347.267 338.184 347.267ZM338.184 374.939H375.101C377.649 374.939 379.715 377.004 379.715 379.552V388.776C379.715 391.323 377.649 393.388 375.101 393.388H338.184C335.635 393.388 333.569 391.323 333.569 388.776V379.552C333.569 377.004 335.635 374.939 338.184 374.939Z" stroke="#1E1E1E" stroke-width="4" stroke-linecap="round" stroke-linejoin="round"/>
</mask>
<g mask="url(#mask2_30_35)">
<rect x="328.955" y="342.655" width="55.3753" height="55.3452" fill="#E85A4F"/>
</g>
<mask id="mask3_30_35" style="mask-type:alpha" maskUnits="userSpaceOnUse" x="208" y="74" width="57" height="56">
<path d="M222.819 87.8363H222.842M222.819 115.509H222.842M218.204 78.6121H255.121C257.669 78.6121 259.735 80.677 259.735 83.2242V92.4484C259.735 94.9956 257.669 97.0605 255.121 97.0605H218.204C215.655 97.0605 213.589 94.9956 213.589 92.4484V83.2242C213.589 80.677 215.655 78.6121 218.204 78.6121ZM218.204 106.285H255.121C257.669 106.285 259.735 108.35 259.735 110.897V120.121C259.735 122.668 257.669 124.733 255.121 124.733H218.204C215.655 124.733 213.589 122.668 213.589 120.121V110.897C213.589 108.35 215.655 106.285 218.204 106.285Z" stroke="#1E1E1E" stroke-width="4" stroke-linecap="round" stroke-linejoin="round"/>
</mask>
<g mask="url(#mask3_30_35)">
<rect x="208.975" y="74" width="55.3753" height="55.3452" fill="#E85A4F"/>
<mask id="mask4_30_35" style="mask-type:alpha" maskUnits="userSpaceOnUse" x="208" y="74" width="57" height="56">
<path d="M222.819 87.8363H222.842M222.819 115.509H222.842M218.204 78.6121H255.121C257.669 78.6121 259.735 80.677 259.735 83.2242V92.4484C259.735 94.9956 257.669 97.0605 255.121 97.0605H218.204C215.655 97.0605 213.589 94.9956 213.589 92.4484V83.2242C213.589 80.677 215.655 78.6121 218.204 78.6121ZM218.204 106.285H255.121C257.669 106.285 259.735 108.35 259.735 110.897V120.121C259.735 122.668 257.669 124.733 255.121 124.733H218.204C215.655 124.733 213.589 122.668 213.589 120.121V110.897C213.589 108.35 215.655 106.285 218.204 106.285Z" stroke="#1E1E1E" stroke-width="4" stroke-linecap="round" stroke-linejoin="round"/>
</mask>
<g mask="url(#mask4_30_35)">
<rect x="208.975" y="74" width="55.3753" height="55.3452" fill="#E85A4F"/>
</g>
</g>
</svg>
