<svg width="390" height="268" viewBox="0 0 390 268" fill="none" xmlns="http://www.w3.org/2000/svg">
<path d="M12 159H12.02M12 183H12.02M8 151H40C42.2091 151 44 152.791 44 155V163C44 165.209 42.2091 167 40 167H8C5.79086 167 4 165.209 4 163V155C4 152.791 5.79086 151 8 151ZM8 175H40C42.2091 175 44 176.791 44 179V187C44 189.209 42.2091 191 40 191H8C5.79086 191 4 189.209 4 187V179C4 176.791 5.79086 175 8 175Z" stroke="#1E1E1E" stroke-width="4" stroke-linecap="round" stroke-linejoin="round"/>
<path d="M242 232H242.02M242 256H242.02M238 224H270C272.209 224 274 225.791 274 228V236C274 238.209 272.209 240 270 240H238C235.791 240 234 238.209 234 236V228C234 225.791 235.791 224 238 224ZM238 248H270C272.209 248 274 249.791 274 252V260C274 262.209 272.209 264 270 264H238C235.791 264 234 262.209 234 260V252C234 249.791 235.791 248 238 248Z" stroke="#1E1E1E" stroke-width="4" stroke-linecap="round" stroke-linejoin="round"/>
<path d="M354 96H354.02M354 120H354.02M350 88H382C384.209 88 386 89.7909 386 92V100C386 102.209 384.209 104 382 104H350C347.791 104 346 102.209 346 100V92C346 89.7909 347.791 88 350 88ZM350 112H382C384.209 112 386 113.791 386 116V124C386 126.209 384.209 128 382 128H350C347.791 128 346 126.209 346 124V116C346 113.791 347.791 112 350 112Z" stroke="#1E1E1E" stroke-width="4" stroke-linecap="round" stroke-linejoin="round"/>
<line x1="49.0728" y1="191.147" x2="225.073" y2="240.147" stroke="black" stroke-width="8"/>
<line x1="287.836" y1="241.553" x2="362.836" y2="144.553" stroke="black" stroke-width="8"/>
<line x1="55.2655" y1="161.068" x2="328.265" y2="110.068" stroke="black" stroke-width="8"/>
<line x1="125.968" y1="58.6818" x2="50.9678" y2="141.682" stroke="#E85A4F" stroke-width="8"/>
<line x1="164.554" y1="54.1654" x2="244.554" y2="209.165" stroke="#E85A4F" stroke-width="8"/>
<line x1="194.257" y1="29.2025" x2="330.257" y2="74.2025" stroke="#E85A4F" stroke-width="8"/>
<mask id="mask0_15_34" style="mask-type:alpha" maskUnits="userSpaceOnUse" x="128" y="0" width="48" height="48">
<path d="M140 12H140.02M140 36H140.02M136 4H168C170.209 4 172 5.79086 172 8V16C172 18.2091 170.209 20 168 20H136C133.791 20 132 18.2091 132 16V8C132 5.79086 133.791 4 136 4ZM136 28H168C170.209 28 172 29.7909 172 32V40C172 42.2091 170.209 44 168 44H136C133.791 44 132 42.2091 132 40V32C132 29.7909 133.791 28 136 28Z" stroke="#1E1E1E" stroke-width="4" stroke-linecap="round" stroke-linejoin="round"/>
</mask>
<g mask="url(#mask0_15_34)">
<rect x="128" width="48" height="48" fill="#E85A4F"/>
</g>
</svg>