<svg width="499" height="384" viewBox="0 0 499 384" fill="none" xmlns="http://www.w3.org/2000/svg">
<rect width="499" height="384" fill="white"/>
<path d="M55 207H55.02M55 231H55.02M51 199H83C85.2091 199 87 200.791 87 203V211C87 213.209 85.2091 215 83 215H51C48.7909 215 47 213.209 47 211V203C47 200.791 48.7909 199 51 199ZM51 223H83C85.2091 223 87 224.791 87 227V235C87 237.209 85.2091 239 83 239H51C48.7909 239 47 237.209 47 235V227C47 224.791 48.7909 223 51 223Z" stroke="#1E1E1E" stroke-width="4" stroke-linecap="round" stroke-linejoin="round"/>
<path d="M285 280H285.02M285 304H285.02M281 272H313C315.209 272 317 273.791 317 276V284C317 286.209 315.209 288 313 288H281C278.791 288 277 286.209 277 284V276C277 273.791 278.791 272 281 272ZM281 296H313C315.209 296 317 297.791 317 300V308C317 310.209 315.209 312 313 312H281C278.791 312 277 310.209 277 308V300C277 297.791 278.791 296 281 296Z" stroke="#1E1E1E" stroke-width="4" stroke-linecap="round" stroke-linejoin="round"/>
<path d="M397 144H397.02M397 168H397.02M393 136H425C427.209 136 429 137.791 429 140V148C429 150.209 427.209 152 425 152H393C390.791 152 389 150.209 389 148V140C389 137.791 390.791 136 393 136ZM393 160H425C427.209 160 429 161.791 429 164V172C429 174.209 427.209 176 425 176H393C390.791 176 389 174.209 389 172V164C389 161.791 390.791 160 393 160Z" stroke="#1E1E1E" stroke-width="4" stroke-linecap="round" stroke-linejoin="round"/>
<line x1="92.0728" y1="239.147" x2="268.073" y2="288.147" stroke="black" stroke-width="8"/>
<line x1="330.836" y1="289.553" x2="405.836" y2="192.553" stroke="black" stroke-width="8"/>
<line x1="98.2655" y1="209.068" x2="371.265" y2="158.068" stroke="black" stroke-width="8"/>
<line x1="168.968" y1="106.682" x2="93.9678" y2="189.682" stroke="#E85A4F" stroke-width="8"/>
<line x1="207.554" y1="102.165" x2="287.554" y2="257.165" stroke="#E85A4F" stroke-width="8"/>
<line x1="237.257" y1="77.2025" x2="373.257" y2="122.202" stroke="#E85A4F" stroke-width="8"/>
<mask id="mask0_30_38" style="mask-type:alpha" maskUnits="userSpaceOnUse" x="171" y="48" width="48" height="48">
<path d="M183 60H183.02M183 84H183.02M179 52H211C213.209 52 215 53.7909 215 56V64C215 66.2091 213.209 68 211 68H179C176.791 68 175 66.2091 175 64V56C175 53.7909 176.791 52 179 52ZM179 76H211C213.209 76 215 77.7909 215 80V88C215 90.2091 213.209 92 211 92H179C176.791 92 175 90.2091 175 88V80C175 77.7909 176.791 76 179 76Z" stroke="#1E1E1E" stroke-width="4" stroke-linecap="round" stroke-linejoin="round"/>
</mask>
<g mask="url(#mask0_30_38)">
<rect x="171" y="48" width="48" height="48" fill="#E85A4F"/>
</g>
</svg>
